<?xml version="1.0" encoding="utf-8"?>
<!-- Generator: Adobe Illustrator 23.0.1, SVG Export Plug-In . SVG Version: 6.00 Build 0)  -->
<svg version="1.1" id="Layer_1" xmlns="http://www.w3.org/2000/svg" xmlns:xlink="http://www.w3.org/1999/xlink" x="0px" y="0px"
	 viewBox="0 0 100 100" style="enable-background:new 0 0 100 100;" xml:space="preserve">
<path id="Path_30" d="M77.52,54.44c-4.29,0-8.18,2.41-10.53,6.18V44.68c0-12.18-9.88-22.05-22.06-22.06V58.5H4.42v2.06h16.82
	L46.35,75.2l0,0c2.53,1.44,5.39,2.19,8.29,2.18c2.9-0.01,5.76-0.76,8.29-2.18l0,0l19.23-11.23h13.41l-7.53-3.41
	C85.7,56.85,81.88,54.44,77.52,54.44z M78.88,60.85c-0.75,0-1.35-0.61-1.35-1.35c0-0.75,0.61-1.35,1.35-1.35
	c0.75,0,1.35,0.61,1.35,1.35l0,0C80.22,60.24,79.62,60.84,78.88,60.85z"/>
</svg>
