<?xml version="1.0" encoding="utf-8"?>
<!-- Generator: Adobe Illustrator 23.0.1, SVG Export Plug-In . SVG Version: 6.00 Build 0)  -->
<svg version="1.1" id="Layer_1" xmlns="http://www.w3.org/2000/svg" xmlns:xlink="http://www.w3.org/1999/xlink" x="0px" y="0px"
	 viewBox="0 0 100 100" style="enable-background:new 0 0 100 100;" xml:space="preserve">
<g>
	<path id="Path_32" d="M16.48,19.09h-6.7c-1.92,0-3.47,1.56-3.47,3.48c0,1.92,1.56,3.47,3.47,3.47h6.7v52.46
		c-0.01,3.83,3.1,6.94,6.93,6.95c0.01,0,0.02,0,0.02,0V26.04c0.04-3.8-3.02-6.92-6.82-6.95C16.57,19.09,16.53,19.09,16.48,19.09z"/>
	<path id="Path_33" d="M88.97,40.28l4.72-6.12l-6.95-11.01l-8.36-2.48l0.17-6.21l-9.6,7.2l-5.63,14.56
		c-23.23,5.01-39.82,25.55-39.8,49.32h56.93c-0.01-4.03-2.67-7.57-6.54-8.69v-6.04c5.41-5.25,8.46-12.48,8.44-20.03
		c0.02-3.31-0.57-6.59-1.74-9.68l0.08-0.58L88.97,40.28z M80.53,28.61c0-1.05,0.85-1.9,1.9-1.9c1.05,0,1.9,0.85,1.9,1.9
		s-0.85,1.9-1.9,1.9h0c-1.03,0.02-1.89-0.81-1.9-1.84C80.53,28.65,80.53,28.63,80.53,28.61z"/>
</g>
</svg>
