<?xml version="1.0" encoding="utf-8"?>
<!-- Generator: Adobe Illustrator 23.0.1, SVG Export Plug-In . SVG Version: 6.00 Build 0)  -->
<svg version="1.1" id="Layer_1" xmlns="http://www.w3.org/2000/svg" xmlns:xlink="http://www.w3.org/1999/xlink" x="0px" y="0px"
	 viewBox="0 0 100 100" style="enable-background:new 0 0 100 100;" xml:space="preserve">
<g>
	<circle id="Ellipse_5" cx="41.64" cy="41.08" r="1.67"/>
	<circle id="Ellipse_6" cx="58.79" cy="41.08" r="1.67"/>
	<path id="Path_19" d="M5.5,64.67C5.49,66.5,6.44,68.2,8,69.15V60.2C6.44,61.15,5.49,62.85,5.5,64.67z"/>
	<path id="Path_20" d="M11.49,71.05c-0.01,1.83,0.94,3.53,2.5,4.48v-8.95C12.43,67.52,11.48,69.22,11.49,71.05z"/>
	<path id="Path_21" d="M18.25,77.42c-0.01,1.83,0.94,3.53,2.5,4.48v-8.95C19.19,73.89,18.24,75.59,18.25,77.42z"/>
	<path id="Path_22" d="M92,60.2v8.95c1.56-0.95,2.52-2.65,2.5-4.48C94.48,62.85,93.54,61.17,92,60.2z"/>
	<path id="Path_23" d="M72.59,58.15c-0.5-1.31-1.11-2.58-1.82-3.79h5.77c4.78-0.01,9.2-2.55,11.61-6.68l0,0
		c6.58-7.2,6.08-18.37-1.12-24.95c-7.05-6.45-17.95-6.12-24.6,0.75c13.22,0.86,23.98,10.98,25.65,24.13L67.66,28.33
		c-1.37,5.64,0.4,11.58,4.63,15.55c1.81,1.75,4.03,3.02,6.45,3.72H64.48c-8.59-6.27-20.24-6.27-28.83,0H21.38
		c2.41-0.73,4.61-2,6.45-3.72c4.23-3.97,6-9.91,4.63-15.55L12.05,47.6c1.67-13.15,12.42-23.26,25.65-24.13
		c-6.79-7.01-17.97-7.18-24.97-0.4c-6.86,6.65-7.19,17.55-0.75,24.6l0,0c2.4,4.14,6.83,6.68,11.61,6.68h5.77
		c-0.71,1.21-1.32,2.48-1.82,3.79h-8.88c-3.69-0.05-7.36,0.64-10.77,2.05c3.42,1.41,7.08,2.1,10.77,2.05h10.17l2.5,2.28h-6.6
		c-3.69-0.05-7.36,0.64-10.77,2.05c3.42,1.41,7.08,2.1,10.77,2.05h11.31l2.5,2.28h-6.75c-3.69-0.05-7.36,0.64-10.77,2.05
		c3.42,1.41,7.08,2.1,10.77,2.05H43l7.21,6.68l7.21-6.68h11.23c3.69,0.05,7.36-0.64,10.77-2.05c-3.42-1.41-7.08-2.1-10.77-2.05H61.9
		l2.5-2.28h11.08c3.69,0.05,7.36-0.64,10.77-2.05c-3.42-1.41-7.08-2.1-10.77-2.05h-6.6l2.5-2.28h10.17
		c3.69,0.05,7.36-0.64,10.77-2.05c-3.42-1.41-7.08-2.1-10.77-2.05L72.59,58.15z"/>
	<path id="Path_24" d="M88.43,71.05c0.01-1.83-0.94-3.53-2.5-4.48v8.95C87.49,74.58,88.44,72.88,88.43,71.05z"/>
	<path id="Path_25" d="M81.68,77.42c0.01-1.83-0.94-3.53-2.5-4.48v8.95C80.74,80.95,81.69,79.25,81.68,77.42z"/>
</g>
</svg>
