<?xml version="1.0" encoding="utf-8"?>
<!-- Generator: Adobe Illustrator 23.0.1, SVG Export Plug-In . SVG Version: 6.00 Build 0)  -->
<svg version="1.1" id="Layer_1" xmlns="http://www.w3.org/2000/svg" xmlns:xlink="http://www.w3.org/1999/xlink" x="0px" y="0px"
	 viewBox="0 0 100 100" style="enable-background:new 0 0 100 100;" xml:space="preserve">
<g>
	<path id="Path_11" d="M10.55,54.04c4.94,0,8.95-4.01,8.95-8.95H1.6C1.6,50.04,5.61,54.04,10.55,54.04z"/>
	<circle id="Ellipse_1" cx="85.05" cy="49.33" r="2.67"/>
	<path id="Path_12" d="M98.4,22.33H81.29l-3.77-11.7L63.54,38.58l18.76,7.54l1.88-10.44c0.31,0,0.55,0.08,0.86,0.08
		C92.44,35.72,98.41,29.71,98.4,22.33z M83.95,28.68c-1,0-1.81-0.81-1.81-1.81c0-1,0.81-1.81,1.81-1.81c1,0,1.81,0.81,1.81,1.81
		C85.75,27.87,84.95,28.67,83.95,28.68z"/>
	<path id="Path_13" d="M27.27,89.37l2.98-18.45l36.51,3.77l2.43,14.68h7.77V75.79l4.47-25.12l-20.1-8.01L19.5,45.09l0,0v44.28H27.27
		z"/>
</g>
</svg>
