<?xml version="1.0" encoding="utf-8"?>
<!-- Generator: Adobe Illustrator 23.0.1, SVG Export Plug-In . SVG Version: 6.00 Build 0)  -->
<svg version="1.1" id="Layer_1" xmlns="http://www.w3.org/2000/svg" xmlns:xlink="http://www.w3.org/1999/xlink" x="0px" y="0px"
	 viewBox="0 0 100 100" style="enable-background:new 0 0 100 100;" xml:space="preserve">
<g>
	<path id="Path_5" d="M77.69,50l17.96,16.13L92.12,50l3.54-16.19L77.69,50z"/>
	<path id="Path_6" d="M26.19,64.02v-28.1c-7.95,1.84-15.41,5.39-21.84,10.41L9.04,50l-4.69,3.67C10.78,58.67,18.24,62.2,26.19,64.02
		z M17.27,44.42c0.86,0,1.56,0.7,1.56,1.56c0,0.86-0.7,1.56-1.56,1.56c-0.86,0-1.56-0.7-1.56-1.56c0,0,0,0,0,0
		c-0.01-0.85,0.66-1.55,1.51-1.56C17.24,44.42,17.26,44.42,17.27,44.42z"/>
	<path id="Path_7" d="M49.05,28.09c-4.7-0.02-9.08,2.4-11.57,6.4c-2.86,0.05-5.7,0.35-8.5,0.88v29.26c2.81,0.5,5.65,0.8,8.5,0.88
		c2.52,3.96,6.88,6.37,11.57,6.4v-7.35c10.75-2,20.7-7.05,28.64-14.56c-7.92-7.57-17.87-12.65-28.64-14.63V28.09z"/>
</g>
</svg>
