<?xml version="1.0" encoding="utf-8"?>
<!-- Generator: Adobe Illustrator 23.0.1, SVG Export Plug-In . SVG Version: 6.00 Build 0)  -->
<svg version="1.1" id="Layer_1" xmlns="http://www.w3.org/2000/svg" xmlns:xlink="http://www.w3.org/1999/xlink" x="0px" y="0px"
	 viewBox="0 0 100 100" style="enable-background:new 0 0 100 100;" xml:space="preserve">
<path id="Path_26" d="M69.39,63.77c-1.24-15.55-14.85-27.16-30.41-25.92c-2.22,0.18-4.42,0.62-6.53,1.31
	c-1.86-4.39-6.92-6.45-11.32-4.6c-3.2,1.35-5.28,4.49-5.28,7.97c-0.01,1.89,0.61,3.73,1.78,5.21L4.41,63.45l2.35,2.67h88.83v-1.46
	L69.39,63.77z M17.06,57.54c-0.81,0-1.46-0.65-1.46-1.46c0-0.81,0.65-1.46,1.46-1.46c0.81,0,1.46,0.65,1.46,1.46
	C18.52,56.88,17.87,57.53,17.06,57.54L17.06,57.54z"/>
</svg>
