<?xml version="1.0" encoding="utf-8"?>
<!-- Generator: Adobe Illustrator 23.0.1, SVG Export Plug-In . SVG Version: 6.00 Build 0)  -->
<svg version="1.1" id="Layer_1" xmlns="http://www.w3.org/2000/svg" xmlns:xlink="http://www.w3.org/1999/xlink" x="0px" y="0px"
	 viewBox="0 0 100 100" style="enable-background:new 0 0 100 100;" xml:space="preserve">
<g>
	<path id="Path_15" d="M44.5,45.41v5.8H8.1C8.11,74.35,26.88,93.1,50.02,93.09c23.12-0.01,41.86-18.75,41.88-41.88l0,0v-17.7
		C88.02,46.6,74.27,54.07,61.18,50.2c-8.03-2.38-14.31-8.66-16.68-16.68L44.5,45.41z"/>
	<path id="Path_16" d="M91.9,7.01c-6.91,4.85-15.16,7.43-23.6,7.4c-8.52,0.01-16.83-2.61-23.8-7.5v11.8c11.9,0.4,22.1,10.1,22.3,22
		h2.7c0.2-11.9,10.5-21.5,22.3-22V7.01H91.9z"/>
	<circle id="Ellipse_2" cx="81.2" cy="31.41" r="4.2"/>
	<circle id="Ellipse_3" cx="55.2" cy="31.41" r="4.2"/>
</g>
</svg>
