<?xml version="1.0" encoding="utf-8"?>
<!-- Generator: Adobe Illustrator 23.0.1, SVG Export Plug-In . SVG Version: 6.00 Build 0)  -->
<svg version="1.1" id="Layer_1" xmlns="http://www.w3.org/2000/svg" xmlns:xlink="http://www.w3.org/1999/xlink" x="0px" y="0px"
	 viewBox="0 0 100 100" style="enable-background:new 0 0 100 100;" xml:space="preserve">
<path id="Path_14" d="M98.5,53.49c0-4.12-3.34-7.45-7.45-7.45s-7.45,3.34-7.45,7.45v0.28c-4.7-5.51-11.58-8.67-18.82-8.66H41.66
	l-9.78-9.32c4.76,2.42,10.03,3.7,15.37,3.73c8.72,0.03,17.11-3.35,23.39-9.41H30.48c1.25-0.81,2.47-1.68,3.63-2.61
	C40.85,21.94,45.18,14,46.23,5.32L1.5,42.69l3.73,7.64c0,0,2.98,7.08,8.11,7.08h11.65c-0.09,1.02-0.19,2.14-0.19,3.26
	c-0.01,9.17,5.05,17.59,13.14,21.9h-1.77c-6.68-0.01-12.1,5.39-12.11,12.06c0,0.02,0,0.03,0,0.05h40.9
	c13.69,0,24.79-11.1,24.78-24.79c0-3.39-0.7-6.75-2.05-9.87c3.62,1.89,8.08,0.49,9.97-3.13C98.2,55.84,98.49,54.68,98.5,53.49z
	 M16.78,42.69c-1.18,0-2.14-0.96-2.14-2.14s0.96-2.14,2.14-2.14s2.14,0.96,2.14,2.14v0C18.91,41.72,17.96,42.67,16.78,42.69z"/>
</svg>
