<svg id="Layer_1" data-name="Layer 1" xmlns="http://www.w3.org/2000/svg" viewBox="0 0 95.83 76.13"><title>Rooster</title><path id="Path_2" data-name="Path 2" d="M75.4,11.94V25.16H88.62A13.23,13.23,0,0,0,75.4,11.94Z" transform="translate(-2.09 -11.94)"/><path id="Path_3" data-name="Path 3" d="M62.18,25.16H75.4A13.23,13.23,0,0,0,62.18,11.94H49A13.23,13.23,0,0,0,62.18,25.16Z" transform="translate(-2.09 -11.94)"/><path id="Path_4" data-name="Path 4" d="M15.31,68.91h14.9A31.07,31.07,0,0,0,90,57V50.24a5.28,5.28,0,0,0,1.12.08A5.34,5.34,0,0,0,96.39,45a5.21,5.21,0,0,0-1.28-3.45h0l-4.49-5.77,7.29-7.29H75.48V57H64.26A31.09,31.09,0,1,0,2.09,57h17A20.7,20.7,0,0,0,15.31,68.91Zm68.1-38a1.84,1.84,0,1,1-1.84,1.84h0a1.8,1.8,0,0,1,1.78-1.84Z" transform="translate(-2.09 -11.94)"/></svg>