<?xml version="1.0" encoding="utf-8"?>
<!-- Generator: Adobe Illustrator 23.0.1, SVG Export Plug-In . SVG Version: 6.00 Build 0)  -->
<svg version="1.1" id="Layer_1" xmlns="http://www.w3.org/2000/svg" xmlns:xlink="http://www.w3.org/1999/xlink" x="0px" y="0px"
	 viewBox="0 0 100 100" style="enable-background:new 0 0 100 100;" xml:space="preserve">
<g>
	<path id="Path_34" d="M91.05,40.06c0.02-4.36-3.5-7.92-7.87-7.93c-0.02,0-0.04,0-0.07,0c-0.62,0-1.24,0.08-1.84,0.24
		c-1.73-1.38-3.88-2.12-6.09-2.08v9.86c0.02,4.38,3.59,7.92,7.97,7.89C87.54,48.01,91.07,44.44,91.05,40.06z M83.04,40.06
		c-1.02,0-1.84-0.83-1.84-1.84c0-1.02,0.83-1.84,1.84-1.84c1.02,0,1.84,0.83,1.84,1.84l0,0c0.02,1-0.78,1.83-1.78,1.84
		C83.08,40.06,83.06,40.06,83.04,40.06z"/>
	<path id="Path_35" d="M87.93,65.63c2.7,0.03,4.91-2.14,4.94-4.84c0.03-2.7-2.14-4.91-4.84-4.94c-2.5-0.02-4.62,1.84-4.9,4.33V48
		c-15.23,0-27.57,12.34-27.57,27.57c0,0,0,0,0,0V31.08c0-13.37-10.84-24.21-24.21-24.21S7.14,17.72,7.14,31.08
		c0,13.37,10.84,24.21,24.21,24.21v13.63C31.33,82.27,42.15,93.11,55.5,93.12c0.01,0,0.03,0,0.04,0V76.69
		c0.01,9.07,7.36,16.42,16.43,16.43h20.12c0-5.07-3.92-9.27-8.98-9.62V61.22C83.35,63.71,85.43,65.61,87.93,65.63z"/>
</g>
</svg>
