<?xml version="1.0" encoding="utf-8"?>
<!-- Generator: Adobe Illustrator 23.0.1, SVG Export Plug-In . SVG Version: 6.00 Build 0)  -->
<svg version="1.1" id="Layer_1" xmlns="http://www.w3.org/2000/svg" xmlns:xlink="http://www.w3.org/1999/xlink" x="0px" y="0px"
	 viewBox="0 0 100 100" style="enable-background:new 0 0 100 100;" xml:space="preserve">
<g>
	<ellipse id="Ellipse_4" cx="50.08" cy="16.96" rx="6.82" ry="9.2"/>
	<path id="Path_18" d="M84.01,38.07c-6.74-6.41-16.3-8.9-25.31-6.57c-2.57-1.74-5.6-2.68-8.71-2.71c-3.1,0.04-6.13,0.98-8.71,2.71
		c-14.32-3.74-28.96,4.84-32.7,19.16c-1.13,4.33-1.16,8.87-0.08,13.22l25.31-24.24c-3.24,5.79-4.88,12.34-4.77,18.98
		c0,8.13,2.3,15.53,6,20.87c-2.88,1.15-7.39,4.11-10.76,11.5c0,0,12.49,4.6,19.8-3.78c1.88,0.78,3.88,1.2,5.92,1.23
		c2.04,0,4.05-0.42,5.92-1.23c7.31,8.38,19.8,3.78,19.8,3.78c-3.37-7.39-7.81-10.35-10.76-11.5c3.7-5.34,6-12.74,6-20.87
		c0.08-6.63-1.57-13.17-4.77-18.98l25.31,24.24C93.82,54.55,90.96,44.7,84.01,38.07z"/>
</g>
</svg>
