<?xml version="1.0" encoding="utf-8"?>
<!-- Generator: Adobe Illustrator 22.0.1, SVG Export Plug-In . SVG Version: 6.00 Build 0)  -->
<svg version="1.1" id="Layer_1" xmlns="http://www.w3.org/2000/svg" xmlns:xlink="http://www.w3.org/1999/xlink" x="0px" y="0px"
	 viewBox="0 0 100 100" style="enable-background:new 0 0 100 100;" xml:space="preserve">
<style type="text/css">
	.st0{fill:#010101;}
</style>
<path id="Path_1" class="st0" d="M16.1,58.7h30.6c0,1,0,2.5,0.1,3.5H28.9c-8.1,0-11.5,7.3-11.5,7.3L7.4,88.8h14.4
	c9.2,0,14-7.3,14-7.3L47,65.1c0.4,5.4,1.4,10.7,3,15.8V81l0,0v-0.1c1.5-5.2,2.5-10.5,3-15.8l11.2,16.4c3.2,4.5,8.4,7.3,14,7.3h14.4
	L82.5,69.5c0,0-3.4-7.3-11.5-7.3H53.2c0.1-1,0.1-2.5,0.1-3.5h30.6c12.2,0,11.8-11.2,11.8-11.2V11.2H83.5c-14.1,0-18,11.2-18,11.2
	L53.2,54.6C52.9,48.3,51.8,42,50,36v-0.1l0,0V36c-1.8,6.1-2.9,12.3-3.2,18.6L34.4,22.3c0,0-3.9-11.2-18-11.2H4.3v36.4
	C4.3,47.5,3.9,58.7,16.1,58.7z"/>
</svg>
