<svg xmlns="http://www.w3.org/2000/svg" viewBox="0 0 511.54 415.93"><defs><style>.cls-1{fill:none;stroke:#231f20;}</style></defs><title>LowPoly2DMap</title><g id="Layer_1" data-name="Layer 1"><path d="M50.83,131.16v1.54A10.12,10.12,0,0,1,48,132a5,5,0,0,1-2-1.56,3.6,3.6,0,0,1-.73-2.18,2.84,2.84,0,0,1,.8-2.05,2.56,2.56,0,0,1,2-.83,2.67,2.67,0,0,1,2.14,1,2.43,2.43,0,0,1,.6,1.57,2.38,2.38,0,0,1-.31,1.17,2.66,2.66,0,0,1-.82.94c-.31.23-.47.4-.47.51s.17.3.5.41A3.41,3.41,0,0,0,50.83,131.16Zm0-18.87v1.48a3,3,0,0,0-.82.28.87.87,0,0,0-.27.23.41.41,0,0,0-.11.25.68.68,0,0,0,.3.47l.68.54a1.74,1.74,0,0,1,.48,1.4,2.5,2.5,0,0,1-.77,1.83,2.56,2.56,0,0,1-1.85.76,2.38,2.38,0,0,1-1.82-.79,2.7,2.7,0,0,1-.73-1.94,3.69,3.69,0,0,1,.52-1.89,4.62,4.62,0,0,1,1.46-1.53A7.91,7.91,0,0,1,50.83,112.29Zm4.41,9.95a13.56,13.56,0,0,1,1.9.68,4.57,4.57,0,0,1,1.11.74,4.39,4.39,0,0,1,1,1.52,5.09,5.09,0,0,1,.38,1.92,5,5,0,0,1-1.55,3.75,6.36,6.36,0,0,1-2.32,1.39,9.38,9.38,0,0,1-3,.47h-.64v-1.54a2.35,2.35,0,0,0,1.19-.69,1.53,1.53,0,0,0,.3-.56,2.89,2.89,0,0,0,.09-.8V124.9a4.7,4.7,0,0,0-.06-.89,1.28,1.28,0,0,0-.26-.54,1.62,1.62,0,0,0-1.29-.59,2.1,2.1,0,0,1-.78-.14.7.7,0,0,1-.32-.62.66.66,0,0,1,.23-.57,1.89,1.89,0,0,1,.86-.22c1.09-.1,1.64-.65,1.64-1.66l0-.57v-3.31a1.73,1.73,0,0,0-1.58-2v-1.55h.41a9.4,9.4,0,0,1,2.71.39,7.15,7.15,0,0,1,2.23,1.1,4.79,4.79,0,0,1,1.38,1.64,4.4,4.4,0,0,1,.48,2,4.72,4.72,0,0,1-2.4,4.17A10.47,10.47,0,0,1,55.24,122.24Z" transform="translate(-15.12 -16.22)"/><path d="M63.23,118.85l.93-6.24h1.08l-.22,1.7a8.84,8.84,0,0,1,2.14-1.6,4.75,4.75,0,0,1,2.15-.49,5.3,5.3,0,0,1,.94.07,11.93,11.93,0,0,1,1.19.32c.8.25,1.33.42,1.61.53a4.8,4.8,0,0,0,1.42.37.86.86,0,0,0,.67-.37l.16-.2a.67.67,0,0,1,.47-.27.51.51,0,0,1,.37.17.53.53,0,0,1,.16.39,3.82,3.82,0,0,1-.26,1.14,9.29,9.29,0,0,1-.63,1.35,3.89,3.89,0,0,1-1.49,1.52,4.65,4.65,0,0,1-2.18.47,5.58,5.58,0,0,1-1-.07c-.28,0-1-.23-2.32-.53a13.61,13.61,0,0,0-2.67-.44,1.23,1.23,0,0,0-1.07.46,2.31,2.31,0,0,0-.35,1.4v.32Zm10.83-.51a18.53,18.53,0,0,0-1.33,3.14,12.23,12.23,0,0,0-.59,3.47,6.93,6.93,0,0,0,.09,1.14l.28,1.63a9.85,9.85,0,0,1,.13,1.52,3.35,3.35,0,0,1-1,2.61,3.1,3.1,0,0,1-2.17.86,2.83,2.83,0,0,1-2.3-1.1,4.25,4.25,0,0,1-.9-2.79,7.41,7.41,0,0,1,1-3.64,8.11,8.11,0,0,1,.81-1.23c.33-.42.87-1,1.62-1.9s1.35-1.55,1.71-2a6.33,6.33,0,0,0,.76-1.19A6.42,6.42,0,0,0,74.06,118.34Z" transform="translate(-15.12 -16.22)"/><path d="M89.92,112.47v17.21a1.28,1.28,0,0,0,.22.82.48.48,0,0,0,.22.18c.07,0,.3.09.68.19a.77.77,0,0,1,.7.8.71.71,0,0,1-.38.62,1.89,1.89,0,0,1-.92.17H83.83a1.82,1.82,0,0,1-.92-.17.69.69,0,0,1-.38-.62.77.77,0,0,1,.7-.8c.38-.1.6-.16.67-.19a.42.42,0,0,0,.21-.18,1.28,1.28,0,0,0,.22-.82V116a2.76,2.76,0,0,0-.16-1.11.59.59,0,0,0-.49-.4l-.51-.07c-.46-.07-.69-.31-.69-.71a.83.83,0,0,1,.44-.73,2.63,2.63,0,0,1,.91-.16Z" transform="translate(-15.12 -16.22)"/><path d="M102.71,131.06v1.61a7.18,7.18,0,0,1-2.86-.79,5.33,5.33,0,0,1-1.91-1.58,3.42,3.42,0,0,1-.66-2,3,3,0,0,1,.81-2.12,2.69,2.69,0,0,1,2-.85,2.51,2.51,0,0,1,1.83.76,2.47,2.47,0,0,1,.77,1.8,2.73,2.73,0,0,1-.3,1.2,2.55,2.55,0,0,1-.71.93c-.23.16-.34.3-.34.41s.12.29.35.41A3.21,3.21,0,0,0,102.71,131.06Zm-4.13-12.88,1.35.15-.25,3a10.3,10.3,0,0,1,1.54-1.08,6.59,6.59,0,0,1,1.49-.57v2.06a9.76,9.76,0,0,0-2.64,1,2.24,2.24,0,0,1-1,.44.88.88,0,0,1-.62-.21.75.75,0,0,1-.23-.58c0-.11,0-.25,0-.41Zm.1-1.11.41-4.85.57.07,3,.4a28.68,28.68,0,0,0,3.75.22,15.23,15.23,0,0,0,2.38-.15,9.47,9.47,0,0,0,1.9-.54,8.26,8.26,0,0,1-.67,1.65,6.47,6.47,0,0,1-1,1.31,7.54,7.54,0,0,1-1.56,1.2,6.21,6.21,0,0,1-1.7.69,16,16,0,0,1-3.34.29A23.4,23.4,0,0,1,98.68,117.07Zm5.26,4.71v-2.12a12.1,12.1,0,0,1,2.54.23,6.75,6.75,0,0,1,2,.8,5.78,5.78,0,0,1,2.94,5.36,7.08,7.08,0,0,1-.67,3.13,5.78,5.78,0,0,1-1.92,2.26,7.5,7.5,0,0,1-2,.93,8,8,0,0,1-2.31.34H104v-1.65a2.21,2.21,0,0,0,.72-.38,1.7,1.7,0,0,0,.45-.63,3,3,0,0,0,.2-.77,7.1,7.1,0,0,0,.08-1v-3.75a4.16,4.16,0,0,0-.31-1.85A2.11,2.11,0,0,0,103.94,121.78Z" transform="translate(-15.12 -16.22)"/><path d="M153.05,117.4v1.54a10.14,10.14,0,0,1-2.78-.72,5.07,5.07,0,0,1-2.05-1.56,3.57,3.57,0,0,1-.72-2.18,2.83,2.83,0,0,1,.79-2,2.61,2.61,0,0,1,2-.83,2.66,2.66,0,0,1,2.14,1,2.43,2.43,0,0,1,.6,1.57,2.38,2.38,0,0,1-.31,1.17,2.57,2.57,0,0,1-.82.94c-.31.23-.46.4-.46.51s.16.3.49.41A3.45,3.45,0,0,0,153.05,117.4Zm0-18.87V100a3.16,3.16,0,0,0-.82.28.87.87,0,0,0-.27.23.51.51,0,0,0-.11.25.67.67,0,0,0,.31.47l.67.54a1.74,1.74,0,0,1,.48,1.4,2.49,2.49,0,0,1-.76,1.83,2.58,2.58,0,0,1-1.86.76,2.34,2.34,0,0,1-1.81-.79,2.71,2.71,0,0,1-.74-1.94,3.79,3.79,0,0,1,.52-1.89,4.72,4.72,0,0,1,1.46-1.53A7.91,7.91,0,0,1,153.05,98.53Zm4.41,10a13.56,13.56,0,0,1,1.9.68,4.64,4.64,0,0,1,1.12.74,4.24,4.24,0,0,1,1,1.52,5.22,5.22,0,0,1-1.17,5.67,6.28,6.28,0,0,1-2.32,1.39,9.31,9.31,0,0,1-3,.47h-.65V117.4a2.31,2.31,0,0,0,1.19-.69,1.48,1.48,0,0,0,.31-.56,2.89,2.89,0,0,0,.09-.8v-4.21a4.7,4.7,0,0,0-.06-.89,1.31,1.31,0,0,0-.27-.54,1.61,1.61,0,0,0-1.28-.59,2.05,2.05,0,0,1-.78-.14.68.68,0,0,1-.32-.62.66.66,0,0,1,.22-.57,1.89,1.89,0,0,1,.86-.22c1.09-.1,1.64-.65,1.64-1.65V102a1.75,1.75,0,0,0-1.59-2V98.46h.41a9.35,9.35,0,0,1,2.71.39,7,7,0,0,1,2.23,1.1,4.71,4.71,0,0,1,1.39,1.64,4.52,4.52,0,0,1,.47,2,4.57,4.57,0,0,1-1.24,3.26,4.79,4.79,0,0,1-1.15.91A11,11,0,0,1,157.46,108.48Z" transform="translate(-15.12 -16.22)"/><path d="M172.4,107.86v1.69a6.44,6.44,0,0,1-3.09.88,5.15,5.15,0,0,1-1.82-.35,5.32,5.32,0,0,1-1.61-1,4.94,4.94,0,0,1-1.18-1.71,5.31,5.31,0,0,1-.43-2.14,7,7,0,0,1,.76-3.17,6.21,6.21,0,0,1,2-2.39,7.35,7.35,0,0,1,4.27-1.24v1.43a1.51,1.51,0,0,0-.82.47,1.44,1.44,0,0,0-.26.94v5.58a1.64,1.64,0,0,0,.28,1,.83.83,0,0,0,.74.36A2.69,2.69,0,0,0,172.4,107.86ZM171,117.47V119a6.88,6.88,0,0,1-2.95-.7,5.11,5.11,0,0,1-2-1.56,3.43,3.43,0,0,1-.71-2.07,2.8,2.8,0,0,1,2.87-2.86,2.64,2.64,0,0,1,1.85.71,2.23,2.23,0,0,1,.77,1.72,2,2,0,0,1-.33,1.17L170,116a.83.83,0,0,0-.19.51.88.88,0,0,0,.45.73A1.49,1.49,0,0,0,171,117.47Zm1.09,1.48v-1.48a2.73,2.73,0,0,0,.71-.3,1.28,1.28,0,0,0,.42-.47,2.54,2.54,0,0,0,.37-1.35V101.83a6.81,6.81,0,0,0-.05-1,.9.9,0,0,0-.2-.49,1.65,1.65,0,0,0-.91-.49V98.46a6.8,6.8,0,0,1,2.64.83,7.67,7.67,0,0,1,2.2,1.85,9,9,0,0,1,1.67,3.31,15.36,15.36,0,0,1,.6,4.38,10.88,10.88,0,0,1-2.89,8,7.89,7.89,0,0,1-2.2,1.59A5.58,5.58,0,0,1,172.06,119Z" transform="translate(-15.12 -16.22)"/><path d="M192.16,98.71v17.21a1.28,1.28,0,0,0,.22.82.48.48,0,0,0,.22.18c.07,0,.29.09.68.19a.77.77,0,0,1,.7.8.71.71,0,0,1-.38.62,1.94,1.94,0,0,1-.93.17h-6.6a1.82,1.82,0,0,1-.92-.17.7.7,0,0,1-.39-.62.77.77,0,0,1,.71-.8c.38-.1.6-.16.67-.19a.42.42,0,0,0,.21-.18,1.28,1.28,0,0,0,.22-.82V102.21a2.76,2.76,0,0,0-.16-1.11.59.59,0,0,0-.49-.4l-.51-.07c-.46-.07-.69-.31-.69-.71a.83.83,0,0,1,.44-.73,2.63,2.63,0,0,1,.91-.16Z" transform="translate(-15.12 -16.22)"/><path d="M206.05,99.88a1.67,1.67,0,0,0-.79.69,3.41,3.41,0,0,0-.18,1.35v4a2.39,2.39,0,0,0,.18.92,1.53,1.53,0,0,0,.3.46,1.66,1.66,0,0,0,.49.29v1.54a1.4,1.4,0,0,0-.75.57,2.09,2.09,0,0,0-.22,1v5a2.56,2.56,0,0,0,.19,1,1.09,1.09,0,0,0,.28.41,1.34,1.34,0,0,0,.48.22V119h-.29a12.17,12.17,0,0,1-2.64-.31,8,8,0,0,1-1.35-.43,4.55,4.55,0,0,1-1-.65,4.63,4.63,0,0,1-1.66-3.74,5.43,5.43,0,0,1,.52-2.39,4.81,4.81,0,0,1,1.49-1.8,5.7,5.7,0,0,1,1.13-.67,13.1,13.1,0,0,1,1.62-.57,12,12,0,0,1-1.57-.57,5,5,0,0,1-1.08-.68,4.3,4.3,0,0,1-1.54-3.46,4.91,4.91,0,0,1,.71-2.58,4.71,4.71,0,0,1,1.94-1.81,9.21,9.21,0,0,1,3.77-.82Zm1,0V98.46a9.22,9.22,0,0,1,3.78.82,4.8,4.8,0,0,1,1.95,1.81,4.9,4.9,0,0,1,.7,2.58,4.27,4.27,0,0,1-1.54,3.46,5.23,5.23,0,0,1-1.07.68,12.75,12.75,0,0,1-1.58.57,13.1,13.1,0,0,1,1.62.57,5.7,5.7,0,0,1,1.13.67,4.81,4.81,0,0,1,1.49,1.8,5.43,5.43,0,0,1,.52,2.39,4.65,4.65,0,0,1-1.65,3.74,4.53,4.53,0,0,1-1,.66,6.78,6.78,0,0,1-1.35.42,15.32,15.32,0,0,1-2.65.31h-.21v-1.52a1.32,1.32,0,0,0,.49-.22,1.08,1.08,0,0,0,.27-.41,2.4,2.4,0,0,0,.19-1v-5a2.06,2.06,0,0,0-.09-.46c-.06-.22-.13-.4-.18-.54a1.23,1.23,0,0,0-.28-.35,1.76,1.76,0,0,0-.5-.26v-1.54a2,2,0,0,0,.52-.3,1.08,1.08,0,0,0,.27-.45c0-.1.09-.27.16-.51a2.76,2.76,0,0,0,.1-.41v-4a3.08,3.08,0,0,0-.08-.53l-.16-.81A1.61,1.61,0,0,0,207.06,99.88Z" transform="translate(-15.12 -16.22)"/><path d="M275.34,67.81V70l-4.6,6.4h4.6v1.45h-5.11a1.38,1.38,0,0,1-.86-.19.88.88,0,0,1-.23-.7,2.3,2.3,0,0,1,.5-1.32l.22-.31Zm1.16-1.58,2.3-3.18a1.41,1.41,0,0,1,.5-.49,2.36,2.36,0,0,1,.8-.09h1.28c.35,0,.56.06.63.19a1.79,1.79,0,0,1,.08.61V76.38h1.83a.64.64,0,0,1,.74.71c0,.49-.28.74-.82.74h-1.75v1.86a1.28,1.28,0,0,0,.22.82.52.52,0,0,0,.22.17c.07,0,.3.09.68.19a.77.77,0,0,1,.7.8.71.71,0,0,1-.38.62,2,2,0,0,1-.94.17H276a1.82,1.82,0,0,1-.92-.17.69.69,0,0,1-.38-.62.77.77,0,0,1,.7-.8l.67-.19a.45.45,0,0,0,.21-.17,1.28,1.28,0,0,0,.22-.82Z" transform="translate(-15.12 -16.22)"/><path d="M293.75,63.64a1.67,1.67,0,0,0-.79.69,3.66,3.66,0,0,0-.17,1.35v4a2.59,2.59,0,0,0,.17.92,1.53,1.53,0,0,0,.3.46,2,2,0,0,0,.49.29v1.54a1.34,1.34,0,0,0-.74.57,2,2,0,0,0-.22,1v5a2.4,2.4,0,0,0,.19,1,1.09,1.09,0,0,0,.28.41,1.2,1.2,0,0,0,.48.22v1.52h-.29a12.17,12.17,0,0,1-2.64-.31,7.85,7.85,0,0,1-1.36-.43,4.78,4.78,0,0,1-1-.65,4.65,4.65,0,0,1-1.65-3.74,5.43,5.43,0,0,1,.52-2.39,4.78,4.78,0,0,1,1.48-1.8,5.49,5.49,0,0,1,1.14-.67,12,12,0,0,1,1.62-.57,12.18,12.18,0,0,1-1.58-.57,5.23,5.23,0,0,1-1.07-.68,4.27,4.27,0,0,1-1.54-3.46,4.9,4.9,0,0,1,.7-2.58A4.8,4.8,0,0,1,290,63a9.16,9.16,0,0,1,3.76-.82Zm1,0V62.22a9.14,9.14,0,0,1,3.78.82,4.8,4.8,0,0,1,1.95,1.81,4.91,4.91,0,0,1,.71,2.58,4.3,4.3,0,0,1-1.54,3.46,5,5,0,0,1-1.08.68,12.52,12.52,0,0,1-1.57.57,12.3,12.3,0,0,1,1.61.57,5.49,5.49,0,0,1,1.14.67,4.91,4.91,0,0,1,1.49,1.8,5.57,5.57,0,0,1,.52,2.39,4.66,4.66,0,0,1-1.66,3.74,4.27,4.27,0,0,1-1,.66,7.12,7.12,0,0,1-1.36.42,15.2,15.2,0,0,1-2.65.31h-.2V81.19a1.34,1.34,0,0,0,.48-.22,1.09,1.09,0,0,0,.28-.41,2.4,2.4,0,0,0,.19-1v-5a1.73,1.73,0,0,0-.1-.46,4.23,4.23,0,0,0-.18-.54,1.23,1.23,0,0,0-.28-.35,1.52,1.52,0,0,0-.5-.26V71.39a1.83,1.83,0,0,0,.52-.3,1,1,0,0,0,.28-.45c0-.1.09-.27.16-.51a3.12,3.12,0,0,0,.1-.41v-4a2.49,2.49,0,0,0-.09-.53l-.16-.81A1.61,1.61,0,0,0,294.76,63.64Z" transform="translate(-15.12 -16.22)"/><path d="M309.9,81.06v1.61a7.13,7.13,0,0,1-2.86-.79,5.24,5.24,0,0,1-1.91-1.58,3.36,3.36,0,0,1-.67-2,3,3,0,0,1,.81-2.12,2.72,2.72,0,0,1,2.05-.85,2.61,2.61,0,0,1,2.59,2.56,2.85,2.85,0,0,1-.29,1.2,2.68,2.68,0,0,1-.72.93c-.22.16-.34.3-.34.41s.12.29.36.41A3.21,3.21,0,0,0,309.9,81.06Zm-4.13-12.88,1.34.15-.25,3a10.3,10.3,0,0,1,1.54-1.08,6.67,6.67,0,0,1,1.5-.57v2.06a9.51,9.51,0,0,0-2.64,1,2.26,2.26,0,0,1-1,.44.88.88,0,0,1-.62-.21.75.75,0,0,1-.23-.58c0-.11,0-.25,0-.41Zm.1-1.11.41-4.85.57.07,3,.4a28.46,28.46,0,0,0,3.75.22,15,15,0,0,0,2.37-.15,9.55,9.55,0,0,0,1.91-.54,8.23,8.23,0,0,1-.68,1.65,6.07,6.07,0,0,1-1,1.31,7.54,7.54,0,0,1-1.56,1.2,6.14,6.14,0,0,1-1.71.69,15.9,15.9,0,0,1-3.34.29A23.37,23.37,0,0,1,305.87,67.07Zm5.26,4.71V69.66a12,12,0,0,1,2.53.23,6.64,6.64,0,0,1,2,.8,5.77,5.77,0,0,1,2.95,5.36,7.08,7.08,0,0,1-.68,3.13A5.67,5.67,0,0,1,316,81.44a7.64,7.64,0,0,1-2,.93,8,8,0,0,1-2.31.34h-.46V81.06a2.27,2.27,0,0,0,.73-.38,1.58,1.58,0,0,0,.44-.63,2.59,2.59,0,0,0,.2-.77,7.1,7.1,0,0,0,.08-1V74.52a4,4,0,0,0-.31-1.85A2.09,2.09,0,0,0,311.13,71.78Z" transform="translate(-15.12 -16.22)"/><path d="M334.93,76a.63.63,0,0,1,.54.26,1.2,1.2,0,0,1,.21.74,5.82,5.82,0,0,1-.54,2.26,6.38,6.38,0,0,1-1.28,2,4.83,4.83,0,0,1-1.6,1.07,4.41,4.41,0,0,1-1.8.41,7.9,7.9,0,0,1-2.17-.33l-1.93-.58a10.48,10.48,0,0,0-2.11-.47,2.16,2.16,0,0,0-1.36.62,1.32,1.32,0,0,1-.69.38.63.63,0,0,1-.52-.22,1,1,0,0,1-.18-.63,4,4,0,0,1,.36-1.61,4.71,4.71,0,0,1,1-1.44,5,5,0,0,1,3.63-1.3,16.23,16.23,0,0,1,2.89.34,25.08,25.08,0,0,0,3.46.5,1.38,1.38,0,0,0,1-.36.89.89,0,0,0,.18-.3,6.11,6.11,0,0,0,.17-.6C334.33,76.23,334.57,76,334.93,76Zm-8.33-13.7v1.56a2,2,0,0,0-.67.24q-.26.16-.24.33c0,.13.15.28.39.44a3.06,3.06,0,0,1,1,1,2.62,2.62,0,0,1,.29,1.27,2.58,2.58,0,0,1-.84,1.92,2.9,2.9,0,0,1-4.07,0,2.91,2.91,0,0,1-.83-2.13,3.85,3.85,0,0,1,.72-2.24,4.9,4.9,0,0,1,2-1.64A9.81,9.81,0,0,1,326.6,62.26Zm1.28,1.56v-1.6h.4a8.56,8.56,0,0,1,2.91.5,6.65,6.65,0,0,1,2.31,1.4,5.12,5.12,0,0,1,1.55,3.81,5.62,5.62,0,0,1-1.17,3.51,7.49,7.49,0,0,1-3.3,2.39l-1.92.77a22.49,22.49,0,0,0-2.36,1.17l-.44.25a4.15,4.15,0,0,0-1.12.15,13.29,13.29,0,0,0-1.57.59,10,10,0,0,1,1.06-1.21c.36-.34.89-.79,1.6-1.35.92-.71,1.54-1.23,1.86-1.54a4.8,4.8,0,0,0,.81-1.11A5.22,5.22,0,0,0,329,70a13.29,13.29,0,0,0,.15-2.2,7.93,7.93,0,0,0-.41-3.16,1.55,1.55,0,0,0-.34-.5A2,2,0,0,0,327.88,63.82Z" transform="translate(-15.12 -16.22)"/><path d="M283.48,156.28v1.54a10.14,10.14,0,0,1-2.78-.72,5.07,5.07,0,0,1-2.05-1.56,3.57,3.57,0,0,1-.72-2.18,2.83,2.83,0,0,1,.79-2.05,2.58,2.58,0,0,1,2-.83,2.67,2.67,0,0,1,2.14,1,2.43,2.43,0,0,1,.6,1.57,2.38,2.38,0,0,1-.31,1.17,2.66,2.66,0,0,1-.82.94c-.31.23-.47.4-.47.51s.17.3.5.41A3.41,3.41,0,0,0,283.48,156.28Zm0-18.87v1.48a3,3,0,0,0-.82.28.87.87,0,0,0-.27.23.41.41,0,0,0-.11.25.67.67,0,0,0,.31.47l.67.54a1.74,1.74,0,0,1,.48,1.4,2.46,2.46,0,0,1-.77,1.83,2.56,2.56,0,0,1-1.85.76,2.38,2.38,0,0,1-1.82-.79,2.75,2.75,0,0,1-.73-1.94,3.79,3.79,0,0,1,.52-1.89,4.62,4.62,0,0,1,1.46-1.53A7.91,7.91,0,0,1,283.48,137.41Zm4.41,10a13.56,13.56,0,0,1,1.9.68,4.84,4.84,0,0,1,1.12.74,4.24,4.24,0,0,1,1,1.52,5.22,5.22,0,0,1-1.17,5.67,6.36,6.36,0,0,1-2.32,1.39,9.36,9.36,0,0,1-3,.47h-.65v-1.54a2.31,2.31,0,0,0,1.19-.69,1.48,1.48,0,0,0,.31-.56,2.94,2.94,0,0,0,.08-.8V150a4.91,4.91,0,0,0-.05-.89,1.31,1.31,0,0,0-.27-.54,1.62,1.62,0,0,0-1.29-.59,2,2,0,0,1-.77-.14.69.69,0,0,1-.33-.62.66.66,0,0,1,.23-.57,1.89,1.89,0,0,1,.86-.22c1.09-.1,1.64-.65,1.64-1.66l0-.57v-3.31a1.73,1.73,0,0,0-1.58-2v-1.55h.41a9.4,9.4,0,0,1,2.71.39,7.15,7.15,0,0,1,2.23,1.1,4.68,4.68,0,0,1,1.38,1.64,4.4,4.4,0,0,1,.48,2,4.72,4.72,0,0,1-2.4,4.17A10.47,10.47,0,0,1,287.89,147.36Z" transform="translate(-15.12 -16.22)"/><path d="M300.72,156.28v1.54a10.14,10.14,0,0,1-2.78-.72,5.07,5.07,0,0,1-2.05-1.56,3.57,3.57,0,0,1-.72-2.18,2.83,2.83,0,0,1,.79-2.05,2.58,2.58,0,0,1,2-.83,2.67,2.67,0,0,1,2.14,1,2.43,2.43,0,0,1,.6,1.57,2.38,2.38,0,0,1-.31,1.17,2.57,2.57,0,0,1-.82.94c-.31.23-.47.4-.47.51s.17.3.5.41A3.45,3.45,0,0,0,300.72,156.28Zm0-18.87v1.48a3.16,3.16,0,0,0-.82.28.87.87,0,0,0-.27.23.48.48,0,0,0-.11.25.67.67,0,0,0,.31.47l.67.54a1.74,1.74,0,0,1,.48,1.4,2.46,2.46,0,0,1-.77,1.83,2.56,2.56,0,0,1-1.85.76,2.34,2.34,0,0,1-1.81-.79,2.71,2.71,0,0,1-.74-1.94,3.79,3.79,0,0,1,.52-1.89,4.72,4.72,0,0,1,1.46-1.53A7.91,7.91,0,0,1,300.72,137.41Zm4.41,10a13.56,13.56,0,0,1,1.9.68,4.84,4.84,0,0,1,1.12.74,4.24,4.24,0,0,1,1,1.52A5.22,5.22,0,0,1,308,156a6.28,6.28,0,0,1-2.32,1.39,9.31,9.31,0,0,1-3,.47H302v-1.54a2.31,2.31,0,0,0,1.19-.69,1.48,1.48,0,0,0,.31-.56,2.89,2.89,0,0,0,.09-.8V150a4.7,4.7,0,0,0-.06-.89,1.31,1.31,0,0,0-.27-.54A1.62,1.62,0,0,0,302,148a2,2,0,0,1-.77-.14.68.68,0,0,1-.32-.62.66.66,0,0,1,.22-.57,1.89,1.89,0,0,1,.86-.22c1.09-.1,1.64-.65,1.64-1.66v-3.88a1.75,1.75,0,0,0-1.59-2v-1.55h.41a9.4,9.4,0,0,1,2.71.39,7,7,0,0,1,2.23,1.1,4.58,4.58,0,0,1,1.38,1.64,4.4,4.4,0,0,1,.48,2,4.57,4.57,0,0,1-1.24,3.26,5,5,0,0,1-1.15.91A11,11,0,0,1,305.13,147.36Z" transform="translate(-15.12 -16.22)"/><path d="M318.14,156.18v1.61a7.13,7.13,0,0,1-2.86-.79,5.24,5.24,0,0,1-1.91-1.58,3.36,3.36,0,0,1-.67-2,2.92,2.92,0,0,1,.82-2.12,2.69,2.69,0,0,1,2-.85,2.49,2.49,0,0,1,1.82.76,2.43,2.43,0,0,1,.77,1.8,2.85,2.85,0,0,1-.29,1.2,2.68,2.68,0,0,1-.72.93c-.22.16-.34.3-.34.41s.12.29.36.41A3.21,3.21,0,0,0,318.14,156.18ZM314,143.3l1.34.15-.25,3a10.3,10.3,0,0,1,1.54-1.08,6.67,6.67,0,0,1,1.5-.57v2.06a9.21,9.21,0,0,0-2.64,1,2.35,2.35,0,0,1-1,.43.89.89,0,0,1-.63-.21.75.75,0,0,1-.22-.58c0-.11,0-.25,0-.41Zm.1-1.11.41-4.85.57.07,3,.4a28.46,28.46,0,0,0,3.75.22,15,15,0,0,0,2.37-.15,9.55,9.55,0,0,0,1.91-.54,8.23,8.23,0,0,1-.68,1.65,6.07,6.07,0,0,1-1,1.31,7.54,7.54,0,0,1-1.56,1.2,6.14,6.14,0,0,1-1.71.69,15.9,15.9,0,0,1-3.34.29A23.37,23.37,0,0,1,314.11,142.19Zm5.26,4.71v-2.12a12,12,0,0,1,2.53.23,6.53,6.53,0,0,1,2,.8,5.77,5.77,0,0,1,2.95,5.36,7.22,7.22,0,0,1-.67,3.13,5.78,5.78,0,0,1-1.92,2.26,7.64,7.64,0,0,1-2,.93,8,8,0,0,1-2.31.34h-.46v-1.65a2.09,2.09,0,0,0,.73-.38,1.58,1.58,0,0,0,.44-.63,2.59,2.59,0,0,0,.2-.77,7.1,7.1,0,0,0,.08-1v-3.75a4,4,0,0,0-.31-1.85A2.13,2.13,0,0,0,319.37,146.9Z" transform="translate(-15.12 -16.22)"/><path d="M343.17,151.08a.63.63,0,0,1,.54.26,1.2,1.2,0,0,1,.21.74,5.82,5.82,0,0,1-.54,2.26,6.38,6.38,0,0,1-1.28,2,4.89,4.89,0,0,1-1.59,1.07,4.49,4.49,0,0,1-1.81.41,7.78,7.78,0,0,1-2.16-.33l-1.94-.58a10.19,10.19,0,0,0-2.11-.46,2.14,2.14,0,0,0-1.36.61,1.32,1.32,0,0,1-.69.38.63.63,0,0,1-.52-.22,1,1,0,0,1-.18-.63,4,4,0,0,1,.36-1.61,4.71,4.71,0,0,1,1-1.44,5,5,0,0,1,3.63-1.3,16.23,16.23,0,0,1,2.89.34,25.08,25.08,0,0,0,3.46.5,1.37,1.37,0,0,0,1-.36.89.89,0,0,0,.18-.3,6.11,6.11,0,0,0,.17-.6C342.58,151.35,342.81,151.1,343.17,151.08Zm-8.33-13.7v1.56a2,2,0,0,0-.67.24q-.26.16-.24.33c0,.13.15.28.39.44a3.06,3.06,0,0,1,1,1,2.62,2.62,0,0,1,.29,1.27,2.58,2.58,0,0,1-.84,1.92,2.9,2.9,0,0,1-4.07-.05,2.91,2.91,0,0,1-.83-2.13,3.85,3.85,0,0,1,.72-2.24,5,5,0,0,1,2-1.64A9.81,9.81,0,0,1,334.84,137.38Zm1.29,1.56v-1.6h.39a8.56,8.56,0,0,1,2.91.5,6.65,6.65,0,0,1,2.31,1.4,5.12,5.12,0,0,1,1.55,3.81,5.62,5.62,0,0,1-1.17,3.51,7.58,7.58,0,0,1-3.3,2.4l-1.92.76a23.51,23.51,0,0,0-2.36,1.17l-.44.25a4.15,4.15,0,0,0-1.12.15,13.29,13.29,0,0,0-1.57.59,10,10,0,0,1,1.06-1.21c.36-.34.89-.79,1.6-1.35.92-.71,1.54-1.23,1.86-1.54a4.53,4.53,0,0,0,.81-1.11,4.94,4.94,0,0,0,.49-1.52,13.15,13.15,0,0,0,.16-2.2,8.12,8.12,0,0,0-.41-3.16,1.74,1.74,0,0,0-.35-.5A2.07,2.07,0,0,0,336.13,138.94Z" transform="translate(-15.12 -16.22)"/><path d="M378.53,127.53a.61.61,0,0,1,.53.26,1.19,1.19,0,0,1,.21.73,6,6,0,0,1-.53,2.27,6.75,6.75,0,0,1-1.28,2,4.93,4.93,0,0,1-1.6,1.07,4.62,4.62,0,0,1-1.8.41,7.46,7.46,0,0,1-2.17-.34l-1.93-.57a10.62,10.62,0,0,0-2.11-.47,2.18,2.18,0,0,0-1.37.62,1.34,1.34,0,0,1-.68.38.62.62,0,0,1-.52-.22.93.93,0,0,1-.19-.63,4,4,0,0,1,.37-1.61,4.54,4.54,0,0,1,1-1.44,5,5,0,0,1,3.63-1.3A16.24,16.24,0,0,1,373,129a24.48,24.48,0,0,0,3.46.49,1.35,1.35,0,0,0,1-.35.75.75,0,0,0,.18-.3,4,4,0,0,0,.17-.61C377.93,127.8,378.16,127.55,378.53,127.53Zm-8.34-13.7v1.55a2.47,2.47,0,0,0-.67.25q-.25.16-.24.33c0,.13.15.28.4.44a2.83,2.83,0,0,1,.95,1,2.51,2.51,0,0,1,.29,1.27,2.58,2.58,0,0,1-.84,1.92,2.89,2.89,0,0,1-4.06,0,2.92,2.92,0,0,1-.84-2.13,3.79,3.79,0,0,1,.73-2.24,4.9,4.9,0,0,1,2-1.64A9.71,9.71,0,0,1,370.19,113.83Zm1.29,1.55v-1.59h.4a8.54,8.54,0,0,1,2.9.5,6.47,6.47,0,0,1,2.31,1.4,5.08,5.08,0,0,1,1.55,3.81,5.67,5.67,0,0,1-1.16,3.51,7.6,7.6,0,0,1-3.3,2.39l-1.92.77a21.55,21.55,0,0,0-2.36,1.17l-.44.25a4.22,4.22,0,0,0-1.13.15,14.76,14.76,0,0,0-1.57.59,9.29,9.29,0,0,1,1.07-1.21c.35-.34.89-.79,1.6-1.35a24,24,0,0,0,1.85-1.54,4.84,4.84,0,0,0,.82-1.11,5.65,5.65,0,0,0,.49-1.52,13.29,13.29,0,0,0,.15-2.2,8.21,8.21,0,0,0-.41-3.17,1.81,1.81,0,0,0-.34-.49A2.81,2.81,0,0,0,371.48,115.38Z" transform="translate(-15.12 -16.22)"/><path d="M395.77,127.53a.61.61,0,0,1,.53.26,1.19,1.19,0,0,1,.21.73,5.79,5.79,0,0,1-.53,2.27,6.56,6.56,0,0,1-1.28,2,4.83,4.83,0,0,1-1.6,1.07,4.58,4.58,0,0,1-1.8.41,7.51,7.51,0,0,1-2.17-.34l-1.93-.57a10.62,10.62,0,0,0-2.11-.47,2.13,2.13,0,0,0-1.36.62,1.4,1.4,0,0,1-.69.38.62.62,0,0,1-.52-.22,1,1,0,0,1-.19-.63,4,4,0,0,1,.37-1.61,4.54,4.54,0,0,1,1-1.44,5,5,0,0,1,3.63-1.3,16.43,16.43,0,0,1,2.89.34,24.41,24.41,0,0,0,3.45.49,1.35,1.35,0,0,0,1-.35.91.91,0,0,0,.19-.3,4.37,4.37,0,0,0,.16-.61C395.17,127.8,395.41,127.55,395.77,127.53Zm-8.34-13.7v1.55a2.28,2.28,0,0,0-.66.25c-.18.11-.26.22-.25.33s.16.28.4.44a2.83,2.83,0,0,1,.95,1,2.51,2.51,0,0,1,.29,1.27,2.58,2.58,0,0,1-.84,1.92,2.89,2.89,0,0,1-4.06,0,2.92,2.92,0,0,1-.84-2.13,3.79,3.79,0,0,1,.73-2.24,4.9,4.9,0,0,1,2-1.64A9.86,9.86,0,0,1,387.43,113.83Zm1.29,1.55v-1.59h.4a8.54,8.54,0,0,1,2.9.5,6.47,6.47,0,0,1,2.31,1.4,5.08,5.08,0,0,1,1.55,3.81,5.61,5.61,0,0,1-1.16,3.51,7.6,7.6,0,0,1-3.3,2.39l-1.92.77a21.55,21.55,0,0,0-2.36,1.17l-.44.25a4.22,4.22,0,0,0-1.13.15,14.76,14.76,0,0,0-1.57.59,10.09,10.09,0,0,1,1.07-1.21c.35-.34.89-.79,1.6-1.35a22.14,22.14,0,0,0,1.85-1.54,4.84,4.84,0,0,0,.82-1.11,5.65,5.65,0,0,0,.49-1.52,13.29,13.29,0,0,0,.15-2.2,8.21,8.21,0,0,0-.41-3.17,1.81,1.81,0,0,0-.34-.49A2.49,2.49,0,0,0,388.72,115.38Z" transform="translate(-15.12 -16.22)"/><path d="M406.33,115.21a1.62,1.62,0,0,0-.79.69,3.38,3.38,0,0,0-.18,1.34v4.05a2.39,2.39,0,0,0,.18.92,1.35,1.35,0,0,0,.3.45,1.47,1.47,0,0,0,.49.3v1.54a1.4,1.4,0,0,0-.75.57,2.09,2.09,0,0,0-.22,1v5a2.6,2.6,0,0,0,.19,1,1.09,1.09,0,0,0,.28.41,1.34,1.34,0,0,0,.48.22v1.52H406a12.17,12.17,0,0,1-2.64-.31,8,8,0,0,1-1.35-.43,4.27,4.27,0,0,1-1-.66,4.6,4.6,0,0,1-1.66-3.73,5.4,5.4,0,0,1,.52-2.39,4.81,4.81,0,0,1,1.49-1.8,5.7,5.7,0,0,1,1.13-.67,14.72,14.72,0,0,1,1.62-.58,10.8,10.8,0,0,1-1.57-.56,5,5,0,0,1-1.08-.68,4.3,4.3,0,0,1-1.54-3.46,4.88,4.88,0,0,1,.71-2.58,4.71,4.71,0,0,1,1.94-1.81,9.21,9.21,0,0,1,3.77-.82Zm1,0v-1.42a9.22,9.22,0,0,1,3.78.82,4.8,4.8,0,0,1,1.95,1.81,4.88,4.88,0,0,1,.7,2.58,4.27,4.27,0,0,1-1.54,3.46,5.23,5.23,0,0,1-1.07.68,11.46,11.46,0,0,1-1.58.56,14.72,14.72,0,0,1,1.62.58,5.7,5.7,0,0,1,1.13.67,4.81,4.81,0,0,1,1.49,1.8,5.4,5.4,0,0,1,.52,2.39,4.62,4.62,0,0,1-1.65,3.73,4.27,4.27,0,0,1-1,.67,6.78,6.78,0,0,1-1.35.42,16.37,16.37,0,0,1-2.65.31h-.21v-1.52a1.32,1.32,0,0,0,.49-.22,1.08,1.08,0,0,0,.27-.41,2.43,2.43,0,0,0,.19-1v-5a2.06,2.06,0,0,0-.09-.46c-.06-.22-.13-.4-.18-.54a1.27,1.27,0,0,0-.28-.35,1.76,1.76,0,0,0-.5-.26V123a2,2,0,0,0,.52-.3,1.08,1.08,0,0,0,.27-.45c0-.1.09-.27.16-.51a3.12,3.12,0,0,0,.1-.41v-4.05a3.14,3.14,0,0,0-.08-.52l-.16-.81A1.61,1.61,0,0,0,407.34,115.21Z" transform="translate(-15.12 -16.22)"/><path d="M417.46,120.42l.92-6.24h1.09l-.22,1.7a8.65,8.65,0,0,1,2.14-1.6,4.75,4.75,0,0,1,2.15-.49,5.3,5.3,0,0,1,.94.07,11.93,11.93,0,0,1,1.19.32c.8.25,1.33.42,1.61.53a4.8,4.8,0,0,0,1.42.37.89.89,0,0,0,.67-.37l.16-.2a.65.65,0,0,1,.47-.27.51.51,0,0,1,.37.17.57.57,0,0,1,.16.39,3.5,3.5,0,0,1-.27,1.13,7.36,7.36,0,0,1-.63,1.36,3.87,3.87,0,0,1-1.48,1.52,4.65,4.65,0,0,1-2.18.47,5.58,5.58,0,0,1-1-.07c-.28,0-1.05-.23-2.32-.53a13.61,13.61,0,0,0-2.67-.44,1.27,1.27,0,0,0-1.08.45,2.36,2.36,0,0,0-.34,1.41v.32Zm10.83-.51a19.57,19.57,0,0,0-1.34,3.14,12.13,12.13,0,0,0-.58,3.47,6.93,6.93,0,0,0,.09,1.14l.27,1.63a8.77,8.77,0,0,1,.14,1.52,3.39,3.39,0,0,1-1,2.61,3.12,3.12,0,0,1-2.17.86,2.86,2.86,0,0,1-2.3-1.1,4.21,4.21,0,0,1-.91-2.8,7.51,7.51,0,0,1,1-3.63,9.06,9.06,0,0,1,.82-1.23c.32-.42.86-1,1.62-1.9s1.35-1.55,1.7-2a6,6,0,0,0,.77-1.19A6.83,6.83,0,0,0,428.29,119.91Z" transform="translate(-15.12 -16.22)"/><path d="M185,229.48v2.17l-4.6,6.4H185v1.45h-5.12a1.34,1.34,0,0,1-.85-.19.88.88,0,0,1-.23-.7,2.3,2.3,0,0,1,.5-1.32l.22-.31Zm1.15-1.58,2.3-3.18a1.49,1.49,0,0,1,.5-.49,2.47,2.47,0,0,1,.81-.09h1.27c.35,0,.56.06.63.19a1.53,1.53,0,0,1,.09.61v13.11h1.83a.64.64,0,0,1,.73.71c0,.5-.27.74-.82.74h-1.74v1.86a1.27,1.27,0,0,0,.22.83.58.58,0,0,0,.22.16c.07,0,.29.09.67.19a.77.77,0,0,1,.71.8.7.7,0,0,1-.39.62,1.89,1.89,0,0,1-.93.17h-6.59a1.89,1.89,0,0,1-.93-.17.71.71,0,0,1-.38-.62.77.77,0,0,1,.7-.8c.38-.1.6-.16.67-.19a.44.44,0,0,0,.21-.16,1.27,1.27,0,0,0,.22-.83Z" transform="translate(-15.12 -16.22)"/><path d="M202.34,242.73v1.61a7.18,7.18,0,0,1-2.86-.79,5.33,5.33,0,0,1-1.91-1.58,3.42,3.42,0,0,1-.66-2,3,3,0,0,1,.81-2.12,2.69,2.69,0,0,1,2-.85,2.51,2.51,0,0,1,1.83.76,2.47,2.47,0,0,1,.77,1.8,2.73,2.73,0,0,1-.3,1.2,2.47,2.47,0,0,1-.72.93c-.22.16-.33.3-.33.41s.12.29.35.41A3,3,0,0,0,202.34,242.73Zm-4.13-12.88,1.35.15-.25,3a9.82,9.82,0,0,1,1.54-1.08,6.59,6.59,0,0,1,1.49-.57v2.06a9.44,9.44,0,0,0-2.64,1,2.31,2.31,0,0,1-1,.43.88.88,0,0,1-.62-.21.72.72,0,0,1-.23-.58c0-.11,0-.25,0-.41Zm.1-1.11.41-4.85.57.07,3,.4a28.68,28.68,0,0,0,3.75.22,15.23,15.23,0,0,0,2.38-.15,9.47,9.47,0,0,0,1.9-.54,8.26,8.26,0,0,1-.67,1.65,6.47,6.47,0,0,1-1,1.31,7.54,7.54,0,0,1-1.56,1.2,6.14,6.14,0,0,1-1.71.69A15.84,15.84,0,0,1,202,229,23.37,23.37,0,0,1,198.31,228.74Zm5.26,4.71v-2.12a12.1,12.1,0,0,1,2.54.23,6.75,6.75,0,0,1,2,.8,5.78,5.78,0,0,1,2.94,5.36,7.08,7.08,0,0,1-.67,3.13,5.78,5.78,0,0,1-1.92,2.26,7.5,7.5,0,0,1-2,.93,8,8,0,0,1-2.31.34h-.45v-1.65a2,2,0,0,0,.72-.38,1.7,1.7,0,0,0,.45-.63A2.65,2.65,0,0,0,205,241a5.92,5.92,0,0,0,.09-1v-3.75a4.16,4.16,0,0,0-.31-1.85A2.16,2.16,0,0,0,203.57,233.45Z" transform="translate(-15.12 -16.22)"/><path d="M221.24,223.89v1.48a2,2,0,0,0-1.15.74,2.39,2.39,0,0,0-.35,1.38v13.42a6.94,6.94,0,0,0,0,1,1,1,0,0,0,.2.47,1.58,1.58,0,0,0,.91.48v1.54a7.17,7.17,0,0,1-2.64-.84,7.62,7.62,0,0,1-2.19-1.84,8.94,8.94,0,0,1-1.68-3.32,15.24,15.24,0,0,1-.59-4.37,10.92,10.92,0,0,1,2.88-8,7.93,7.93,0,0,1,2.21-1.59A5.54,5.54,0,0,1,221.24,223.89ZM220.9,235v-1.69a6.47,6.47,0,0,1,3.09-.88,4.92,4.92,0,0,1,1.82.36,4.69,4.69,0,0,1,2.8,2.67,5.47,5.47,0,0,1,.42,2.13,7.12,7.12,0,0,1-.64,2.94,6.39,6.39,0,0,1-1.7,2.32,7.17,7.17,0,0,1-2,1.13,6.73,6.73,0,0,1-2.28.42H222v-1.54a1.41,1.41,0,0,0,.83-.46,1.5,1.5,0,0,0,.25-.94V236a1.69,1.69,0,0,0-.28-1,.79.79,0,0,0-.73-.35A2.73,2.73,0,0,0,220.9,235Zm1.44-9.61v-1.48a6.87,6.87,0,0,1,2.94.7,5.11,5.11,0,0,1,2,1.56,3.44,3.44,0,0,1,.71,2.08,2.74,2.74,0,0,1-.82,2,2.77,2.77,0,0,1-2,.82,2.63,2.63,0,0,1-1.85-.7,2.24,2.24,0,0,1-.76-1.69,2.42,2.42,0,0,1,.66-1.55,3.33,3.33,0,0,0,.41-.53.81.81,0,0,0,.1-.39C223.65,225.76,223.21,225.48,222.34,225.37Z" transform="translate(-15.12 -16.22)"/><path d="M236.84,242.73v1.61a7.13,7.13,0,0,1-2.86-.79,5.24,5.24,0,0,1-1.91-1.58,3.43,3.43,0,0,1-.67-2,2.92,2.92,0,0,1,.82-2.12,2.69,2.69,0,0,1,2-.85,2.49,2.49,0,0,1,1.82.76,2.43,2.43,0,0,1,.77,1.8,2.85,2.85,0,0,1-.29,1.2,2.57,2.57,0,0,1-.72.93c-.22.16-.34.3-.34.41s.12.29.36.41A3,3,0,0,0,236.84,242.73Zm-4.13-12.88,1.34.15-.24,3a9.79,9.79,0,0,1,1.53-1.08,6.67,6.67,0,0,1,1.5-.57v2.06a9.21,9.21,0,0,0-2.64,1,2.35,2.35,0,0,1-1,.43.89.89,0,0,1-.63-.21.75.75,0,0,1-.22-.58c0-.11,0-.25,0-.41Zm.1-1.11.41-4.85.57.07,3,.4a28.46,28.46,0,0,0,3.75.22,15,15,0,0,0,2.37-.15,9.55,9.55,0,0,0,1.91-.54,8.23,8.23,0,0,1-.68,1.65,6.07,6.07,0,0,1-1,1.31,7.54,7.54,0,0,1-1.56,1.2,6.14,6.14,0,0,1-1.71.69,15.9,15.9,0,0,1-3.34.29A23.37,23.37,0,0,1,232.81,228.74Zm5.26,4.71v-2.12a12,12,0,0,1,2.53.23,6.7,6.7,0,0,1,2,.8,5.78,5.78,0,0,1,2.94,5.36,7.08,7.08,0,0,1-.67,3.13,5.78,5.78,0,0,1-1.92,2.26,7.64,7.64,0,0,1-2,.93,8,8,0,0,1-2.31.34h-.46v-1.65a2,2,0,0,0,.73-.38,1.58,1.58,0,0,0,.44-.63,2.59,2.59,0,0,0,.2-.77,5.88,5.88,0,0,0,.08-1v-3.75a4,4,0,0,0-.31-1.85A2.13,2.13,0,0,0,238.07,233.45Z" transform="translate(-15.12 -16.22)"/><path d="M267.48,182v17.21a1.28,1.28,0,0,0,.22.82.48.48,0,0,0,.22.18c.07,0,.3.09.68.19a.77.77,0,0,1,.7.8.71.71,0,0,1-.38.62,1.89,1.89,0,0,1-.92.17h-6.61a1.82,1.82,0,0,1-.92-.17.69.69,0,0,1-.38-.62.77.77,0,0,1,.7-.8c.38-.1.61-.16.67-.19a.42.42,0,0,0,.21-.18,1.28,1.28,0,0,0,.22-.82V185.51a2.76,2.76,0,0,0-.16-1.11.59.59,0,0,0-.49-.4l-.51-.07c-.46-.07-.69-.31-.69-.71a.83.83,0,0,1,.44-.73,2.63,2.63,0,0,1,.91-.16Z" transform="translate(-15.12 -16.22)"/><path d="M275.26,188.39l.93-6.24h1.08l-.22,1.7a8.65,8.65,0,0,1,2.14-1.6,4.75,4.75,0,0,1,2.15-.49,5.3,5.3,0,0,1,.94.07,11.93,11.93,0,0,1,1.19.32c.8.25,1.33.42,1.61.53a4.8,4.8,0,0,0,1.42.37.86.86,0,0,0,.67-.37l.16-.2a.67.67,0,0,1,.47-.27.51.51,0,0,1,.37.17.57.57,0,0,1,.16.39,3.6,3.6,0,0,1-.27,1.14,8.31,8.31,0,0,1-.62,1.35,4,4,0,0,1-1.49,1.52,4.65,4.65,0,0,1-2.18.47,5.58,5.58,0,0,1-1-.07c-.28-.05-1.05-.23-2.32-.53a13.61,13.61,0,0,0-2.67-.44,1.25,1.25,0,0,0-1.08.46,2.31,2.31,0,0,0-.34,1.4v.32Zm10.83-.51a19.57,19.57,0,0,0-1.34,3.14,12.19,12.19,0,0,0-.58,3.47,6.93,6.93,0,0,0,.09,1.14l.27,1.63a8.77,8.77,0,0,1,.14,1.52,3.39,3.39,0,0,1-1,2.61,3.12,3.12,0,0,1-2.17.86,2.83,2.83,0,0,1-2.3-1.1,4.25,4.25,0,0,1-.9-2.79,7.41,7.41,0,0,1,1-3.64,8.11,8.11,0,0,1,.81-1.23c.33-.42.86-1.05,1.62-1.9s1.35-1.55,1.7-2a6,6,0,0,0,.77-1.19A6.5,6.5,0,0,0,286.09,187.88Z" transform="translate(-15.12 -16.22)"/><path d="M297.32,200.7v1.54a10.14,10.14,0,0,1-2.78-.72,5,5,0,0,1-2-1.56,3.54,3.54,0,0,1-.73-2.18,2.83,2.83,0,0,1,.79-2.05,2.58,2.58,0,0,1,2-.83,2.66,2.66,0,0,1,2.14,1,2.43,2.43,0,0,1,.6,1.57,2.48,2.48,0,0,1-.3,1.17,2.77,2.77,0,0,1-.82.94c-.32.23-.47.4-.47.51s.16.3.5.41A3.35,3.35,0,0,0,297.32,200.7Zm0-18.87v1.48a3.16,3.16,0,0,0-.82.28,1,1,0,0,0-.27.23.48.48,0,0,0-.11.25.67.67,0,0,0,.31.47l.67.54a1.71,1.71,0,0,1,.49,1.4,2.5,2.5,0,0,1-.77,1.83,2.58,2.58,0,0,1-1.86.76,2.36,2.36,0,0,1-1.81-.79,2.7,2.7,0,0,1-.73-1.94,3.69,3.69,0,0,1,.52-1.89,4.59,4.59,0,0,1,1.45-1.53A8,8,0,0,1,297.32,181.83Zm4.41,9.95a13.78,13.78,0,0,1,1.91.68,4.57,4.57,0,0,1,1.11.74,4.24,4.24,0,0,1,1,1.52,5.17,5.17,0,0,1-1.17,5.67,6.28,6.28,0,0,1-2.32,1.39,9.31,9.31,0,0,1-3,.47h-.64V200.7a2.32,2.32,0,0,0,1.18-.69,1.56,1.56,0,0,0,.31-.56,2.89,2.89,0,0,0,.09-.8v-4.21a4.7,4.7,0,0,0-.06-.89,1.42,1.42,0,0,0-.26-.54,1.65,1.65,0,0,0-1.29-.59,2.1,2.1,0,0,1-.78-.14.7.7,0,0,1-.32-.62.64.64,0,0,1,.23-.57,1.84,1.84,0,0,1,.85-.22c1.1-.1,1.64-.65,1.64-1.66v-3.88a1.73,1.73,0,0,0-1.58-2v-1.55H299a9.45,9.45,0,0,1,2.71.39,7,7,0,0,1,2.22,1.1,4.71,4.71,0,0,1,1.39,1.64,4.52,4.52,0,0,1,.47,2,4.57,4.57,0,0,1-1.24,3.26,4.79,4.79,0,0,1-1.15.91A11,11,0,0,1,301.73,191.78Z" transform="translate(-15.12 -16.22)"/><path d="M322.52,195.5a.61.61,0,0,1,.53.26,1.21,1.21,0,0,1,.22.74,5.82,5.82,0,0,1-.54,2.26,6.56,6.56,0,0,1-1.28,2,4.83,4.83,0,0,1-1.6,1.07,4.41,4.41,0,0,1-1.8.41,7.84,7.84,0,0,1-2.17-.33l-1.93-.58a10.32,10.32,0,0,0-2.11-.46,2.14,2.14,0,0,0-1.36.61,1.4,1.4,0,0,1-.69.38.62.62,0,0,1-.52-.22,1,1,0,0,1-.18-.63,4,4,0,0,1,.36-1.61,4.71,4.71,0,0,1,1-1.44,5,5,0,0,1,3.63-1.3A16.33,16.33,0,0,1,317,197a25,25,0,0,0,3.45.5,1.35,1.35,0,0,0,1-.36.91.91,0,0,0,.19-.3,4.53,4.53,0,0,0,.16-.6C321.92,195.77,322.16,195.52,322.52,195.5Zm-8.34-13.7v1.56a2,2,0,0,0-.66.24c-.17.11-.25.22-.25.33s.16.28.4.44a2.92,2.92,0,0,1,.95,1,2.51,2.51,0,0,1,.3,1.27,2.59,2.59,0,0,1-.85,1.92,2.89,2.89,0,0,1-4.06,0,2.92,2.92,0,0,1-.84-2.13,3.86,3.86,0,0,1,.73-2.24,4.9,4.9,0,0,1,2-1.64A9.86,9.86,0,0,1,314.18,181.8Zm1.29,1.56v-1.6h.4a8.64,8.64,0,0,1,2.91.5,6.51,6.51,0,0,1,2.3,1.4,5.09,5.09,0,0,1,1.56,3.81,5.62,5.62,0,0,1-1.17,3.51,7.7,7.7,0,0,1-3.3,2.4l-1.92.76a22.49,22.49,0,0,0-2.36,1.17l-.44.25a4.22,4.22,0,0,0-1.13.15,14,14,0,0,0-1.56.59,10,10,0,0,1,1.06-1.21c.35-.34.89-.79,1.6-1.35a22.14,22.14,0,0,0,1.85-1.54,4.84,4.84,0,0,0,.82-1.11,5.22,5.22,0,0,0,.49-1.52,13.29,13.29,0,0,0,.15-2.2,7.93,7.93,0,0,0-.41-3.16,1.73,1.73,0,0,0-.34-.5A2,2,0,0,0,315.47,183.36Z" transform="translate(-15.12 -16.22)"/><path d="M397.57,209.1v2.17l-4.6,6.4h4.6v1.45h-5.11a1.38,1.38,0,0,1-.86-.19.89.89,0,0,1-.22-.7,2.28,2.28,0,0,1,.49-1.32l.22-.31Zm1.16-1.58,2.3-3.18a1.25,1.25,0,0,1,.5-.49,2.07,2.07,0,0,1,.8-.1h1.28c.35,0,.56.07.63.19a1.55,1.55,0,0,1,.09.62v13.11h1.83c.48,0,.73.23.73.7s-.27.75-.82.75h-1.74V221a1.32,1.32,0,0,0,.21.82.72.72,0,0,0,.22.17l.68.18a.78.78,0,0,1,.7.81.7.7,0,0,1-.38.61,1.8,1.8,0,0,1-.94.18h-6.59a1.7,1.7,0,0,1-.92-.18.68.68,0,0,1-.38-.61.78.78,0,0,1,.7-.81l.67-.18a.52.52,0,0,0,.21-.17,1.26,1.26,0,0,0,.22-.82Z" transform="translate(-15.12 -16.22)"/><path d="M414.71,222.44V224a9.47,9.47,0,0,1-2.78-.72,5.07,5.07,0,0,1-2.05-1.56,3.54,3.54,0,0,1-.72-2.17,2.85,2.85,0,0,1,.79-2.06,2.61,2.61,0,0,1,2-.83,2.64,2.64,0,0,1,2.14,1,2.43,2.43,0,0,1,.6,1.57,2.38,2.38,0,0,1-.31,1.17,2.65,2.65,0,0,1-.82.94c-.31.22-.46.39-.46.51s.16.29.49.41A3.45,3.45,0,0,0,414.71,222.44Zm0-18.86v1.48a3.22,3.22,0,0,0-.82.27.78.78,0,0,0-.27.24.48.48,0,0,0-.11.25.7.7,0,0,0,.31.47l.67.54a1.72,1.72,0,0,1,.48,1.39,2.49,2.49,0,0,1-.76,1.83,2.54,2.54,0,0,1-1.86.76,2.37,2.37,0,0,1-1.81-.78,2.73,2.73,0,0,1-.74-1.94,3.8,3.8,0,0,1,.52-1.9,4.72,4.72,0,0,1,1.46-1.53A7.75,7.75,0,0,1,414.71,203.58Zm4.41,9.94a15,15,0,0,1,1.9.68,4.64,4.64,0,0,1,1.12.74,4.19,4.19,0,0,1,1,1.53,4.84,4.84,0,0,1,.38,1.92,5,5,0,0,1-1.55,3.75,6.4,6.4,0,0,1-2.32,1.38,9,9,0,0,1-3,.48l-.65,0v-1.54a2.23,2.23,0,0,0,1.19-.68,1.6,1.6,0,0,0,.31-.57,2.84,2.84,0,0,0,.09-.8v-4.2a4.63,4.63,0,0,0-.06-.89,1.34,1.34,0,0,0-.27-.55,1.61,1.61,0,0,0-1.28-.58,1.83,1.83,0,0,1-.78-.15.8.8,0,0,1-.1-1.19,2.08,2.08,0,0,1,.86-.22c1.09-.09,1.64-.64,1.64-1.65v-3.88a2.23,2.23,0,0,0-.35-1.37,2.12,2.12,0,0,0-1.24-.65V203.5h.41a9.35,9.35,0,0,1,2.71.4,6.84,6.84,0,0,1,2.23,1.1,4.68,4.68,0,0,1,1.39,1.63,4.81,4.81,0,0,1-.77,5.3,4.74,4.74,0,0,1-1.15.9A9.35,9.35,0,0,1,419.12,213.52Z" transform="translate(-15.12 -16.22)"/><path d="M432,222.44V224a9.47,9.47,0,0,1-2.78-.72,5,5,0,0,1-2-1.56,3.49,3.49,0,0,1-.73-2.17,2.85,2.85,0,0,1,.79-2.06,2.61,2.61,0,0,1,2-.83,2.64,2.64,0,0,1,2.14,1,2.43,2.43,0,0,1,.6,1.57,2.48,2.48,0,0,1-.3,1.17,2.86,2.86,0,0,1-.82.94c-.32.22-.47.39-.47.51s.16.29.49.41A3.45,3.45,0,0,0,432,222.44Zm0-18.86v1.48a3.22,3.22,0,0,0-.82.27.78.78,0,0,0-.27.24.48.48,0,0,0-.11.25.7.7,0,0,0,.31.47l.67.54a1.72,1.72,0,0,1,.49,1.39,2.5,2.5,0,0,1-.77,1.83,2.54,2.54,0,0,1-1.86.76,2.38,2.38,0,0,1-1.81-.78,2.73,2.73,0,0,1-.74-1.94,3.8,3.8,0,0,1,.52-1.9,4.72,4.72,0,0,1,1.46-1.53A7.81,7.81,0,0,1,432,203.58Zm4.41,9.94a15.25,15.25,0,0,1,1.91.68,4.57,4.57,0,0,1,1.11.74,4.19,4.19,0,0,1,1,1.53,4.85,4.85,0,0,1,.39,1.92,5,5,0,0,1-1.56,3.75,6.4,6.4,0,0,1-2.32,1.38,9,9,0,0,1-3,.48l-.64,0v-1.54a2.24,2.24,0,0,0,1.18-.68,1.6,1.6,0,0,0,.31-.57,2.84,2.84,0,0,0,.09-.8v-4.2a4.63,4.63,0,0,0-.06-.89,1.45,1.45,0,0,0-.26-.55,1.64,1.64,0,0,0-1.29-.58,1.87,1.87,0,0,1-.78-.15.69.69,0,0,1-.32-.61.65.65,0,0,1,.23-.58,2,2,0,0,1,.85-.22c1.1-.09,1.64-.64,1.64-1.65v-3.88a2.23,2.23,0,0,0-.35-1.37,2.12,2.12,0,0,0-1.23-.65V203.5h.41a9.45,9.45,0,0,1,2.71.4,6.78,6.78,0,0,1,2.22,1.1,4.68,4.68,0,0,1,1.39,1.63,4.81,4.81,0,0,1-.77,5.3,4.74,4.74,0,0,1-1.15.9A9.35,9.35,0,0,1,436.36,213.52Z" transform="translate(-15.12 -16.22)"/><path d="M449.37,222.34V224a7.13,7.13,0,0,1-2.86-.79,5.23,5.23,0,0,1-1.91-1.57,3.45,3.45,0,0,1-.67-2,3,3,0,0,1,.82-2.13,2.72,2.72,0,0,1,2-.85,2.53,2.53,0,0,1,1.83.77,2.43,2.43,0,0,1,.76,1.8,2.64,2.64,0,0,1-.29,1.19,2.32,2.32,0,0,1-.72.93c-.22.17-.33.3-.33.41s.11.3.35.41A3,3,0,0,0,449.37,222.34Zm-4.13-12.87,1.35.14-.25,3a10,10,0,0,1,1.54-1.09,6.41,6.41,0,0,1,1.49-.57v2.07a9,9,0,0,0-2.64,1,2.41,2.41,0,0,1-1,.44.9.9,0,0,1-.63-.21.76.76,0,0,1-.22-.58c0-.12,0-.26,0-.41Zm.1-1.12.41-4.85.57.08,3,.39a27,27,0,0,0,3.75.22,16.53,16.53,0,0,0,2.37-.14,9,9,0,0,0,1.91-.55,8.1,8.1,0,0,1-.68,1.66,6,6,0,0,1-1,1.3,7.54,7.54,0,0,1-1.56,1.2,5.59,5.59,0,0,1-1.71.69,15.17,15.17,0,0,1-3.34.3A22.23,22.23,0,0,1,445.34,208.35Zm5.26,4.72v-2.13a11.24,11.24,0,0,1,2.53.24,7,7,0,0,1,2,.79,5.78,5.78,0,0,1,2.94,5.36,7.13,7.13,0,0,1-.67,3.14,5.75,5.75,0,0,1-1.92,2.25,7.64,7.64,0,0,1-2,.93,8,8,0,0,1-2.31.35h-.46v-1.66a2.16,2.16,0,0,0,.73-.37,1.74,1.74,0,0,0,.45-.64,3,3,0,0,0,.19-.76,6,6,0,0,0,.08-1v-3.75a4.24,4.24,0,0,0-.3-1.86A2.1,2.1,0,0,0,450.6,213.07Z" transform="translate(-15.12 -16.22)"/><path d="M301.31,254.38v17.21a1.22,1.22,0,0,0,.22.82.48.48,0,0,0,.22.18c.07,0,.29.09.67.19a.77.77,0,0,1,.71.8.7.7,0,0,1-.39.62,1.87,1.87,0,0,1-.92.17h-6.6a1.89,1.89,0,0,1-.93-.17.71.71,0,0,1-.38-.62.77.77,0,0,1,.7-.8c.39-.1.61-.16.68-.19a.37.37,0,0,0,.2-.18,1.22,1.22,0,0,0,.22-.82V257.88a3,3,0,0,0-.15-1.11.6.6,0,0,0-.49-.4l-.51-.07c-.46-.07-.69-.31-.69-.71a.81.81,0,0,1,.44-.73,2.57,2.57,0,0,1,.91-.16Z" transform="translate(-15.12 -16.22)"/><path d="M315.2,255.55a1.76,1.76,0,0,0-.8.69,3.66,3.66,0,0,0-.17,1.35v4a2.59,2.59,0,0,0,.17.92,1.37,1.37,0,0,0,.31.46,1.66,1.66,0,0,0,.49.29v1.54a1.36,1.36,0,0,0-.75.57,2,2,0,0,0-.22,1v5a2.4,2.4,0,0,0,.19,1,1.09,1.09,0,0,0,.28.41,1.34,1.34,0,0,0,.48.22v1.52h-.29a11.59,11.59,0,0,1-2.64-.31,7.44,7.44,0,0,1-1.35-.43,4.84,4.84,0,0,1-1-.65,4.65,4.65,0,0,1-1.65-3.74,5.43,5.43,0,0,1,.52-2.39,4.81,4.81,0,0,1,1.49-1.8,5.7,5.7,0,0,1,1.13-.67,13.1,13.1,0,0,1,1.62-.57,12.75,12.75,0,0,1-1.58-.57,5.23,5.23,0,0,1-1.07-.68,4.27,4.27,0,0,1-1.54-3.46,4.9,4.9,0,0,1,.7-2.58,4.8,4.8,0,0,1,1.95-1.81,9.17,9.17,0,0,1,3.77-.82Zm1,0v-1.42A9.22,9.22,0,0,1,320,255a4.71,4.71,0,0,1,1.94,1.81,4.91,4.91,0,0,1,.71,2.58,4.3,4.3,0,0,1-1.54,3.46,5,5,0,0,1-1.08.68,12,12,0,0,1-1.57.57,13.1,13.1,0,0,1,1.62.57,5.7,5.7,0,0,1,1.13.67,4.81,4.81,0,0,1,1.49,1.8,5.43,5.43,0,0,1,.52,2.39,4.63,4.63,0,0,1-1.66,3.74,4.27,4.27,0,0,1-1,.66,7.23,7.23,0,0,1-1.35.42,15.44,15.44,0,0,1-2.66.31h-.2V273.1a1.27,1.27,0,0,0,.48-.22,1.09,1.09,0,0,0,.28-.41,2.4,2.4,0,0,0,.19-1v-5a2.06,2.06,0,0,0-.09-.46c-.07-.22-.13-.4-.19-.54a1.23,1.23,0,0,0-.28-.35,1.8,1.8,0,0,0-.49-.26V263.3a2.17,2.17,0,0,0,.52-.3,1.08,1.08,0,0,0,.27-.45c0-.1.09-.27.16-.51a2.76,2.76,0,0,0,.1-.41v-4a2.49,2.49,0,0,0-.09-.53l-.16-.81A1.58,1.58,0,0,0,316.21,255.55Z" transform="translate(-15.12 -16.22)"/><path d="M332.44,255.55a1.67,1.67,0,0,0-.79.69,3.41,3.41,0,0,0-.18,1.35v4a2.39,2.39,0,0,0,.18.92,1.23,1.23,0,0,0,.3.46,1.66,1.66,0,0,0,.49.29v1.54a1.4,1.4,0,0,0-.75.57,2,2,0,0,0-.22,1v5a2.4,2.4,0,0,0,.19,1,1.09,1.09,0,0,0,.28.41,1.34,1.34,0,0,0,.48.22v1.52h-.29a11.59,11.59,0,0,1-2.64-.31,7.71,7.71,0,0,1-1.35-.43,4.84,4.84,0,0,1-1-.65,4.65,4.65,0,0,1-1.65-3.74,5.43,5.43,0,0,1,.52-2.39,4.81,4.81,0,0,1,1.49-1.8,5.7,5.7,0,0,1,1.13-.67,13.1,13.1,0,0,1,1.62-.57,12,12,0,0,1-1.57-.57,5,5,0,0,1-1.08-.68,4.27,4.27,0,0,1-1.54-3.46,5,5,0,0,1,.7-2.58,4.8,4.8,0,0,1,1.95-1.81,9.17,9.17,0,0,1,3.77-.82Zm1,0v-1.42a9.22,9.22,0,0,1,3.78.82,4.8,4.8,0,0,1,1.95,1.81,5,5,0,0,1,.7,2.58,4.27,4.27,0,0,1-1.54,3.46,5,5,0,0,1-1.08.68,12,12,0,0,1-1.57.57,13.1,13.1,0,0,1,1.62.57,5.7,5.7,0,0,1,1.13.67,4.81,4.81,0,0,1,1.49,1.8,5.43,5.43,0,0,1,.52,2.39,4.63,4.63,0,0,1-1.66,3.74,4.27,4.27,0,0,1-1,.66,7,7,0,0,1-1.35.42,15.32,15.32,0,0,1-2.65.31h-.21V273.1a1.2,1.2,0,0,0,.48-.22,1.09,1.09,0,0,0,.28-.41,2.4,2.4,0,0,0,.19-1v-5a2.06,2.06,0,0,0-.09-.46c-.07-.22-.13-.4-.19-.54a1.21,1.21,0,0,0-.27-.35,2.06,2.06,0,0,0-.5-.26V263.3a2,2,0,0,0,.52-.3,1.08,1.08,0,0,0,.27-.45c0-.1.09-.27.16-.51a2.76,2.76,0,0,0,.1-.41v-4a2.49,2.49,0,0,0-.09-.53l-.16-.81A1.54,1.54,0,0,0,333.45,255.55Z" transform="translate(-15.12 -16.22)"/><path d="M356.36,267.87a.61.61,0,0,1,.53.26,1.2,1.2,0,0,1,.21.74,5.79,5.79,0,0,1-.53,2.26,6.44,6.44,0,0,1-1.28,2,4.83,4.83,0,0,1-1.6,1.07,4.41,4.41,0,0,1-1.8.41,7.84,7.84,0,0,1-2.17-.33l-1.93-.58a10.32,10.32,0,0,0-2.11-.46,2.14,2.14,0,0,0-1.36.61,1.4,1.4,0,0,1-.69.38.62.62,0,0,1-.52-.22,1,1,0,0,1-.18-.63,4,4,0,0,1,.36-1.61,4.66,4.66,0,0,1,1-1.43,5,5,0,0,1,3.63-1.31,16.33,16.33,0,0,1,2.89.34,25,25,0,0,0,3.45.5,1.35,1.35,0,0,0,1-.36,1,1,0,0,0,.19-.29,5.35,5.35,0,0,0,.16-.61C355.76,268.14,356,267.89,356.36,267.87ZM348,254.17v1.56a1.82,1.82,0,0,0-.66.25c-.17.1-.26.21-.25.32s.16.28.4.44a2.92,2.92,0,0,1,.95,1,2.51,2.51,0,0,1,.3,1.27,2.59,2.59,0,0,1-.85,1.92,2.89,2.89,0,0,1-4.06-.05,2.92,2.92,0,0,1-.84-2.13,3.79,3.79,0,0,1,.73-2.24,4.9,4.9,0,0,1,2-1.64A9.86,9.86,0,0,1,348,254.17Zm1.29,1.56v-1.6h.4a8.41,8.41,0,0,1,2.91.51,6.35,6.35,0,0,1,2.3,1.39,5.09,5.09,0,0,1,1.56,3.81,5.62,5.62,0,0,1-1.17,3.51,7.7,7.7,0,0,1-3.3,2.4l-1.92.76a22.49,22.49,0,0,0-2.36,1.17l-.44.25a4.22,4.22,0,0,0-1.13.15,12.63,12.63,0,0,0-1.56.6,9.38,9.38,0,0,1,1.06-1.22c.35-.34.89-.79,1.6-1.35a22.14,22.14,0,0,0,1.85-1.54,4.84,4.84,0,0,0,.82-1.11,5.22,5.22,0,0,0,.49-1.52,13.29,13.29,0,0,0,.15-2.2,7.93,7.93,0,0,0-.41-3.16,1.73,1.73,0,0,0-.34-.5A2,2,0,0,0,349.31,255.73Z" transform="translate(-15.12 -16.22)"/><path d="M378.25,319.44v17.21a1.22,1.22,0,0,0,.22.82.44.44,0,0,0,.22.18,5.61,5.61,0,0,0,.67.18.78.78,0,0,1,.7.81.68.68,0,0,1-.38.61,1.74,1.74,0,0,1-.92.18h-6.61a1.72,1.72,0,0,1-.92-.18.7.7,0,0,1-.38-.61.78.78,0,0,1,.7-.81,6.87,6.87,0,0,0,.68-.18.45.45,0,0,0,.2-.18,1.22,1.22,0,0,0,.22-.82V322.94a3.09,3.09,0,0,0-.15-1.12.62.62,0,0,0-.49-.39l-.52-.08c-.46-.06-.68-.3-.68-.7a.81.81,0,0,1,.43-.73,2.63,2.63,0,0,1,.91-.16Z" transform="translate(-15.12 -16.22)"/><path d="M392.09,339.68a7.31,7.31,0,0,1-2.73-.87,7.81,7.81,0,0,1-2.22-2,10,10,0,0,1-1.72-3.3,14.85,14.85,0,0,1,0-8.22,9.91,9.91,0,0,1,1.72-3.29,7.66,7.66,0,0,1,2.22-2,7,7,0,0,1,2.73-.87v1.52a3,3,0,0,0-.57.23,1.14,1.14,0,0,0-.31.28,2.53,2.53,0,0,0-.42,1.57v13.29a2.5,2.5,0,0,0,.42,1.56,1,1,0,0,0,.31.29,3.79,3.79,0,0,0,.57.23Zm1.13,0v-1.52a3.79,3.79,0,0,0,.57-.23,1,1,0,0,0,.31-.29,2.5,2.5,0,0,0,.42-1.56V322.79a2.53,2.53,0,0,0-.42-1.57,1.14,1.14,0,0,0-.31-.28,3,3,0,0,0-.57-.23v-1.52a7.07,7.07,0,0,1,2.73.87,7.79,7.79,0,0,1,2.22,2,9.9,9.9,0,0,1,1.71,3.29,14.61,14.61,0,0,1,0,8.22,10,10,0,0,1-1.71,3.3,7.94,7.94,0,0,1-2.22,2A7.43,7.43,0,0,1,393.22,339.68Z" transform="translate(-15.12 -16.22)"/><path d="M408.14,324.78V327l-4.6,6.4h4.6v1.45H403a1.4,1.4,0,0,1-.86-.19.89.89,0,0,1-.22-.7,2.23,2.23,0,0,1,.5-1.32l.22-.31Zm1.16-1.58,2.3-3.18a1.4,1.4,0,0,1,.5-.49,2.4,2.4,0,0,1,.8-.09h1.28c.35,0,.56.06.63.19a1.5,1.5,0,0,1,.09.61v13.11h1.83c.49,0,.73.24.73.7s-.27.75-.82.75H414.9v1.86a1.24,1.24,0,0,0,.22.82.47.47,0,0,0,.22.17,5.61,5.61,0,0,0,.67.18.78.78,0,0,1,.7.81.68.68,0,0,1-.38.61,1.79,1.79,0,0,1-.93.18h-6.6a1.72,1.72,0,0,1-.92-.18.7.7,0,0,1-.38-.61.78.78,0,0,1,.7-.81c.37-.09.6-.15.67-.18a.45.45,0,0,0,.21-.17,1.24,1.24,0,0,0,.22-.82Z" transform="translate(-15.12 -16.22)"/><path d="M425.34,324.78V327l-4.6,6.4h4.6v1.45h-5.11a1.38,1.38,0,0,1-.86-.19.89.89,0,0,1-.22-.7,2.28,2.28,0,0,1,.49-1.32l.22-.31Zm1.16-1.58,2.3-3.18a1.32,1.32,0,0,1,.5-.49,2.36,2.36,0,0,1,.8-.09h1.28c.35,0,.56.06.63.19a1.75,1.75,0,0,1,.08.61v13.11h1.84a.64.64,0,0,1,.73.7c0,.5-.28.75-.82.75h-1.75v1.86a1.3,1.3,0,0,0,.22.82.52.52,0,0,0,.22.17,6.87,6.87,0,0,0,.68.18.78.78,0,0,1,.7.81.7.7,0,0,1-.38.61,1.83,1.83,0,0,1-.94.18H426a1.7,1.7,0,0,1-.92-.18.68.68,0,0,1-.38-.61.78.78,0,0,1,.7-.81l.67-.18a.45.45,0,0,0,.21-.17,1.24,1.24,0,0,0,.22-.82Z" transform="translate(-15.12 -16.22)"/></g><g id="Layer_2" data-name="Layer 2"><path id="BE-VAN" class="cls-1" d="M311.55,16.82l7.52,4.06L320,33.16l-9.76,1.6,15.12-.59,4.23,5,14.37-19.33L350.47,23l3.46,8.28-4.3,8.13,8.31,16.54,13.95,2.34-.42,9.13h0l-3,8.58,6.31,14.63-33,15.71-4.13,8.47h0L316,119.72l-3.44-5.82-12.47,8.38-1.75-5.47L285,123.91l-24.8-.93-1.95-7.3-18.54-1.45h0l-6.54-.69-2.07-12.74,18.35-5.23,2.28-6.15L246.18,68.7l4.23-6.3L239.28,47.86h0l-2.77-4.45,28.43,2.11-7-17.37,12.52-6.62,8.59-.87L278.68,33l13.75.08Z" transform="translate(-15.12 -16.22)"/><path id="BE-WBR" class="cls-1" d="M221.2,183.32l7.25-5,12.22,8.6,11.62-9.47,5,3.68L273.26,173l4.2,5.78,9.31-7.53,5.14,4.43,1.1-11.76,15.55-1.56,21.78,13.22,7.5-5.6,5,4.12h0L338,196.66h0L312.5,207.57l-16.77-3.36.66,8.34-9-.6-3,5.73h0l-14.69,2.72.41-6.32-7.63-1.34-10.55,4.39L232,192.61l-10,6.11Z" transform="translate(-15.12 -16.22)"/><path id="BE-BRU" class="cls-1" d="M264.34,143.29l.53.39h0l7.82,21.74-13.92,5.7-18.35-11.21,7-13.45,10.65-3.15h0l5.87-1h0Z" transform="translate(-15.12 -16.22)"/><path id="BE-WHT" class="cls-1" d="M136.63,170.6l22.53,9.75,6.26-10.7,10.76-1.84,2.18,7,16,3.2h0l2.11,8.65,24.74-3.33h0l.83,15.4,10-6.1,19.92,24.52,10.55-4.39,7.63,1.35-.41,6.32,14.69-2.73h0l-.93,20.75,6.05,3.48-3.09,20-25.13,3.18L246,276.6,261,281.38l-5,13.12,9.28,46.41h0l-38.35-7.59,2.39-14.1,9.26-4.33-4-13.08-9.49-.14,10.57-28.52-6.11-3.52-3.26,6.43-14.93-20.83-16.19,6.6-20.41-5-5.23,9.51L162.91,253l.21-17.91L156.25,227,142,228.8l2.41-7.52-5.83-2-13,8.7-11.16-6.88-6.89-27.69,2.82-9.06L99.32,173h0l17,.12,7.13,9.53ZM57.78,183.19,55,174.14l15.72-4.91-3.13-4.13L76,161.58l2.45,7.81h0L68,175.4,64,186.1Z" transform="translate(-15.12 -16.22)"/><path id="BE-WLG" class="cls-1" d="M431.63,161.31l-1.37,11.17h0l26.43,10.15L458,173h0l16.95.07,2.58,7.62,10.2-.73,8,20,12.09,0-11.95,17.46,6.28,9.7,16.43,1.36,3.38,10.92L517.26,251l8.72,9.25-6.1,6.43-7.13-3.07-3.59,10.63-13.67,6.53,1.92,10.8L491.5,293l-.85,9.4L487.21,295l-6.93,2.69-4.81-6.21h0l-6-30.25-15.41-3.53-2.3,13.69,4.74.31-9.71,5.17-11.05-1.46-.28-19.78L411,248.45l-3.25-6.71-5.8,3.64-6.27-4.59-3.55,10.47h0l-12.68,2.94-8.25-7.95-4.93-15.7-4.62,2.16-2.89-9.11-14-4.25L338,196.66h0l4.83-22.54h0l10.64,8.57h0l8.57,2.77,1.22-5.93,17.15,1.6,10.9-6.53,4.06,6,7.77-1,27.78-18.34h0Z" transform="translate(-15.12 -16.22)"/><path id="BE-VLI" class="cls-1" d="M443.62,170.29,458,173h0l-1.28,9.63-26.43-10.15h0ZM410.77,63.75l3.46,11.68L452.87,91.8l-17.66,38.13L440,132.5l-14.85,16.39,5.7,12.39h0l-27.78,18.35-7.77,1-4.06-6-10.9,6.53-17.15-1.59L362,185.46l-8.57-2.77h0l11.23-40.47-12.48-1.13-6.4-7,9.74-16.32L361,117l-5.32-5.36L347.76,119l-10.11-4.21h0l4.13-8.46,33-15.72L368.43,76l3-8.58h0L395.19,67l9.06-8Z" transform="translate(-15.12 -16.22)"/><path id="BE-WLX" class="cls-1" d="M392.16,251.26l3.55-10.47,6.27,4.59,5.8-3.64,3.25,6.71,24.45,7.13.28,19.78,11.05,1.46,9.71-5.17-4.74-.31,2.3-13.69,15.41,3.53,6,30.25h0l-16.83,14.63-10.29,20.39,2.3,6.51-8.07,4.13-5.34,12.61,6.44,4.17-5.77,8.75,1.83,9.22,4.47-.87,5,14.84,7.77,2.75-2.72,6.61,6,2.58-9.17,22.49-25.24.29-5.07,9-7.23-4.61-11.08,6.51-5.71-19.91-10.63-7.09-4.62,4,2.32-8.7-7.34-7.83-14.5-.17-9.53-14.15-16.57-7.91h0l2.73-10.51,17.28-14.19-19.36-21.66,9.11-5L348.79,304l1.36,6.12L375.69,306l-3.54-4.17,5.1-5.28-9.72-11.66L392.2,270l-.73-5.71-6.07.27,6.83-4.39Z" transform="translate(-15.12 -16.22)"/><path id="BE-WNA" class="cls-1" d="M284.38,217.68l3-5.73,9,.6-.66-8.34,16.77,3.36L338,196.66h0l6.83,22.69,14,4.25,2.89,9.11,4.62-2.16,4.93,15.7,8.25,7.95,12.68-2.94h0l.07,8.93-6.83,4.39,6.07-.27.73,5.71-24.67,14.83,9.72,11.66-5.1,5.28,3.54,4.17-25.54,4.17L348.79,304l-3.15,14.22-9.11,5,19.36,21.66-17.28,14.19-2.73,10.51h0l-15.5,1.71-.59-15,5.43-8.74-13-12.12L319,321.25l-2.78-5.52L326.28,301l-9.18-6.52-17.58,17.12-.11,18.29-34.18,11h0L256,294.49l5-13.12L246,276.59l15.24-11.5,25.13-3.17,3.09-20-6.05-3.47Z" transform="translate(-15.12 -16.22)"/><path id="BE-VOV" class="cls-1" d="M239.28,47.87l11.13,14.54-4.24,6.29,5.56,20.73-2.27,6.15-18.35,5.22,2.07,12.75,6.54.69h0l-1,7.45-11.62,7,2.43,7.53-9-.09-7.08,19.66,2.77,10.2-14.92,2.89.37,9.14h-7.4l-16-3.2-2.18-7-10.77,1.84-6.26,10.7-22.52-9.75h0l8.18-8-9.09-12.94,3.42-6.25-8.24-1.5,5.9-8L130.65,131l4.27-18.92-15.17-10.81,10.47-12.92-6.7-6.57,2.81-17.4h0l6.22,6.3,13-.25-1.53-8.67,10-4,24.62,9,1.8,10.2,12.7-1.81-.06,4.77,23-9.18Z" transform="translate(-15.12 -16.22)"/><path id="BE-VBR" class="cls-1" d="M337.65,114.8,347.76,119l7.91-7.35L361,117l-5.46.76-9.74,16.32,6.4,7,12.48,1.13-11.23,40.47h0l-10.65-8.57h0l-5-4.12-7.5,5.6-21.79-13.22L293,163.94,291.9,175.7l-5.14-4.43-9.31,7.53-4.2-5.78-15.92,8.16-5-3.68L240.66,187l-12.21-8.58-7.25,5h0l-24.75,3.32L194.34,178h7.39l-.36-9.13,14.92-2.9-2.77-10.19,7.08-19.66,9,.08-2.43-7.53,11.62-7,1-7.46h0l18.54,1.45,2,7.3,24.8.93,13.31-7.1,1.74,5.47,12.48-8.38,3.43,5.82Zm-73.73,27.54h0l-14.25,2-9.17,15.81,18.27,11,13.92-5.71-7.82-21.73Z" transform="translate(-15.12 -16.22)"/><path id="BE-VWV" class="cls-1" d="M124.63,44.7l1.7,19.66h0l-2.81,17.4,6.7,6.57-10.47,12.92,15.17,10.81L130.65,131l6.15,2.91-5.9,8,8.24,1.5-3.42,6.25,9.09,12.94-8.18,8h0l-13.2,12.05-7.13-9.53-17-.13h0l-3.59-7.05L78.48,169.4h0L76,161.58l-8.42,3.53,3.13,4.12L55,174.14l2.76,9.05h0l-9.63-4L39.39,161.7l-11.56-.43-4.72-7.76-1.22-14.63,5.49-5.79L15.74,103.4,100.1,52.46l.34-6.89,1.6,7.21,0-7.38L106,50.29Z" transform="translate(-15.12 -16.22)"/></g></svg>