<svg xmlns="http://www.w3.org/2000/svg" viewBox="0 0 817 558"><defs><style>.cls-1,.cls-2{fill:none;stroke:#231f20;stroke-miterlimit:10;}.cls-1{stroke-width:0.98px;}</style></defs><title>Simple2DMap</title><g id="MapBelgium"><path id="BE-VAN" class="cls-1" d="M473.14,30l9.72,5.24.77,6.15L480,44.68l1.24,6.66,2.78-.22-1.91,1.56-10.43-4.1-.27,4.61,15.89,1.48,3.65-2.24,5.47,6.47L510.65,45l.56-6.39L515,33.9l2.85,3.72,5.64.35,4.47,10.71-5.56,10.51,10.27,12.43.47,8.94L537.89,82l6.37-3,6.88,4.54-2.51,10,2,1.77h0l-3.58,4-.36,7.1,7.92,9.93.24,9-4.75,4.75-4.83-1.82L543.15,133l-4.54.57h0l-1.38.24h0l-4.85.3-6,8.62-14.2,3-.41,4.76-4.93,6.18h0l-2.65-2.95-5.3,2.35h-.8l-5.55,4.09L478.89,163l-4.44-7.52-5.25,3.87-4.73-.43-6.14,7.38L460,162l-3.94-2.79-13.41,3.87-1,4.74-2.76.57-5.58-3.65L429.85,168l-6.8-4.27-1.79,4.62-4.57-3.81-9.85,2.73-1-4.09-2.8-.92,1.25-4.44-6.25,3.81.56-2.84-11.3-4.38-7,1.54h0l-1.28-1.7L375.66,157l-3.76-2,1.32-4.76-2-.89-2-10.81,6.26-5.62,6.23,2,11.23-3.09,2.94-8-.12-7.68-2.15-1.06,1.24-4L391.13,110l-2.44-12.94,5.48-8.13-7.12-4.89L385.3,73.32l-5.51-3.16h0l-3.58-5.75,20.26-.87,1.31,5.12,7,.89L413,67.12l-8.09-15.36L407,46.19l-3.16-1.52L420,36.11,431.14,35l1.59,2.48-2.94,6.43.92,7.09,6.81-2.53,11,2.65,5-1-.3-4.94,4.42-2,10.15-13,5.44-.15Z" transform="translate(-12.5 -20.5)"/><path id="BE-WBR" class="cls-1" d="M356.39,245.17l9.37-6.41,4.18,6.38,4.83-.54,6.77,5.27,2.55-2.82h7.56l1.36-5.54,3.57.94-1.79-3.14,1.77-1.67,2.85,4.68,3.67.08h0V239h0l20.58-7.18-.15,3.52,5.58,4,.11-3,8.36-2.15,3.56-4.54,1.46,6.13,5.18-.4,3.61-3.5-3.07-4.5.89-7.21,8.57,2.64,3.18-1.72.69,1.83,1.62-3.53,6-1.23,5.36,2.22,3.65,5.82,3.86.25,0,3.43L493,228.31h1.3l0,5.1,3.19,1.78,9.69-7.23,6.4,5.32h0l-.59,4.71-4,2.28,4.07,5.67-2.68,2.24.18,8.08-3.21,6.15h0l-5.5-1.29-4.07,5.37-4.91-.43.26,1.85-19.35,5.6.66,3-3.63-3-4.53,3.4-1.64-5.82-3.52.64-1.48,3.76-6.86-3.3-1.5,3.73,2.35,7-4.18,1.67-7.46-2.44-4.38,2.06.49,5.34h0l-11.19,4.14-1.88-3.8-4.37.73-1.54,2.45.53-8.17L416.2,286l-6.48-2.84-9.22.72-4.41,4.95.52-6.45-5.5,0-5-7.18-4.47-.06,1-5.76-9-2.06.74-6.13-4-4.1-6.59,8-6.29-.11-2.57-5.5.47-13.24,3.23-.86Z" transform="translate(-12.5 -20.5)"/><path id="BE-BRU" class="cls-1" d="M412.14,193.44l.69.51h0l1.21,4.56-2.51,3,6.37,4.23,2.57,7.9-4.16,2.67.67,1.91h0l2.71.3h0l3.23,3.5-2.42.21h0l-2.22.94h0l-13.34,6.21-8.67-2.9-4.76-10-4,1.19-5.79-2.91h0l-.43.43h0l-.1-.33h0l1.73-2.24h0l.49-2.42,4.38-.22-.43-8.27,2.86-4.24h0l2.93-2.71h0l.94-.55h0l2.44-1.73h0l1.1-.23h0l6.34,1.15h0l3.64-4.05h0l2.21,1.62h0l1.75,1.19h0Z" transform="translate(-12.5 -20.5)"/><path id="BE-WHT" class="cls-1" d="M247.1,228.74l5.83,2.72,7.6-1.81.56,8.31,11.68.4,2.51,2.66h0l.93.3h0l8.09-13.83,5.62-2.61.7,3.9,7.6-3.66-.84,2.7,3.65,6.32,6.11-.62,4.81,2.31,7-2.57,2.76,5h0l-1,6.08,3.74,5.11,7.25.56h1.14l15.24-3.39,1.5,1.94,4.42-5.53h0v.62h0l2.42,1.51h0l2.19.3-3.23.86-.48,13.23,2.58,5.5,6.3.11,6.59-8,4,4.1-.76,6.12,9,2.06-1,5.76,4.47.06,5,7.18,5.51,0-.52,6.45,4.42-4.95,9.21-.72,6.48,2.84,3.38-1.1-.53,8.17,1.54-2.46,4.37-.72,1.87,3.79,11.2-4.14h0l-3.31,10.28h0v.88h0l.67,2.81,5.29-2.73-1.37,1.63,2.31,5.35-4.79,8.61,7.82,4.49-2.34,5.8-3.19,1.07,3.48,3.47-2.78,1.31-1.5,6,2.34,8.21-12.78,2.85-2.55-3.41-3.59.05-4,6.21-9.54-1.59-.83,4-4.8,1.21-1.86,4.36-5.12-.48-7.08,5.75,9.82,7.64,3.7-4.18,1.66,1h1.67l2.42,1.75h0l-.14.91h0l-.34,4.36h-.6l.4,7.55-5.78,4.15,6.57,12.08-2.53,3.85.82,15.33,3.21,1.11.81,12.63,5.13,10.72-2,4.26h0l-14-3-7.13-4.26L372.73,445l-.49-3.73L363.75,439l3.43-5.72-4.44-4.9,4.1-7.6,5.65-.32,6.32-5.27-5.63-9.58.47-7.32-8-.14.21,1.86-4.5-1.91,4.54-7.86L365.19,377l3.77-.87,8.25-9.74L375,361.28l-5.22-.88-2.65-3.67L365,360.51l3,4.45L363,365l-3.54-12.11-3.55-2.77-3.38.8-8.84-12.83-6.41,4.35L334.94,341l-.89,1.82-.14-1.92-11.19,5.73-8.86-6.7-4.1-.13-2,2.38-1.14-2.83-10.27.83-2.35,2.1-.72,8-3.54-1.94,1.5,3.7-1.65.43-5.89-7.89-2.61-9.31,2.83-8.88-2.56-14.27-8.89-10.53-4.32,1.47-2.49-2.65L254,304l-.78-3.05,3.89-6.67-7.52-2.57-4.68,7.15-1.75-1-10.42,5.14-2.49-3.42-11.93-5.45-2.15-3.83,0-15.14-6.77-16.82,4.44-4.93-2.12-3.44,1.34-3.34-11.56-6,1.07-2.9-3.69-5.78h0l7.24-2.75L213.4,233l7.45-.94,3.19,9.09,6,3.23,7.92-9.9,4.75-.7h0v-1.05h0l4.36-4ZM145.21,245l1.19-1.56-4.93-6.05,1.79-1.49-1.62-2.6,4.55-2.64,1.5,1.48.05-1.94,3,2.35,4.52-1.11-.11-2L162,227l-4-5.34,10.87-4.55,2.46,2.05-1.07,5.41,3.57.75L172,227.16h0l-7.2,6-6.37,1.8,1.08,3.55-6.17,10.27Z" transform="translate(-12.5 -20.5)"/><path id="BE-WLG" class="cls-1" d="M628.31,216.73l1.37,7.91-3.14,6.52h0L632,234h0l.83.1h0l2.35-2.17,2.16,1.61h0l.24.75h6.54l6.15,8.85,6.78-.84,3.7,1.94,4.78-6.83-3.12-5.62h0l4.23,1.21,7.59-3.17,3.3,2.5,6.77-.46,3.69,3-.35,6.89,1-2.57,12.13,1.62,11.33,19.1-2.41,2.22,2.55,2.88-1.16,1.58,3.52-1.77,12.11,1.74-4.33,10-3.11-.29L710.88,285l.38,4.1,3,1.38L713,293.28l3.31,1.53,3.09,6.85,7.52-2.65,13.7,4.42-1.73,7.08,5.35,2.11.75,4.92-6,15,11.27,11.94-.51,3.42-7.17,2.15-.21,2.75-4.93-5-4.28,1-4.64,13.74-11,2.63-3.11,5.2-3.51.61-1.62,3.83L713.31,385,705.68,387l-2.22,5.76,3.57,3.11-2.45,3.27-4.58-1.6,2.15-3.45-2-4.62-5.48-1.31-.26,4-3.22.79-5.09-2.85L685,384.88h0l1.62-6L683,379,682.5,350l-4.58-1.71-.69-2.53-19.91-4.56-1.94,5.36,3.07,3.49-4.09,8.84h.9l5.22.4-6.7,5-5.21-.93-.64,2.63-1.41-2.76L641,362.4l-7.36,1.7,4.26-10.51-4-.08-3.7-7.44,3.07-7.52-8.49.32.76-3.21-7.43-.72-6.81-7.36-9.62,1.76-4.21-8.68L590,325.37l-8.1-5.93L579.49,324h2.7l1.31,3-6.19,6h0l-7.13-2.4-9.25,6.19-2.76-3.44,1-4.22-8.89-2.61L548,323l2.38-5.8-6.46-11-6,2.78-2.15-3.83,1.75-1.39-4.66-.8-.83-3.29,2.15-2.47-4.24,2.25-3.74-2.78-.36-4.25-9.73-.7,3-2.09-1-5.33-3.5-7.45-8.24-8,.89-6.46h0l3.21-6.15-.18-8.08,2.68-2.24-4.07-5.67,4-2.28.59-4.71h0l4.52,2.77-.42,4.25,4.35,4.6,5.31-.54h0l11.07,3.57,2.61-2.36-2.18-2.77,1.14-2.53,9.49,1.75,1.43-2.53,3.41,3.13,3-3.53,4.8,3.25,7.59-7.93,6.49-.51,5.25,7.79,5-.26,2.39-5,2.65,3.95,8-4.89.43-4.53h0l1,.49h0l13.19-4.93,7.43-8.18,5.48.38.38-2.05h0Z" transform="translate(-12.5 -20.5)"/><path id="BE-VLI" class="cls-1" d="M643.81,228.33l4.26,3.31,6.22-2.29.85,2.72,6-4,1.18,3.74h0l3.12,5.62-4.78,6.82-3.7-1.93-6.78.83-6.15-8.84h-6.54l-.24-.76h0L635.13,232l-2.35,2.17h0L632,234h0l-5.41-2.88h0l9.71-.65,4.89-5.92,2.67,3.75ZM601.35,90.66l3.79,3.56.69,11.54,15.44,6.54,1.1,3.45,18.23.38,2,8.68,8-4.37,5.17,6.46L648,134.08l3.81,5.43-6.16,1.76.74,8.15-4.46-.33-2.67,7.72,3.08,2.9-1.69,6.87-7.73,9.59,1.32,2,3.86-1.29,1.08,2.62-5.89,11-4-.3-3.61,7.9L620,200.68l.76,11.89,6.62,4.12h0l-.39,2.05-5.48-.38-7.42,8.18-13.19,4.93h0l-1-.49h0l-.43,4.52-8,4.9-2.65-4-2.39,5-5,.28-5.25-7.8-6.49.51-7.59,7.93-4.8-3.26-3,3.52-3.41-3.11L549.43,242l-9.51-1.73-1.14,2.53,2.18,2.77-2.61,2.37-11.08-3.57h0l3.29-7.12-3.09-1.59,1.06-4.22h0l1.42-1.83h0l-1.14-6,7.28-6.09h0l-1.21-.05h0L532.26,216l1-9,3.12-8.23,3.79.51,1.59-7.18-3.23-2.67-5.36.13-.53-2.24h0l-3.48,1.32h0l-3.54,2-2.32-3.35-2.2,1.28-3.76-7,5.77-4.7.57-7,7.78-3.08L530,160.47l1.88-.95.36,2.33L537,159.5l-6.87-6.93-6.49.81.57,6.26-4.3,2.44-2.41-2.68-3.5,1.25-2.27-5.25-4.89,1.25h0l4.93-6.18.41-4.76,14.19-3,6-8.61,4.84-.3h0l1.39-.24h0l4.53-.57,2.1-4.67,4.82,1.82,4.75-4.75-.24-9-7.92-9.94.36-7.09,3.58-4h0L567.32,95l1.7-3.32,12.2,3.27,11.7-10.37,5.2,1.36Z" transform="translate(-12.5 -20.5)"/><path id="BE-WLX" class="cls-1" d="M577.31,333l6.19-6-1.31-3h-2.7l2.41-4.54,8.1,5.93,7.49-4.71,4.2,8.68,9.63-1.76,6.81,7.36,7.43.72-.76,3.21,8.49-.32-3.07,7.52,3.7,7.44,4,.08-4.26,10.51,7.36-1.7,5.51.83,1.41,2.76.64-2.63,5.21.93,6.7-5-5.22-.4h-.9l4.09-8.84-3.07-3.49,1.94-5.36,19.91,4.56.69,2.53L682.5,350,683,379l3.57-.08-1.61,6h0l-9.9,2.73-1,11-10.88,5.2-1.63,9.05-5.65,5,2.59,3.26-1.67,4.75-6.94,4.31,3,8.42-5.16,4.65-5.27.67-2.22,11.77-4.68,4.54,8.32,5.39-1.62,3.06-3.32-1.35.91,4.09-2.32.93,1.93,1.63-3,2.93,2.36,11.93,5.78-1.14,7.12,12.67-.68,6.51,6.54-.84,3.51,4.39-3.51,8.55,7.74,3.34-.77,7-3.25.55-2.11,7.07-4.46,3.28.66,2.29,3.09-.16,0,3.59-5,5.45-4.18,2L639.54,549l-2.28,6-16.42-3.28-5.82,6-.74,5.58-3.3-4-6.05-1.91-2.57,3.45-9.58,2.07-2.16,2.89-3.82-5.4,2.89-2.38-.22-3.18-4-3.38,2.22-4-2.89-.71L583.25,540l-13.74-9.17-1.74,3.66L563.54,536l-1.32-4.81,4.31-6.44-9.48-10.12-1.59-1.11-4.06,3L545,513.8l-6.7.63-.7-5.89-5.94.61-5.67-13-5.12.31L511.3,491l-2.16-4.7-4.56-.39h0l3.28-5.88.25-7.7,11.64-7.95-2.41-2.53,5-5.06,8.14-2.8-3.72-3.7.66-6.18-7.11-6.35-8.72,1.06.31-4.4L505.42,426l2.62.4,1.46-4.53,2.44,1.72,5.25-4.08.76-6,2.31-.13-1.33-2.95,2.34-9.31L523,409l21.29-.93L556,403.65h0v-1.06h0l-4.57-4.33,7.16-3.93-.58-2.89L551.8,384l1.14-1.51-3-.72,2.12-2.5-6.61-2.87L554,373.5l-1.1-3,4.85-2.42,2.58,1.84,3.09-1.57,13.92-11.18-.94-7.39-4.06-.5-2.78,3.27-1-2.42,8.83-5.67-2.28-4.08,3.38-4.3Z" transform="translate(-12.5 -20.5)"/><path id="BE-WNA" class="cls-1" d="M438,289.57l-.49-5.34,4.38-2.06,7.46,2.44,4.18-1.67-2.35-7,1.5-3.73,6.86,3.3,1.48-3.76,3.52-.64,1.64,5.82,4.53-3.4,3.63,3-.65-3,19.34-5.6-.26-1.85,4.91.43,4.07-5.37,5.5,1.29h0l-.89,6.46,8.24,8,3.5,7.45,1,5.33-3,2.09,9.73.7.36,4.25,3.74,2.78,4.24-2.25L532,299.68l.83,3.29,4.66.8-1.75,1.39,2.15,3.83,6-2.78,6.46,11L548,323l2.29,3.5,8.89,2.61-1,4.22,2.76,3.44,9.25-6.19,7.13,2.4h0l1.19,3.15-3.38,4.3,2.28,4.08-8.83,5.67,1,2.42,2.78-3.27,4.06.5.94,7.39-13.92,11.18L560.35,370l-2.58-1.84-4.85,2.42,1.1,3-8.54,2.87,6.61,2.87-2.12,2.5,3,.72L551.8,384l6.24,7.47.58,2.89-7.16,3.93,4.57,4.33h0v1.06h0l-11.72,4.46L523,409l-1.75-7.91-2.34,9.31,1.33,2.95-2.31.13-.76,6-5.25,4.08-2.44-1.72L508,426.4l-2.62-.4,6.45,8.42-.31,4.4,8.72-1.06,7.11,6.35-.66,6.18,3.72,3.7-8.14,2.8-5,5.06,2.41,2.53-11.64,7.95-.25,7.7-3.28,5.88h0l-6.79,3.8-13.24-1.58,4-7-4.73-12.43,2.33-.08,4.69-11.22-7-10.23-9.62-2.62-.24-2.81.56-3.62,4.32-3.13.25-8.31,3.67-3.28-3.6-7.14,3.07-.58,2.22-9.12,3.57,3.61-.74-8.42,4.88-4.51-3.32-4.3-7-.34-1.5-3.78-10.88,8.45-2.15,6.61L457.6,411l-2.32,4.9,3.33,4.08-2.64,6.7,1.48,7.95-16.14,2.33-9.68,4.63-2.83,4.92-15.52,2.35h0l2-4.25-5.14-10.72-.82-12.64-3.21-1.11-.82-15.33,2.53-3.84-6.57-12.09,5.78-4.14-.38-7.55h.59l.34-4.36h0l.14-.9h0l-2.43-1.77h-1.67l-1.65-.95-3.7,4.17-9.82-7.63,7.08-5.75,5.12.48,1.86-4.37,4.79-1.19.85-4,9.53,1.6,4-6.21,3.61-.06,2.54,3.42,12.78-2.86-2.34-8.21,1.5-6,2.78-1.31-3.47-3.47,3.18-1.07,2.34-5.8-7.81-4.48,4.78-8.6-2.31-5.36,1.37-1.63-5.29,2.73-.67-2.81h0v-.88h0Z" transform="translate(-12.5 -20.5)"/><path id="BE-VOV" class="cls-1" d="M379.75,70.13l5.51,3.16L387,84l7.11,4.9-5.48,8.14L391.11,110l3.72,1.14-1.25,4,2.15,1.06.11,7.68-2.93,7.95-11.23,3.09-6.22-1.95-6.27,5.61,2,10.81,2,.89L371.87,155l3.75,2L379,154.2l1.29,1.7h0l-.64,5L377.21,162l1.86,3.54-5.9,4.92h0l-1.85.06h0l-4.58-1.68-2.69,5.7,2.27,7.73h0l.87,2h0l-4.06,3.86-7.52-4,.84,6.35L352.38,193l2.39,2.81-1,3.55-7.34,10.19,4.73,1L350,222.74l-8,5.38-2.9-2.21-2.13,3.34-6.3-2.78-2.93,4.69,3.41,7.12-4.94.84h0l-1.51-.08h0l-3.11-.76h0l-2.76-5-7,2.57-4.81-2.3-6.11.61-3.66-6.32.85-2.69-7.6,3.66-.7-3.9-5.62,2.61-8.08,13.83h0l-.94-.3h0l-2.51-2.67-11.67-.4-.56-8.31-7.6,1.81-5.83-2.72h0l10.58-10.32-3.76-5,2.14-3-10.14-8.73,4.43-8.07-3.22-2.74-4.61,2.69-2.82-1.89,3-3.58-1.32-3.28,4.41,0-2.15-2.92,3.65-.59-7.95-3.76,5.13-2.43-3-4.11,4.37-6.73-4.46-8.93h1l2.42-2.24-1.85-1.79-17.76-12.19,7.32-4.88,6.21-11.8-4.3-7-4.35-1.5,4.11-3-3-6.69,5.28-2.58-2.76-10.2h0l8,8.13,16.84-.32-2-11.2,3.79.84L264.69,86l3.37,2.15,1.55-5.2,17.81,8.19,14,3.43,3.08,2.12-.76,11.06,11.47.9,4.94-3.24-.08,6.17,7-5.35,1.33,2.12,3.87-1.11,9.67-7.86,7.88.33L368,86Z" transform="translate(-12.5 -20.5)"/><path id="BE-VBR" class="cls-1" d="M506.87,156.63l4.89-1.25,2.27,5.25,3.5-1.25,2.41,2.68,4.29-2.44-.56-6.25,6.49-.82,6.87,6.93-4.82,2.35-.36-2.32-1.88.94,1.54,6.36-7.78,3.08-.57,7-5.77,4.7,3.76,7,2.2-1.27,2.32,3.35,3.54-2h0l3.48-1.33h0l.53,2.24,5.36-.13,3.23,2.67-1.59,7.18-3.79-.51-3.12,8.23-1,9.05,2.62,1.43h0l1.21.05h0l-7.28,6.09,1.14,6h0l-1.42,1.83h0l-1.06,4.22,3.09,1.59-3.29,7.12h0l-5.31.54-4.35-4.6.43-4.24-4.52-2.78h0l-6.4-5.32-9.69,7.24-3.2-1.78,0-5.11H493l-10.76,1.53,0-3.44-3.87-.25-3.65-5.81-5.36-2.24-6,1.24-1.62,3.52-.69-1.83-3.19,1.72-8.56-2.64-.89,7.21,3.07,4.49-3.61,3.5-5.17.4-1.46-6.13-3.56,4.55-8.36,2.14-.12,3-5.58-4,.16-3.52L403.08,239h0v3.36h0l-3.67-.08-2.85-4.67-1.77,1.66,1.79,3.15-3.57-.94L391.64,247h-7.56l-2.55,2.82-6.77-5.26-4.83.54-4.19-6.37-9.36,6.39h0L354,243.63h0V243h0l-4.42,5.54-1.5-1.94L332.8,250h-1.14l-7.26-.56-3.74-5.1,1-6.08h0l3.11.75h0l1.5.08h0l5-.83-3.42-7.13,2.94-4.68,6.3,2.77,2.13-3.33,2.91,2.21L350,222.7l1.14-12.15-4.72-1,7.33-10.2,1-3.56L352.37,193l4.06-2.5-.84-6.35,7.53,4,4.06-3.86h0l-.87-2h0L364,174.49l2.68-5.7,4.59,1.67h0l1.84-.05h0l5.9-4.92L377.19,162l2.48-1.06.63-5h0l7-1.55,11.3,4.39-.56,2.84,6.24-3.81L403,162.16l2.8.93,1,4.08,9.84-2.72,4.57,3.81,1.79-4.62,6.81,4.27,3.45-3.19,5.58,3.65,2.76-.57,1-4.74L456,159.19,460,162l-1.69,4.27,6.14-7.38,4.72.43,5.26-3.87,4.44,7.52,13.7-2.87,5.54-4.09h.8l5.31-2.35,2.68,3ZM397.66,192.31h0l-1.1.24h0l-2.44,1.73h0l-.94.54h0l-2.93,2.73h0l-2.87,4.24.44,8.27-4.38.22L383,212.7h0l-1.72,2.24h0l.1.32h0l.43-.43h0l5.78,2.92,4-1.19,4.76,10,8.67,2.9,13.34-6.22h0l2.22-.94h0l2.42-.22-3.24-3.5h0l-2.71-.3h0l-.67-1.91,4.17-2.66-2.58-7.9-6.37-4.24,2.51-3L412.83,194h0l-1.23-1.72h0l-1.74-1.19h0l-2.22-1.62h0l-3.63,4-6.35-1.16Z" transform="translate(-12.5 -20.5)"/><path id="BE-VWV" class="cls-1" d="M231.6,66.05l2.72,9.29-4.3,5.2,2.91,3.54-1.52,1.06,2.39,6.31,2.76,10.2-5.28,2.58,3,6.69-4.11,3,4.35,1.5,4.3,7-6.21,11.8-7.32,4.88,17.76,12.19,1.85,1.79-2.42,2.24h-1l4.46,8.93L241.54,171l3,4.11-5.13,2.43,7.95,3.76-3.65.59,2.15,2.92-4.41,0,1.32,3.28-3,3.58,2.82,1.89,4.61-2.69,3.22,2.74-4.43,8.07,10.14,8.73-2.14,3,3.76,5L247.1,228.74l-4.39,3.93v1l-4.74.7-7.92,9.9-6-3.23-3.2-9.09-7.45.94-7.24-3.84-7.24,2.74-4.64-9.12-4.19,1-2.38-2-4.84,5.84-4-2.13-4.46,3L172,227.18l1.79-1.89-3.56-.75,1.05-5.42-2.45-2-10.87,4.55,4,5.33-6.84,2.44.11,2.06-4.53,1.09-2.95-2.34-.05,1.94-1.5-1.47-4.56,2.63,1.62,2.61-1.79,1.48,4.93,6L145.21,245l-2.69-4.17-4.94,1.89-4.81-2.93-1.57-6.59L121.65,222l-.2-4.74-7.69-.89-1.57-2.26-5.69,2.59-3.3-9.63-2.79-.4,2.16-4.18-.58-8.9-.38-4.12-2.78-1.71,7.09-7.48-4.21-11.6L96,165.34,90.89,141.9l37.61-21,53-36.87,18.36-7.92,5.36-1.82L207,73.13l.57.14Z" transform="translate(-12.5 -20.5)"/></g><g id="Layer_4" data-name="Layer 4"><rect class="cls-2" x="0.5" y="0.5" width="816" height="557" rx="12" ry="12"/></g><g id="Legend"><path d="M39.45,481.5l1,1.63v5a2.24,2.24,0,0,0,.22,1.07,1.64,1.64,0,0,0,.69.69l.28.15a.46.46,0,0,1,.24.42.42.42,0,0,1-.18.35,1,1,0,0,1-.61.12H38.93c-.57,0-.85-.16-.85-.48a.36.36,0,0,1,.09-.26,1.54,1.54,0,0,1,.39-.27,1.87,1.87,0,0,0,.89-1.79Zm3.88-3.26,4.94,8.57v4.09H45.74l-6.3-10.85a2.58,2.58,0,0,0-.34-.49.7.7,0,0,0-.33-.21l-.35-.13a.42.42,0,0,1-.23-.16.5.5,0,0,1-.08-.27.55.55,0,0,1,.08-.29.5.5,0,0,1,.23-.2,3.36,3.36,0,0,1,.85-.06Zm4.94,7.09-1-1.66V481.1a2.51,2.51,0,0,0-.23-1.19,1.76,1.76,0,0,0-.8-.71A.78.78,0,0,1,46,479a.51.51,0,0,1-.08-.28.4.4,0,0,1,.17-.36.87.87,0,0,1,.52-.12h2.32a.91.91,0,0,1,.62.15.46.46,0,0,1,.16.35.4.4,0,0,1-.09.29,1.5,1.5,0,0,1-.42.27,1.54,1.54,0,0,0-.74.77,2.41,2.41,0,0,0-.18,1Z" transform="translate(-12.5 -20.5)"/><path d="M55.91,490.9H51.54a.93.93,0,0,1-.52-.12.42.42,0,0,1-.18-.36.48.48,0,0,1,.37-.5l.36-.13a.24.24,0,0,0,.1-.1.77.77,0,0,0,.12-.48v-9.28a.72.72,0,0,0-.12-.47.22.22,0,0,0-.1-.11l-.36-.13a.48.48,0,0,1-.37-.5.4.4,0,0,1,.18-.35.85.85,0,0,1,.52-.13h4.62a.84.84,0,0,1,.51.13.4.4,0,0,1,.18.35.48.48,0,0,1-.37.5l-.36.13a.22.22,0,0,0-.1.11.72.72,0,0,0-.12.47v9.28a.77.77,0,0,0,.12.48.24.24,0,0,0,.1.1l.36.13a.48.48,0,0,1,.37.5.42.42,0,0,1-.18.36.92.92,0,0,1-.51.12Z" transform="translate(-12.5 -20.5)"/><path d="M63.48,478v1.12a1.17,1.17,0,0,0-.82.48,2.06,2.06,0,0,0-.27,1.15v8.06a1.29,1.29,0,0,0,.09.45,1.2,1.2,0,0,0,.23.4.86.86,0,0,0,.31.27,1.51,1.51,0,0,0,.46.1v1.13a5.29,5.29,0,0,1-3.13-.93A5,5,0,0,1,58.59,488a9.2,9.2,0,0,1-.21-5.92A6.18,6.18,0,0,1,59.5,480a5.75,5.75,0,0,1,1.77-1.44,4.19,4.19,0,0,1,2-.55Zm.73,1.13V478a5.73,5.73,0,0,1,.74.16c.18,0,.53.17,1,.35a2.69,2.69,0,0,0,.63.17.44.44,0,0,0,.41-.25l.12-.22a.41.41,0,0,1,.42-.22.49.49,0,0,1,.38.15.62.62,0,0,1,.14.43v3.86a.74.74,0,0,1-.17.54.53.53,0,0,1-.38.17.46.46,0,0,1-.36-.15,1.09,1.09,0,0,1-.22-.46,7,7,0,0,0-.38-1.15,5,5,0,0,0-.9-1.43,2.89,2.89,0,0,0-.69-.57A2,2,0,0,0,64.21,479.12Zm0,12V490a3.44,3.44,0,0,0,1.52-.55,2.82,2.82,0,0,0,.76-.71,3.3,3.3,0,0,0,.5-1,.91.91,0,0,1,.22-.42.42.42,0,0,1,.33-.13.5.5,0,0,1,.37.17.59.59,0,0,1,.15.41,2.31,2.31,0,0,1-.32,1,4.77,4.77,0,0,1-.83,1.09,4.28,4.28,0,0,1-1.25.91A3.76,3.76,0,0,1,64.24,491.15Z" transform="translate(-12.5 -20.5)"/><path d="M74.36,479a1.23,1.23,0,0,0-.67.46,1.49,1.49,0,0,0-.2.84v8.29a2.13,2.13,0,0,0,.23,1.15,1,1,0,0,0,.64.4v1a5.27,5.27,0,0,1-3.45-1.55,6.74,6.74,0,0,1-1.81-5,8.4,8.4,0,0,1,.48-2.92A5.6,5.6,0,0,1,71,479.46,4.93,4.93,0,0,1,74.36,478Zm.76,0v-1a5.11,5.11,0,0,1,1.83.41,5.16,5.16,0,0,1,1.55,1.06,7.87,7.87,0,0,1,.08,10.14,5.26,5.26,0,0,1-3.46,1.55v-1a1,1,0,0,0,.37-.14.78.78,0,0,0,.25-.26,2.07,2.07,0,0,0,.25-1.15v-8.29a1.56,1.56,0,0,0-.17-.78.86.86,0,0,0-.26-.3A1.63,1.63,0,0,0,75.12,479Z" transform="translate(-12.5 -20.5)"/><path d="M86.59,490.9H82.22a.92.92,0,0,1-.51-.12.42.42,0,0,1-.18-.36.48.48,0,0,1,.37-.5l.36-.13a.24.24,0,0,0,.1-.1.77.77,0,0,0,.12-.48v-9.28a.72.72,0,0,0-.12-.47.22.22,0,0,0-.1-.11l-.36-.13a.48.48,0,0,1-.37-.5.4.4,0,0,1,.18-.35.84.84,0,0,1,.51-.13h4.7a1.16,1.16,0,0,1,.58.11.45.45,0,0,1,.24.39.49.49,0,0,1-.44.51l-.43.11a.6.6,0,0,0-.14.11.83.83,0,0,0-.14.52Zm.76,0v-1a3.44,3.44,0,0,0,.71-.18,1.9,1.9,0,0,0,.51-.3,2.87,2.87,0,0,0,.71-.84,5,5,0,0,0,.53-1.2,2.12,2.12,0,0,1,.28-.67.41.41,0,0,1,.36-.16.4.4,0,0,1,.38.21.91.91,0,0,1,.06.41v3.77Z" transform="translate(-12.5 -20.5)"/><path d="M96.72,478.24V490.9H92.35a.93.93,0,0,1-.52-.12.42.42,0,0,1-.18-.36.48.48,0,0,1,.37-.5l.36-.13a.32.32,0,0,0,.11-.1.85.85,0,0,0,.11-.48v-9.28a.79.79,0,0,0-.11-.47.28.28,0,0,0-.11-.11l-.36-.13a.48.48,0,0,1-.37-.5.4.4,0,0,1,.18-.35.85.85,0,0,1,.52-.13h4.37ZM97.5,485v-1.07a2.44,2.44,0,0,0,.79-.57,1.8,1.8,0,0,0,.38-.81,1.09,1.09,0,0,1,.2-.49.43.43,0,0,1,.34-.14.41.41,0,0,1,.41.24,1.49,1.49,0,0,1,.06.54v3.54a1.38,1.38,0,0,1-.09.6.4.4,0,0,1-.36.17.42.42,0,0,1-.33-.13,1,1,0,0,1-.2-.44,2.24,2.24,0,0,0-.45-1A1.43,1.43,0,0,0,97.5,485Zm0-6.75h3.74v3.28a.64.64,0,0,1-.11.42.43.43,0,0,1-.35.13.47.47,0,0,1-.3-.08.91.91,0,0,1-.18-.35,3.51,3.51,0,0,0-1-1.64,3.23,3.23,0,0,0-1.77-.67Zm0,12.66v-1a4.24,4.24,0,0,0,1-.26,2.93,2.93,0,0,0,.79-.51,3.21,3.21,0,0,0,.64-.71,5.61,5.61,0,0,0,.45-1,1,1,0,0,1,.21-.4.43.43,0,0,1,.31-.11.41.41,0,0,1,.36.15,1.05,1.05,0,0,1,.1.54v3.27Z" transform="translate(-12.5 -20.5)"/><path d="M105.19,478a1.79,1.79,0,0,1,1.36.62,2.23,2.23,0,0,1,.43.7,2.43,2.43,0,0,1,.15.83,3.36,3.36,0,0,1-.57,1.79,5.11,5.11,0,0,1-1.54,1.53,2.64,2.64,0,0,1-1.28.54.41.41,0,0,1-.31-.12.37.37,0,0,1-.12-.29.54.54,0,0,1,.35-.46,4.46,4.46,0,0,0,1.24-.86c.25-.27.37-.46.37-.59s-.09-.19-.28-.21l-.12,0h-.14a1.51,1.51,0,0,1-1-.56,1.75,1.75,0,0,1-.37-1.14,1.81,1.81,0,0,1,.12-.64,2,2,0,0,1,.34-.55A1.78,1.78,0,0,1,105.19,478Z" transform="translate(-12.5 -20.5)"/><path d="M113.43,478v1.07a1.74,1.74,0,0,0-.87.48,1.17,1.17,0,0,0-.3.82,1.36,1.36,0,0,0,.25.81,2.36,2.36,0,0,0,.81.66c.26.14.85.41,1.76.82a10.34,10.34,0,0,1,1.3.65,4.89,4.89,0,0,1,.87.73,3.84,3.84,0,0,1,1.09,2.74,4.28,4.28,0,0,1-.59,2.19,4.15,4.15,0,0,1-1.64,1.55,5.16,5.16,0,0,1-1.21.47,4.78,4.78,0,0,1-1.24.17v-1a2.46,2.46,0,0,0,1.16-.55,1.24,1.24,0,0,0,.36-.94,1.4,1.4,0,0,0-.56-1.09,6.36,6.36,0,0,0-1.41-.76q-1.14-.51-1.56-.72a5.7,5.7,0,0,1-.81-.5,3.86,3.86,0,0,1-1.75-3.31,4.36,4.36,0,0,1,.44-2,3.73,3.73,0,0,1,1.21-1.45A5.07,5.07,0,0,1,113.43,478ZM113,490.1v1a3.94,3.94,0,0,1-1.68-.43c-.23-.11-.38-.18-.47-.21a.77.77,0,0,0-.25,0,.51.51,0,0,0-.28.06,2,2,0,0,0-.3.3.48.48,0,0,1-.36.2c-.35,0-.52-.26-.52-.79v-3.38a.67.67,0,0,1,.15-.44.47.47,0,0,1,.37-.19.38.38,0,0,1,.32.11,1,1,0,0,1,.2.44,6,6,0,0,0,.62,1.5,5,5,0,0,0,.94,1.18A2.61,2.61,0,0,0,113,490.1Zm1.22-11v-1a4.9,4.9,0,0,1,1,.14,9.28,9.28,0,0,1,1.16.42.88.88,0,0,0,.31.08.29.29,0,0,0,.26-.13l.2-.26a.44.44,0,0,1,.36-.21.41.41,0,0,1,.37.18,1.05,1.05,0,0,1,.12.57v3.06a.69.69,0,0,1-.16.45.51.51,0,0,1-.39.17.57.57,0,0,1-.35-.12.59.59,0,0,1-.13-.18,1.88,1.88,0,0,1-.1-.36,3.88,3.88,0,0,0-.35-.94,4.46,4.46,0,0,0-.58-.86A3.21,3.21,0,0,0,114.17,479.06Z" transform="translate(-12.5 -20.5)"/><path d="M129.61,478.24v10.9a.81.81,0,0,0,.14.52.47.47,0,0,0,.14.12l.43.11a.49.49,0,0,1,.44.51.45.45,0,0,1-.24.39,1.08,1.08,0,0,1-.58.11h-4.7a.92.92,0,0,1-.51-.12.42.42,0,0,1-.18-.36.48.48,0,0,1,.37-.5l.36-.13a.24.24,0,0,0,.1-.1.77.77,0,0,0,.11-.48v-9.28a.72.72,0,0,0-.11-.47.22.22,0,0,0-.1-.11l-.36-.13a.48.48,0,0,1-.37-.5.4.4,0,0,1,.18-.35.84.84,0,0,1,.51-.13h4.37Zm.79,7.81v-1a1.81,1.81,0,0,0,.56-.2.8.8,0,0,0,.29-.31,2.08,2.08,0,0,0,.19-1v-3a2.53,2.53,0,0,0-.06-.65.84.84,0,0,0-.26-.39,1.27,1.27,0,0,0-.73-.33v-1a8.13,8.13,0,0,1,2.82.36A3.51,3.51,0,0,1,135.5,482a4,4,0,0,1-.64,2.34,3.67,3.67,0,0,1-1.76,1.33A8.16,8.16,0,0,1,130.4,486.05Z" transform="translate(-12.5 -20.5)"/><path d="M141.7,478.24V490.9h-4.37a.92.92,0,0,1-.51-.12.42.42,0,0,1-.18-.36.48.48,0,0,1,.37-.5l.35-.13s.07-.05.11-.1a.77.77,0,0,0,.11-.48v-9.28a.72.72,0,0,0-.11-.47c0-.06-.07-.1-.11-.11l-.35-.13a.48.48,0,0,1-.37-.5.4.4,0,0,1,.18-.35.84.84,0,0,1,.51-.13h4.37Zm.78,6.75v-1.07a2.39,2.39,0,0,0,.8-.57,1.91,1.91,0,0,0,.38-.81,1.1,1.1,0,0,1,.19-.49.45.45,0,0,1,.35-.14.42.42,0,0,1,.41.24,1.49,1.49,0,0,1,.06.54v3.54a1.22,1.22,0,0,1-.1.6.37.37,0,0,1-.35.17.42.42,0,0,1-.34-.13,1,1,0,0,1-.19-.44,2.49,2.49,0,0,0-.45-1A1.45,1.45,0,0,0,142.48,485Zm.05-6.75h3.74v3.28a.59.59,0,0,1-.12.42.42.42,0,0,1-.35.13.46.46,0,0,1-.29-.08.7.7,0,0,1-.18-.35,3.52,3.52,0,0,0-1-1.64,3.2,3.2,0,0,0-1.76-.67Zm0,12.66v-1a4.14,4.14,0,0,0,1-.26,3,3,0,0,0,.8-.51,3.15,3.15,0,0,0,.63-.71,4.43,4.43,0,0,0,.45-1,1,1,0,0,1,.22-.4.41.41,0,0,1,.3-.11.4.4,0,0,1,.36.15,1,1,0,0,1,.11.54v3.27Z" transform="translate(-12.5 -20.5)"/><path d="M152.85,478.24v10.9a.81.81,0,0,0,.14.52.47.47,0,0,0,.14.12l.43.11a.5.5,0,0,1,.44.51.45.45,0,0,1-.24.39,1.08,1.08,0,0,1-.58.11h-4.7a.92.92,0,0,1-.51-.12.42.42,0,0,1-.18-.36.48.48,0,0,1,.37-.5l.36-.13a.24.24,0,0,0,.1-.1.77.77,0,0,0,.11-.48v-9.28a.72.72,0,0,0-.11-.47.22.22,0,0,0-.1-.11l-.36-.13a.48.48,0,0,1-.37-.5.4.4,0,0,1,.18-.35.84.84,0,0,1,.51-.13h4.37Zm2.85,6.46A7.72,7.72,0,0,1,157,485a3.1,3.1,0,0,1,.83.43,2,2,0,0,1,.6.69,1.74,1.74,0,0,1,.21.84v1.92c0,.2.07.3.2.3a.16.16,0,0,0,.12,0,1.26,1.26,0,0,0,.15-.16.62.62,0,0,1,.47-.32.45.45,0,0,1,.31.17.47.47,0,0,1,.16.33,1.35,1.35,0,0,1-.27.7,3.17,3.17,0,0,1-.68.74,2.56,2.56,0,0,1-.83.44,3.68,3.68,0,0,1-1.05.13,2.55,2.55,0,0,1-1.91-.7,2.64,2.64,0,0,1-.69-1.95v-2.16a1.36,1.36,0,0,0-.26-.64,1.12,1.12,0,0,0-.77-.38v-1a1.45,1.45,0,0,0,.71-.26.84.84,0,0,0,.25-.38,2.13,2.13,0,0,0,.07-.64V480.6a1.45,1.45,0,0,0-.22-.88,1.58,1.58,0,0,0-.82-.45v-1h.24c.68,0,1.27,0,1.75.07a3.89,3.89,0,0,1,1.92.71,2.83,2.83,0,0,1,1.22,2.46,3,3,0,0,1-.82,2.14,2.88,2.88,0,0,1-.8.58A11.87,11.87,0,0,1,155.7,484.7Z" transform="translate(-12.5 -20.5)"/><path d="M170.89,478.24V490.9h-4.37a1,1,0,0,1-.52-.12.42.42,0,0,1-.18-.36.49.49,0,0,1,.37-.5l.36-.13a.32.32,0,0,0,.11-.1.85.85,0,0,0,.11-.48v-9.28a.79.79,0,0,0-.11-.47.28.28,0,0,0-.11-.11l-.36-.13a.49.49,0,0,1-.37-.5.4.4,0,0,1,.18-.35.87.87,0,0,1,.52-.13h4.37Zm2.88,6.1a10.58,10.58,0,0,1,1.29.33,3.4,3.4,0,0,1,.81.4,2.6,2.6,0,0,1,.95,1.05,3.2,3.2,0,0,1,.33,1.46,3,3,0,0,1-1.17,2.48,3.51,3.51,0,0,1-1.33.65,7.66,7.66,0,0,1-1.91.19h-1.1v-1a1.92,1.92,0,0,0,.58-.11.89.89,0,0,0,.38-.26,1.55,1.55,0,0,0,.31-1.07v-2.11a2.7,2.7,0,0,0-.08-.72,1.12,1.12,0,0,0-.29-.47,1.06,1.06,0,0,0-.34-.24,2.34,2.34,0,0,0-.53-.12v-1a2.6,2.6,0,0,0,.53-.09,1.05,1.05,0,0,0,.35-.21,1.27,1.27,0,0,0,.25-.37,1.15,1.15,0,0,0,.11-.4v-2.12a1.93,1.93,0,0,0-.08-.52,1.5,1.5,0,0,0-.21-.44,1.14,1.14,0,0,0-.39-.31,2,2,0,0,0-.59-.14v-1h1.07a5.18,5.18,0,0,1,3.23.87,2.77,2.77,0,0,1,1,2.19,2.9,2.9,0,0,1-.27,1.23,2.55,2.55,0,0,1-.77,1,3,3,0,0,1-.83.48A9,9,0,0,1,173.77,484.34Z" transform="translate(-12.5 -20.5)"/><path d="M183.61,478.24V490.9h-4.37a1,1,0,0,1-.52-.12.42.42,0,0,1-.18-.36.49.49,0,0,1,.37-.5l.36-.13a.32.32,0,0,0,.11-.1.85.85,0,0,0,.11-.48v-9.28a.79.79,0,0,0-.11-.47.28.28,0,0,0-.11-.11l-.36-.13a.49.49,0,0,1-.37-.5.4.4,0,0,1,.18-.35.87.87,0,0,1,.52-.13h4.37Zm.78,6.75v-1.07a2.33,2.33,0,0,0,.79-.57,1.8,1.8,0,0,0,.38-.81,1.09,1.09,0,0,1,.2-.49.43.43,0,0,1,.34-.14.41.41,0,0,1,.41.24,1.42,1.42,0,0,1,.07.54v3.54a1.35,1.35,0,0,1-.1.6.4.4,0,0,1-.36.17.42.42,0,0,1-.33-.13,1,1,0,0,1-.2-.44,2.24,2.24,0,0,0-.45-1A1.39,1.39,0,0,0,184.39,485Zm0-6.75h3.74v3.28a.64.64,0,0,1-.11.42.42.42,0,0,1-.35.13.47.47,0,0,1-.3-.08.91.91,0,0,1-.18-.35,3.43,3.43,0,0,0-1-1.64,3.2,3.2,0,0,0-1.77-.67Zm0,12.66v-1a4.24,4.24,0,0,0,1-.26,2.93,2.93,0,0,0,.79-.51,3.21,3.21,0,0,0,.64-.71,4.43,4.43,0,0,0,.45-1,1.1,1.1,0,0,1,.21-.4.45.45,0,0,1,.31-.11.41.41,0,0,1,.36.15,1.05,1.05,0,0,1,.1.54v3.27Z" transform="translate(-12.5 -20.5)"/><path d="M194.76,490.9h-4.37a1,1,0,0,1-.52-.12.42.42,0,0,1-.18-.36.49.49,0,0,1,.37-.5l.36-.13s.07-.05.11-.1a.85.85,0,0,0,.11-.48v-9.28a.79.79,0,0,0-.11-.47c0-.06-.07-.1-.11-.11l-.36-.13a.49.49,0,0,1-.37-.5.4.4,0,0,1,.18-.35.89.89,0,0,1,.52-.13h4.69a1.2,1.2,0,0,1,.59.11.45.45,0,0,1,.24.39.5.5,0,0,1-.45.51l-.42.11a.45.45,0,0,0-.14.11.83.83,0,0,0-.14.52Zm.75,0v-1a3.75,3.75,0,0,0,.72-.18,1.85,1.85,0,0,0,.5-.3,3,3,0,0,0,.72-.84,5.45,5.45,0,0,0,.53-1.2,2.46,2.46,0,0,1,.27-.67.43.43,0,0,1,.37-.16.41.41,0,0,1,.38.21,1,1,0,0,1,.05.41v3.77Z" transform="translate(-12.5 -20.5)"/><path d="M204.65,478v1c-.55.13-.82.56-.82,1.3V489a1.69,1.69,0,0,0,.14.76,1,1,0,0,0,.51.39v1a3,3,0,0,1-.54,0,5.68,5.68,0,0,1-.66-.19,5.3,5.3,0,0,1-1.76-1,5.82,5.82,0,0,1-1.3-1.64,7.55,7.55,0,0,1-.79-3.54,8.29,8.29,0,0,1,.71-3.5,5.69,5.69,0,0,1,2-2.41,5.3,5.3,0,0,1,1.63-.73A3.66,3.66,0,0,1,204.65,478Zm4.95,11.36a5.41,5.41,0,0,1-1,.76,7.72,7.72,0,0,1-1.16.61,6.36,6.36,0,0,1-1.11.31,5.55,5.55,0,0,1-1.07.12v-1a1.43,1.43,0,0,0,.4-.16.73.73,0,0,0,.23-.26,1.46,1.46,0,0,0,.16-.73v-2.71a.77.77,0,0,0-.14-.52.36.36,0,0,0-.13-.12l-.43-.11a.5.5,0,0,1-.44-.52.42.42,0,0,1,.21-.37,1.23,1.23,0,0,1,.61-.13h3.7a1.06,1.06,0,0,1,.59.12.44.44,0,0,1,.18.4.59.59,0,0,1-.07.29.89.89,0,0,1-.26.25.71.71,0,0,0-.23.24,1.24,1.24,0,0,0-.05.41ZM205.41,479v-1a8.53,8.53,0,0,1,2.49.55,1.19,1.19,0,0,0,.44.14.37.37,0,0,0,.23-.07,3.94,3.94,0,0,0,.32-.4.51.51,0,0,1,.42-.23.43.43,0,0,1,.36.14.85.85,0,0,1,.11.48v3.61c0,.47-.17.7-.52.7a.53.53,0,0,1-.39-.13,1.54,1.54,0,0,1-.23-.55,6.5,6.5,0,0,0-.5-1.21,6.08,6.08,0,0,0-.7-1.09,2.35,2.35,0,0,0-.85-.68A3.27,3.27,0,0,0,205.41,479Z" transform="translate(-12.5 -20.5)"/><path d="M216.67,490.9h-4.38a.92.92,0,0,1-.51-.12.42.42,0,0,1-.18-.36.48.48,0,0,1,.37-.5l.36-.13a.24.24,0,0,0,.1-.1.77.77,0,0,0,.11-.48v-9.28a.72.72,0,0,0-.11-.47.22.22,0,0,0-.1-.11l-.36-.13a.48.48,0,0,1-.37-.5.4.4,0,0,1,.18-.35.84.84,0,0,1,.51-.13h4.62a.85.85,0,0,1,.52.13.4.4,0,0,1,.18.35.49.49,0,0,1-.37.5l-.36.13a.28.28,0,0,0-.11.11.79.79,0,0,0-.11.47v9.28a.85.85,0,0,0,.11.48.32.32,0,0,0,.11.1l.36.13a.49.49,0,0,1,.37.5.42.42,0,0,1-.18.36.93.93,0,0,1-.52.12Z" transform="translate(-12.5 -20.5)"/><path d="M222.21,480.6l.47,1.92-1.64,6a1.69,1.69,0,0,0-.07.48.87.87,0,0,0,.54.84l.33.15a.47.47,0,0,1,.31.46c0,.31-.23.46-.68.46h-2.36a.87.87,0,0,1-.54-.14.47.47,0,0,1-.2-.39c0-.18.14-.33.41-.45a3,3,0,0,0,.56-.3,1.57,1.57,0,0,0,.35-.37,3.3,3.3,0,0,0,.42-1Zm.64-2.36h3.74l2.58,10.9a3,3,0,0,0,.17.51.61.61,0,0,0,.37.29.94.94,0,0,1,.33.2.41.41,0,0,1,.09.28q0,.48-.72.48h-4.63a.71.71,0,0,1-.45-.13.44.44,0,0,1-.16-.36.47.47,0,0,1,.07-.28,1.12,1.12,0,0,1,.34-.23.71.71,0,0,0,.26-.2.51.51,0,0,0,.07-.28,1.14,1.14,0,0,0,0-.28l-.29-1.35H222l.25-1.1h2.08l-1.71-7.54Z" transform="translate(-12.5 -20.5)"/><path d="M232.26,481.5l1,1.63v5a2.24,2.24,0,0,0,.22,1.07,1.64,1.64,0,0,0,.69.69l.28.15a.46.46,0,0,1,.24.42.42.42,0,0,1-.18.35,1,1,0,0,1-.61.12h-2.14c-.56,0-.85-.16-.85-.48a.36.36,0,0,1,.09-.26,1.54,1.54,0,0,1,.39-.27,1.87,1.87,0,0,0,.89-1.79Zm3.89-3.26,4.93,8.57v4.09h-2.53l-6.3-10.85a2.58,2.58,0,0,0-.34-.49.7.7,0,0,0-.33-.21l-.35-.13a.4.4,0,0,1-.22-.16.44.44,0,0,1-.09-.27.57.57,0,0,1,.31-.49,3.36,3.36,0,0,1,.85-.06Zm4.93,7.09-1-1.66V481.1a2.51,2.51,0,0,0-.23-1.19,1.76,1.76,0,0,0-.8-.71.78.78,0,0,1-.27-.2.51.51,0,0,1-.08-.28.4.4,0,0,1,.17-.36.87.87,0,0,1,.52-.12h2.32a.9.9,0,0,1,.62.15.46.46,0,0,1,.16.35.4.4,0,0,1-.09.29,1.5,1.5,0,0,1-.42.27,1.54,1.54,0,0,0-.74.77,2.41,2.41,0,0,0-.18,1Z" transform="translate(-12.5 -20.5)"/><path d="M253.47,478.24v10.9a.81.81,0,0,0,.13.52.47.47,0,0,0,.14.12l.43.11a.5.5,0,0,1,.45.51.45.45,0,0,1-.24.39,1.12,1.12,0,0,1-.59.11H249.1a.93.93,0,0,1-.52-.12.42.42,0,0,1-.18-.36.48.48,0,0,1,.37-.5l.36-.13a.32.32,0,0,0,.11-.1.85.85,0,0,0,.11-.48v-9.28a.79.79,0,0,0-.11-.47.28.28,0,0,0-.11-.11l-.36-.13a.48.48,0,0,1-.37-.5.4.4,0,0,1,.18-.35.85.85,0,0,1,.52-.13h4.37Zm.78,7.81v-1a1.9,1.9,0,0,0,.57-.2.86.86,0,0,0,.28-.31,2.08,2.08,0,0,0,.19-1v-3a2.53,2.53,0,0,0-.06-.65.77.77,0,0,0-.26-.39,1.27,1.27,0,0,0-.72-.33v-1a8.21,8.21,0,0,1,2.82.36,3.48,3.48,0,0,1,2.28,3.44,4,4,0,0,1-.63,2.34,3.7,3.7,0,0,1-1.77,1.33A8.16,8.16,0,0,1,254.25,486.05Z" transform="translate(-12.5 -20.5)"/><path d="M265.55,478.24v10.9a.81.81,0,0,0,.14.52.47.47,0,0,0,.14.12l.43.11a.49.49,0,0,1,.44.51.45.45,0,0,1-.24.39,1.06,1.06,0,0,1-.58.11h-4.7a.92.92,0,0,1-.51-.12.42.42,0,0,1-.18-.36.48.48,0,0,1,.37-.5l.36-.13a.24.24,0,0,0,.1-.1.77.77,0,0,0,.12-.48v-9.28a.72.72,0,0,0-.12-.47.22.22,0,0,0-.1-.11l-.36-.13a.48.48,0,0,1-.37-.5.4.4,0,0,1,.18-.35.84.84,0,0,1,.51-.13h4.37Zm2.85,6.46a8.11,8.11,0,0,1,1.32.28,3.44,3.44,0,0,1,.83.43,2,2,0,0,1,.59.69,1.74,1.74,0,0,1,.21.84v1.92c0,.2.07.3.2.3a.16.16,0,0,0,.12,0,1.26,1.26,0,0,0,.15-.16.62.62,0,0,1,.47-.32.45.45,0,0,1,.31.17.47.47,0,0,1,.16.33,1.35,1.35,0,0,1-.27.7,3.17,3.17,0,0,1-.68.74,2.56,2.56,0,0,1-.83.44,3.68,3.68,0,0,1-1.05.13,2.55,2.55,0,0,1-1.91-.7,2.63,2.63,0,0,1-.68-1.95v-1.56c0-.34,0-.55,0-.6a1.36,1.36,0,0,0-.26-.64,1.12,1.12,0,0,0-.77-.38v-1a1.45,1.45,0,0,0,.71-.26,1,1,0,0,0,.26-.38,2.52,2.52,0,0,0,.07-.64V480.6a1.44,1.44,0,0,0-.23-.88,1.58,1.58,0,0,0-.82-.45v-1h.24c.68,0,1.27,0,1.75.07a3.89,3.89,0,0,1,1.92.71,2.83,2.83,0,0,1,1.22,2.46,2.92,2.92,0,0,1-.82,2.14,2.88,2.88,0,0,1-.8.58A11.87,11.87,0,0,1,268.4,484.7Z" transform="translate(-12.5 -20.5)"/><path d="M278.65,479a1.24,1.24,0,0,0-.66.46,1.49,1.49,0,0,0-.2.84v8.29a2.25,2.25,0,0,0,.22,1.15,1,1,0,0,0,.64.4v1a5.31,5.31,0,0,1-3.45-1.55,6.78,6.78,0,0,1-1.81-5,8.4,8.4,0,0,1,.48-2.92,5.73,5.73,0,0,1,1.42-2.21,5,5,0,0,1,1.54-1.06,5.11,5.11,0,0,1,1.82-.41Zm.76,0v-1a5.21,5.21,0,0,1,1.84.41,5.12,5.12,0,0,1,1.54,1.06,7.89,7.89,0,0,1,.09,10.14,5.29,5.29,0,0,1-3.47,1.55v-1a1,1,0,0,0,.38-.14.89.89,0,0,0,.25-.26,2.16,2.16,0,0,0,.25-1.15v-8.29a1.56,1.56,0,0,0-.17-.78.79.79,0,0,0-.27-.3A1.49,1.49,0,0,0,279.41,479Z" transform="translate(-12.5 -20.5)"/><path d="M292.76,487.66l-.88,3.24h-2.44l-3.3-11.08a1.32,1.32,0,0,0-.14-.34.46.46,0,0,0-.2-.15,1.06,1.06,0,0,1-.39-.23.43.43,0,0,1-.1-.3.5.5,0,0,1,.26-.44,1.27,1.27,0,0,1,.64-.12h4.12l.54,0a.52.52,0,0,1,.23.07.49.49,0,0,1,.16.19.55.55,0,0,1,.07.23.5.5,0,0,1-.33.49.83.83,0,0,0-.33.25.58.58,0,0,0-.09.35,1,1,0,0,0,0,.26Zm.36-1.33-.49-1.74,1.06-3.91a2.81,2.81,0,0,0,.11-.46.79.79,0,0,0-.09-.45.75.75,0,0,0-.46-.43l-.31-.11a.47.47,0,0,1-.36-.47.45.45,0,0,1,.2-.39,1.14,1.14,0,0,1,.57-.13h2.27a1.3,1.3,0,0,1,.56.08.45.45,0,0,1,.22.4.47.47,0,0,1-.07.28.58.58,0,0,1-.25.19l-.48.22a1.62,1.62,0,0,0-.57.55,3.5,3.5,0,0,0-.42.94Z" transform="translate(-12.5 -20.5)"/><path d="M302.37,490.9H298a1,1,0,0,1-.52-.12.42.42,0,0,1-.18-.36.49.49,0,0,1,.37-.5l.36-.13a.32.32,0,0,0,.11-.1.85.85,0,0,0,.11-.48v-9.28a.79.79,0,0,0-.11-.47.28.28,0,0,0-.11-.11l-.36-.13a.49.49,0,0,1-.37-.5.4.4,0,0,1,.18-.35.87.87,0,0,1,.52-.13h4.62a.84.84,0,0,1,.51.13.4.4,0,0,1,.18.35.48.48,0,0,1-.37.5l-.35.13s-.07,0-.11.11a.72.72,0,0,0-.11.47v9.28a.77.77,0,0,0,.11.48c0,.05.07.09.11.1l.35.13a.48.48,0,0,1,.37.5.42.42,0,0,1-.18.36.92.92,0,0,1-.51.12Z" transform="translate(-12.5 -20.5)"/><path d="M306.19,481.5l1,1.63v5a2.36,2.36,0,0,0,.22,1.07,1.76,1.76,0,0,0,.69.69l.28.15a.46.46,0,0,1,.24.42.42.42,0,0,1-.18.35,1,1,0,0,1-.61.12h-2.14q-.84,0-.84-.48a.35.35,0,0,1,.08-.26,1.54,1.54,0,0,1,.39-.27,1.87,1.87,0,0,0,.89-1.79Zm3.89-3.26,4.93,8.57v4.09h-2.53l-6.3-10.85a3.29,3.29,0,0,0-.33-.49.79.79,0,0,0-.34-.21l-.35-.13a.4.4,0,0,1-.22-.16.44.44,0,0,1-.09-.27.57.57,0,0,1,.31-.49,3.36,3.36,0,0,1,.85-.06Zm4.93,7.09-1-1.66V481.1a2.51,2.51,0,0,0-.23-1.19,1.76,1.76,0,0,0-.8-.71.78.78,0,0,1-.27-.2.51.51,0,0,1-.07-.28.39.39,0,0,1,.16-.36.89.89,0,0,1,.52-.12h2.32a.9.9,0,0,1,.62.15.46.46,0,0,1,.16.35.4.4,0,0,1-.09.29,1.5,1.5,0,0,1-.42.27,1.54,1.54,0,0,0-.74.77,2.41,2.41,0,0,0-.18,1Z" transform="translate(-12.5 -20.5)"/><path d="M322.68,478v1.12a1.17,1.17,0,0,0-.81.48,2.06,2.06,0,0,0-.27,1.15v8.06a1.29,1.29,0,0,0,.09.45,1.39,1.39,0,0,0,.22.4,1,1,0,0,0,.32.27,1.51,1.51,0,0,0,.45.1v1.13a5.28,5.28,0,0,1-3.12-.93,5.13,5.13,0,0,1-1.77-2.22,8.58,8.58,0,0,1-.59-3.31,8.4,8.4,0,0,1,.39-2.61A6.34,6.34,0,0,1,318.7,480a5.91,5.91,0,0,1,1.78-1.44,4.19,4.19,0,0,1,2-.55Zm.74,1.13V478a5.19,5.19,0,0,1,.73.16c.19,0,.53.17,1,.35a2.69,2.69,0,0,0,.63.17.44.44,0,0,0,.41-.25l.12-.22a.41.41,0,0,1,.42-.22.49.49,0,0,1,.38.15.62.62,0,0,1,.14.43v3.86a.74.74,0,0,1-.17.54.53.53,0,0,1-.38.17.46.46,0,0,1-.36-.15,1.09,1.09,0,0,1-.22-.46,7,7,0,0,0-.38-1.15,5,5,0,0,0-.91-1.43,2.68,2.68,0,0,0-.68-.57A2,2,0,0,0,323.42,479.12Zm0,12V490a3.48,3.48,0,0,0,1.53-.55,3,3,0,0,0,.76-.71,3.3,3.3,0,0,0,.5-1,.91.91,0,0,1,.22-.42.42.42,0,0,1,.33-.13.5.5,0,0,1,.37.17.59.59,0,0,1,.14.41,2.28,2.28,0,0,1-.31,1,4.77,4.77,0,0,1-.83,1.09,4.28,4.28,0,0,1-1.25.91A3.77,3.77,0,0,1,323.44,491.15Z" transform="translate(-12.5 -20.5)"/><path d="M333.75,478.24V490.9h-4.37a.92.92,0,0,1-.51-.12.42.42,0,0,1-.18-.36.48.48,0,0,1,.37-.5l.36-.13s.06-.05.1-.1a.77.77,0,0,0,.11-.48v-9.28a.72.72,0,0,0-.11-.47c0-.06-.07-.1-.1-.11l-.36-.13a.48.48,0,0,1-.37-.5.4.4,0,0,1,.18-.35.84.84,0,0,1,.51-.13h4.37Zm.78,6.75v-1.07a2.39,2.39,0,0,0,.8-.57,1.91,1.91,0,0,0,.38-.81,1.1,1.1,0,0,1,.19-.49.45.45,0,0,1,.35-.14.42.42,0,0,1,.41.24,1.49,1.49,0,0,1,.06.54v3.54a1.22,1.22,0,0,1-.1.6.37.37,0,0,1-.35.17.42.42,0,0,1-.34-.13,1,1,0,0,1-.19-.44,2.49,2.49,0,0,0-.45-1A1.45,1.45,0,0,0,334.53,485Zm.05-6.75h3.74v3.28a.64.64,0,0,1-.11.42.56.56,0,0,1-.65.05.79.79,0,0,1-.18-.35,3.52,3.52,0,0,0-1-1.64,3.2,3.2,0,0,0-1.76-.67Zm0,12.66v-1a4.14,4.14,0,0,0,1-.26,3,3,0,0,0,.8-.51,3.15,3.15,0,0,0,.63-.71,4.43,4.43,0,0,0,.45-1,1,1,0,0,1,.22-.4.41.41,0,0,1,.3-.11.39.39,0,0,1,.36.15,1,1,0,0,1,.11.54v3.27Z" transform="translate(-12.5 -20.5)"/><path d="M349.66,490.9h-4.38a.92.92,0,0,1-.51-.12.42.42,0,0,1-.18-.36.48.48,0,0,1,.37-.5l.36-.13a.24.24,0,0,0,.1-.1.77.77,0,0,0,.11-.48v-9.28a.72.72,0,0,0-.11-.47.22.22,0,0,0-.1-.11l-.36-.13a.48.48,0,0,1-.37-.5.4.4,0,0,1,.18-.35.84.84,0,0,1,.51-.13h4.62a.85.85,0,0,1,.52.13.4.4,0,0,1,.18.35.48.48,0,0,1-.37.5l-.36.13a.28.28,0,0,0-.11.11.79.79,0,0,0-.11.47v9.28a.85.85,0,0,0,.11.48.32.32,0,0,0,.11.1l.36.13a.48.48,0,0,1,.37.5.42.42,0,0,1-.18.36.93.93,0,0,1-.52.12Z" transform="translate(-12.5 -20.5)"/><path d="M353.48,481.5l1,1.63v5a2.24,2.24,0,0,0,.22,1.07,1.64,1.64,0,0,0,.69.69l.28.15a.46.46,0,0,1,.24.42.42.42,0,0,1-.18.35,1,1,0,0,1-.61.12H353c-.57,0-.85-.16-.85-.48a.36.36,0,0,1,.09-.26,1.63,1.63,0,0,1,.38-.27,1.85,1.85,0,0,0,.89-1.79Zm3.89-3.26,4.94,8.57v4.09h-2.54l-6.29-10.85a2.58,2.58,0,0,0-.34-.49.81.81,0,0,0-.33-.21l-.35-.13a.42.42,0,0,1-.23-.16.5.5,0,0,1-.08-.27.55.55,0,0,1,.08-.29.5.5,0,0,1,.23-.2,3.3,3.3,0,0,1,.85-.06Zm4.94,7.09-1-1.66V481.1a2.52,2.52,0,0,0-.22-1.19,1.74,1.74,0,0,0-.81-.71.65.65,0,0,1-.26-.2.51.51,0,0,1-.08-.28.41.41,0,0,1,.16-.36.92.92,0,0,1,.53-.12H363a.91.91,0,0,1,.62.15.5.5,0,0,1,.16.35.4.4,0,0,1-.09.29,1.5,1.5,0,0,1-.42.27,1.6,1.6,0,0,0-.75.77,2.59,2.59,0,0,0-.17,1Z" transform="translate(-12.5 -20.5)"/><path d="M378.23,486.78a.41.41,0,0,1,.34.17.75.75,0,0,1,.13.47,3.64,3.64,0,0,1-.34,1.43,3.86,3.86,0,0,1-.81,1.27,3,3,0,0,1-1,.68,2.93,2.93,0,0,1-1.14.26,5,5,0,0,1-1.38-.21l-1.22-.36a6.44,6.44,0,0,0-1.34-.3,1.35,1.35,0,0,0-.86.39.85.85,0,0,1-.43.24.39.39,0,0,1-.33-.14.58.58,0,0,1-.12-.4,2.59,2.59,0,0,1,.23-1,3.22,3.22,0,0,1,.63-.91,3.16,3.16,0,0,1,2.3-.82,10.84,10.84,0,0,1,1.83.21,15.34,15.34,0,0,0,2.19.31.86.86,0,0,0,.66-.22.62.62,0,0,0,.12-.19c0-.07.06-.2.1-.38S378,486.8,378.23,486.78ZM373,478.11v1a1.27,1.27,0,0,0-.42.16c-.11.07-.16.14-.16.21a.54.54,0,0,0,.25.27,2,2,0,0,1,.61.63,1.74,1.74,0,0,1-.35,2,1.84,1.84,0,0,1-2.58,0,1.85,1.85,0,0,1-.52-1.34,2.47,2.47,0,0,1,.45-1.42,3.2,3.2,0,0,1,1.25-1A6.28,6.28,0,0,1,373,478.11Zm.82,1v-1H374a5.44,5.44,0,0,1,1.84.32,4.18,4.18,0,0,1,1.46.89,3.24,3.24,0,0,1,1,2.41,3.5,3.5,0,0,1-.74,2.22,4.78,4.78,0,0,1-2.09,1.52l-1.21.48a15.16,15.16,0,0,0-1.5.74l-.28.16a2.44,2.44,0,0,0-.71.1,8.56,8.56,0,0,0-1,.37,6.49,6.49,0,0,1,.67-.77c.23-.21.56-.5,1-.85a14.11,14.11,0,0,0,1.17-1,2.8,2.8,0,0,0,.51-.7,3.19,3.19,0,0,0,.32-1,8.94,8.94,0,0,0,.09-1.4,5,5,0,0,0-.26-2,1.38,1.38,0,0,0-.21-.31A1.77,1.77,0,0,0,373.77,479.09Z" transform="translate(-12.5 -20.5)"/><path d="M384.89,491.06a4.51,4.51,0,0,1-1.73-.55,5,5,0,0,1-1.41-1.25,6.19,6.19,0,0,1-1.08-2.09,9.32,9.32,0,0,1,0-5.2,6.28,6.28,0,0,1,1.08-2.09,5.1,5.1,0,0,1,1.41-1.25,4.69,4.69,0,0,1,1.73-.55v1a1.57,1.57,0,0,0-.36.14.67.67,0,0,0-.2.18,1.58,1.58,0,0,0-.27,1v8.42a1.58,1.58,0,0,0,.27,1,.67.67,0,0,0,.2.18,2,2,0,0,0,.36.15Zm.71,0v-1A1.74,1.74,0,0,0,386,490a.67.67,0,0,0,.2-.18,1.58,1.58,0,0,0,.27-1v-8.42a1.58,1.58,0,0,0-.27-1,.67.67,0,0,0-.2-.18,1.39,1.39,0,0,0-.36-.14v-1a4.69,4.69,0,0,1,1.73.55,5,5,0,0,1,1.41,1.25,6.28,6.28,0,0,1,1.08,2.09,9.08,9.08,0,0,1,0,5.2,6.19,6.19,0,0,1-1.08,2.09,4.82,4.82,0,0,1-1.41,1.25A4.51,4.51,0,0,1,385.6,491.06Z" transform="translate(-12.5 -20.5)"/><path d="M398,478.24v10.9a.81.81,0,0,0,.14.52.47.47,0,0,0,.14.12l.43.11a.5.5,0,0,1,.44.51.45.45,0,0,1-.24.39,1.08,1.08,0,0,1-.58.11h-4.19a1,1,0,0,1-.58-.11.45.45,0,0,1-.24-.39.49.49,0,0,1,.44-.51l.43-.11a.46.46,0,0,0,.13-.12.81.81,0,0,0,.14-.52v-8.68a1.81,1.81,0,0,0-.1-.71.38.38,0,0,0-.31-.25l-.33,0c-.29,0-.43-.2-.43-.45a.5.5,0,0,1,.28-.46,1.58,1.58,0,0,1,.57-.11Z" transform="translate(-12.5 -20.5)"/><path d="M402.88,482.29l.58-4h.69l-.14,1.08a5.56,5.56,0,0,1,1.35-1,3.16,3.16,0,0,1,1.37-.31,3.42,3.42,0,0,1,.59.05,7.4,7.4,0,0,1,.75.2c.51.16.85.27,1,.34a3.11,3.11,0,0,0,.9.23.58.58,0,0,0,.43-.23l.1-.13a.43.43,0,0,1,.3-.17.31.31,0,0,1,.23.11.33.33,0,0,1,.1.24,2.25,2.25,0,0,1-.16.72,6.81,6.81,0,0,1-.4.86,2.44,2.44,0,0,1-.95,1,3.44,3.44,0,0,1-2,.25q-.27,0-1.47-.33a9,9,0,0,0-1.69-.28.8.8,0,0,0-.68.29,1.44,1.44,0,0,0-.22.89v.21Zm6.85-.33a12.42,12.42,0,0,0-.84,2,7.59,7.59,0,0,0-.37,2.19,5.58,5.58,0,0,0,.05.73l.18,1a6.43,6.43,0,0,1,.08,1,2.08,2.08,0,0,1-.65,1.65,1.93,1.93,0,0,1-1.37.55,1.81,1.81,0,0,1-1.46-.69,2.73,2.73,0,0,1-.57-1.78,4.73,4.73,0,0,1,.66-2.3,6.07,6.07,0,0,1,.51-.78c.21-.26.55-.66,1-1.2s.85-1,1.08-1.27a3.94,3.94,0,0,0,.48-.75A4.31,4.31,0,0,0,409.73,482Z" transform="translate(-12.5 -20.5)"/><path d="M42.69,524.74l2.48,4.12v12.57a5.87,5.87,0,0,0,.55,2.69,4.37,4.37,0,0,0,1.75,1.74l.7.39a1.15,1.15,0,0,1,.61,1.06,1.11,1.11,0,0,1-.44.89,2.71,2.71,0,0,1-1.55.3H41.38c-1.42,0-2.14-.4-2.14-1.21a.94.94,0,0,1,.23-.67,4.08,4.08,0,0,1,1-.67q2.25-1.25,2.25-4.52Zm9.82-8.23L65,538.17V548.5h-6.4L42.67,521.08a7.57,7.57,0,0,0-.85-1.24,2,2,0,0,0-.84-.52l-.89-.32a1,1,0,0,1-.56-.43,1.11,1.11,0,0,1-.22-.68,1.28,1.28,0,0,1,.22-.73,1.09,1.09,0,0,1,.56-.48,7.75,7.75,0,0,1,2.15-.17ZM65,534.42l-2.49-4.2v-6.49a6.38,6.38,0,0,0-.57-3,4.59,4.59,0,0,0-2-1.79,1.77,1.77,0,0,1-.68-.51,1.22,1.22,0,0,1-.18-.69,1.06,1.06,0,0,1,.41-.93,2.34,2.34,0,0,1,1.32-.29h5.86a2.3,2.3,0,0,1,1.57.38,1.16,1.16,0,0,1,.4.89,1.13,1.13,0,0,1-.22.74,4.4,4.4,0,0,1-1.07.66,4.19,4.19,0,0,0-1.88,2,6.41,6.41,0,0,0-.44,2.6Z" transform="translate(-12.5 -20.5)"/><path d="M84.29,548.5H73.23a2.27,2.27,0,0,1-1.3-.31,1,1,0,0,1-.46-.9,1.22,1.22,0,0,1,.94-1.27c.51-.17.81-.28.9-.32a.69.69,0,0,0,.27-.27,2,2,0,0,0,.28-1.19V520.78a2,2,0,0,0-.28-1.2.69.69,0,0,0-.27-.27l-.9-.31a1.23,1.23,0,0,1-.94-1.27,1,1,0,0,1,.46-.9,2.27,2.27,0,0,1,1.3-.32H84.9a2.27,2.27,0,0,1,1.3.32,1,1,0,0,1,.46.9,1.23,1.23,0,0,1-.94,1.27c-.51.17-.82.27-.9.31a.69.69,0,0,0-.27.27,2,2,0,0,0-.28,1.2v23.46a2,2,0,0,0,.28,1.19.69.69,0,0,0,.27.27c.08,0,.39.15.9.32a1.22,1.22,0,0,1,.94,1.27,1,1,0,0,1-.46.9,2.27,2.27,0,0,1-1.3.31Z" transform="translate(-12.5 -20.5)"/><path d="M103.39,515.88v2.83a2.91,2.91,0,0,0-2.06,1.22,5.21,5.21,0,0,0-.68,2.89v20.36a3.24,3.24,0,0,0,.22,1.14,3.36,3.36,0,0,0,.58,1,2.3,2.3,0,0,0,.79.67,3.81,3.81,0,0,0,1.15.27v2.86a13.35,13.35,0,0,1-7.9-2.37A12.92,12.92,0,0,1,91,541.16a21.31,21.31,0,0,1-1.5-8.36,21.94,21.94,0,0,1,1-6.6,15.71,15.71,0,0,1,2.83-5.31,14.58,14.58,0,0,1,4.49-3.65,10.73,10.73,0,0,1,5-1.38Zm1.85,2.86V515.9a17.11,17.11,0,0,1,1.87.4c.47.14,1.34.44,2.59.89a6.22,6.22,0,0,0,1.59.42,1.11,1.11,0,0,0,1-.61l.31-.56a1.07,1.07,0,0,1,1.05-.56,1.23,1.23,0,0,1,1,.37,1.59,1.59,0,0,1,.34,1.11v9.75a1.85,1.85,0,0,1-.42,1.35,1.29,1.29,0,0,1-1,.43,1.16,1.16,0,0,1-.9-.37,2.65,2.65,0,0,1-.55-1.18,21.45,21.45,0,0,0-1-2.91,13.43,13.43,0,0,0-2.3-3.61,8.1,8.1,0,0,0-1.73-1.44A5.18,5.18,0,0,0,105.24,518.74Zm.07,30.4v-2.86a8.77,8.77,0,0,0,3.85-1.39,7,7,0,0,0,1.92-1.81,8.55,8.55,0,0,0,1.27-2.5,2.53,2.53,0,0,1,.55-1.06,1.08,1.08,0,0,1,.83-.32,1.22,1.22,0,0,1,.94.42,1.52,1.52,0,0,1,.37,1.06,5.62,5.62,0,0,1-.81,2.55,12.13,12.13,0,0,1-2.07,2.77,11.06,11.06,0,0,1-3.18,2.29A9.89,9.89,0,0,1,105.31,549.14Z" transform="translate(-12.5 -20.5)"/><path d="M130.88,518.41a3.24,3.24,0,0,0-1.68,1.15,3.77,3.77,0,0,0-.49,2.13v20.95a5.46,5.46,0,0,0,.56,2.91,2.53,2.53,0,0,0,1.61,1v2.58a13.49,13.49,0,0,1-8.71-3.92q-4.58-4.54-4.57-12.68a21.42,21.42,0,0,1,1.2-7.37,14.81,14.81,0,0,1,3.58-5.59,13.13,13.13,0,0,1,3.89-2.67,12.91,12.91,0,0,1,4.61-1Zm1.93,0v-2.53a13.07,13.07,0,0,1,4.63,1,13.3,13.3,0,0,1,3.9,2.67q4.78,4.67,4.78,13,0,8.13-4.57,12.68a13.38,13.38,0,0,1-8.74,3.92v-2.58a3.5,3.5,0,0,0,.95-.36,2.43,2.43,0,0,0,.62-.65,5.37,5.37,0,0,0,.63-2.91V521.69a4,4,0,0,0-.42-2,2.42,2.42,0,0,0-.67-.77A4.41,4.41,0,0,0,132.81,518.41Z" transform="translate(-12.5 -20.5)"/><path d="M161.8,548.5h-11a2.27,2.27,0,0,1-1.3-.31,1,1,0,0,1-.46-.9,1.22,1.22,0,0,1,.94-1.27c.52-.17.82-.28.9-.32a.69.69,0,0,0,.27-.27,2,2,0,0,0,.28-1.19V520.78a2,2,0,0,0-.28-1.2.69.69,0,0,0-.27-.27c-.08,0-.38-.14-.9-.31a1.23,1.23,0,0,1-.94-1.27,1,1,0,0,1,.46-.9,2.27,2.27,0,0,1,1.3-.32h11.86a3,3,0,0,1,1.48.28,1.14,1.14,0,0,1,.61,1,1.26,1.26,0,0,1-1.13,1.29,9.57,9.57,0,0,0-1.08.28,1,1,0,0,0-.35.28,2.05,2.05,0,0,0-.35,1.31Zm1.9,0v-2.62a10.51,10.51,0,0,0,1.81-.47,4.66,4.66,0,0,0,1.28-.75,7.93,7.93,0,0,0,1.81-2.13,13.89,13.89,0,0,0,1.33-3,5.92,5.92,0,0,1,.69-1.7,1.11,1.11,0,0,1,.93-.41,1,1,0,0,1,1,.54,2.58,2.58,0,0,1,.14,1v9.54Z" transform="translate(-12.5 -20.5)"/><path d="M187.37,516.51v32h-11a2.27,2.27,0,0,1-1.3-.31,1,1,0,0,1-.46-.9,1.22,1.22,0,0,1,.94-1.27c.52-.17.82-.28.9-.32a.69.69,0,0,0,.27-.27,2,2,0,0,0,.28-1.19V520.78a2,2,0,0,0-.28-1.2.69.69,0,0,0-.27-.27c-.08,0-.38-.14-.9-.31a1.23,1.23,0,0,1-.94-1.27,1,1,0,0,1,.46-.9,2.27,2.27,0,0,1,1.3-.32h11Zm2,17.06v-2.71a6.15,6.15,0,0,0,2-1.43,4.86,4.86,0,0,0,1-2.07,2.76,2.76,0,0,1,.5-1.23,1.11,1.11,0,0,1,.86-.34,1.06,1.06,0,0,1,1,.59,3.77,3.77,0,0,1,.16,1.38v8.93a3.17,3.17,0,0,1-.25,1.52.93.93,0,0,1-.9.43,1.08,1.08,0,0,1-.84-.33,2.51,2.51,0,0,1-.5-1.1,6,6,0,0,0-1.13-2.49A3.52,3.52,0,0,0,189.34,533.57Zm.12-17.06h9.44v8.3a1.59,1.59,0,0,1-.28,1.05,1.12,1.12,0,0,1-.89.33A1.08,1.08,0,0,1,197,526a2,2,0,0,1-.45-.87,8.79,8.79,0,0,0-2.61-4.15,8.16,8.16,0,0,0-4.46-1.71Zm0,32V546a10.67,10.67,0,0,0,2.52-.65,7.68,7.68,0,0,0,2-1.29,8.55,8.55,0,0,0,1.61-1.8,11.72,11.72,0,0,0,1.13-2.44,2.9,2.9,0,0,1,.54-1,1.09,1.09,0,0,1,.78-.27,1,1,0,0,1,.91.38,2.59,2.59,0,0,1,.26,1.35v8.27Z" transform="translate(-12.5 -20.5)"/><path d="M212.82,531v3.17a1,1,0,0,1-.21.74,1.11,1.11,0,0,1-.75.19H201.78a1.11,1.11,0,0,1-.75-.19,1,1,0,0,1-.21-.74V531a1,1,0,0,1,.21-.74,1.11,1.11,0,0,1,.75-.19h10.08a1.11,1.11,0,0,1,.75.19A1,1,0,0,1,212.82,531Z" transform="translate(-12.5 -20.5)"/><path d="M227.07,518.41a3.27,3.27,0,0,0-1.69,1.15,3.85,3.85,0,0,0-.49,2.13v20.95a5.44,5.44,0,0,0,.57,2.91,2.53,2.53,0,0,0,1.61,1v2.58a13.52,13.52,0,0,1-8.72-3.92q-4.56-4.54-4.57-12.68a21.41,21.41,0,0,1,1.21-7.37,14.79,14.79,0,0,1,3.57-5.59,13.18,13.18,0,0,1,3.9-2.67,12.86,12.86,0,0,1,4.61-1Zm1.92,0v-2.53a13,13,0,0,1,4.63,1,13.22,13.22,0,0,1,3.91,2.67q4.77,4.67,4.78,13,0,8.13-4.57,12.68a13.4,13.4,0,0,1-8.75,3.92v-2.58a3.26,3.26,0,0,0,.95-.36,2.15,2.15,0,0,0,.62-.65,5.28,5.28,0,0,0,.64-2.91V521.69a4,4,0,0,0-.42-2,2.42,2.42,0,0,0-.67-.77A4.33,4.33,0,0,0,229,518.41Z" transform="translate(-12.5 -20.5)"/><path d="M255.27,531v3.17a1,1,0,0,1-.21.74,1.11,1.11,0,0,1-.75.19H244.23a1.11,1.11,0,0,1-.75-.19,1,1,0,0,1-.21-.74V531a1,1,0,0,1,.21-.74,1.11,1.11,0,0,1,.75-.19h10.08a1.11,1.11,0,0,1,.75.19A1,1,0,0,1,255.27,531Z" transform="translate(-12.5 -20.5)"/><path d="M269.52,516.51l4.61,13.15,2-7.1v7.78l-5.41,18.16h-1.24l-9.1-27a4.54,4.54,0,0,0-1-1.83,2.1,2.1,0,0,0-1.06-.45c-1-.21-1.52-.7-1.52-1.45a1.16,1.16,0,0,1,.43-.95,2.06,2.06,0,0,1,1.26-.34Zm-9.1,10.78,2.49,7.08v7.06A10.81,10.81,0,0,0,263,543a3.74,3.74,0,0,0,.36,1,3.46,3.46,0,0,0,1.36,1.55l.87.56c.59.36.89.76.89,1.2,0,.8-.59,1.19-1.76,1.19h-5.88c-1.17,0-1.76-.39-1.76-1.17a.92.92,0,0,1,.15-.57,2.4,2.4,0,0,1,.6-.46,5.06,5.06,0,0,0,2.6-4.87Zm17.72-10.78h11c1.17,0,1.76.41,1.76,1.22A1.23,1.23,0,0,1,290,519l-.9.31a.69.69,0,0,0-.27.27,2,2,0,0,0-.28,1.2v23.46a2,2,0,0,0,.28,1.19.69.69,0,0,0,.27.27c.09,0,.39.15.9.32a1.22,1.22,0,0,1,.94,1.27c0,.81-.59,1.21-1.76,1.21H277.35a3.09,3.09,0,0,1-1.56-.31,1,1,0,0,1-.53-1,1.24,1.24,0,0,1,1.12-1.29c.61-.16,1-.25,1.08-.29a.79.79,0,0,0,.33-.27,2,2,0,0,0,.35-1.34Z" transform="translate(-12.5 -20.5)"/><path d="M307.58,516.51v32h-11a2.27,2.27,0,0,1-1.3-.31,1,1,0,0,1-.46-.9,1.23,1.23,0,0,1,.94-1.27c.52-.17.82-.28.9-.32a.69.69,0,0,0,.27-.27,2,2,0,0,0,.28-1.19V520.78a2,2,0,0,0-.28-1.2.69.69,0,0,0-.27-.27c-.08,0-.38-.14-.9-.31a1.24,1.24,0,0,1-.94-1.27,1,1,0,0,1,.46-.9,2.27,2.27,0,0,1,1.3-.32h11Zm2,17.06v-2.71a6,6,0,0,0,2-1.43,5,5,0,0,0,1-2.07,2.66,2.66,0,0,1,.49-1.23,1.11,1.11,0,0,1,.86-.34,1.06,1.06,0,0,1,1,.59,3.56,3.56,0,0,1,.16,1.38v8.93a3.17,3.17,0,0,1-.25,1.52.93.93,0,0,1-.9.43,1.08,1.08,0,0,1-.84-.33,2.4,2.4,0,0,1-.49-1.1,6.14,6.14,0,0,0-1.14-2.49A3.52,3.52,0,0,0,309.55,533.57Zm.12-17.06h9.44v8.3a1.59,1.59,0,0,1-.28,1.05,1.11,1.11,0,0,1-.89.33,1.12,1.12,0,0,1-.75-.21,2,2,0,0,1-.45-.87,8.79,8.79,0,0,0-2.61-4.15,8.16,8.16,0,0,0-4.46-1.71Zm0,32V546a10.54,10.54,0,0,0,2.52-.65,7.68,7.68,0,0,0,2-1.29,8.55,8.55,0,0,0,1.61-1.8,11.69,11.69,0,0,0,1.14-2.44,2.75,2.75,0,0,1,.53-1,1.09,1.09,0,0,1,.78-.27,1,1,0,0,1,.91.38,2.59,2.59,0,0,1,.26,1.35v8.27Z" transform="translate(-12.5 -20.5)"/><path d="M322,516.51h6.17v2.84a4.66,4.66,0,0,0-1.71,1.61,10,10,0,0,0-1.36,3.78l-.24,1.43a1.82,1.82,0,0,1-.5,1.06,1.4,1.4,0,0,1-2,0,1.56,1.56,0,0,1-.39-1.1Zm18.47,0v27.54a2,2,0,0,0,.35,1.31.92.92,0,0,0,.36.3c.11,0,.46.13,1.07.29a1.25,1.25,0,0,1,1.13,1.29,1.12,1.12,0,0,1-.61,1,2.94,2.94,0,0,1-1.5.28h-12a3.09,3.09,0,0,1-1.56-.31,1,1,0,0,1-.53-1A1.25,1.25,0,0,1,328.3,546c.61-.16,1-.25,1.08-.29a.75.75,0,0,0,.33-.3,2,2,0,0,0,.35-1.31V516.51Zm8.11,0v9.59a1.6,1.6,0,0,1-.38,1.1,1.4,1.4,0,0,1-2,0,1.89,1.89,0,0,1-.51-1.06l-.23-1.43a10.17,10.17,0,0,0-1.36-3.78,5,5,0,0,0-1.71-1.61v-2.84Z" transform="translate(-12.5 -20.5)"/><path d="M364.25,516.51v32h-11a2.29,2.29,0,0,1-1.3-.31,1,1,0,0,1-.45-.9,1.22,1.22,0,0,1,.93-1.27c.52-.17.82-.28.9-.32a.69.69,0,0,0,.27-.27,2,2,0,0,0,.29-1.19V520.78a2,2,0,0,0-.29-1.2.69.69,0,0,0-.27-.27c-.08,0-.38-.14-.9-.31a1.24,1.24,0,0,1-.93-1.27,1,1,0,0,1,.45-.9,2.29,2.29,0,0,1,1.3-.32h11Zm2,17.06v-2.71a6.21,6.21,0,0,0,2-1.43,5.1,5.1,0,0,0,1-2.07,2.77,2.77,0,0,1,.49-1.23,1.12,1.12,0,0,1,.87-.34,1,1,0,0,1,1,.59,3.56,3.56,0,0,1,.16,1.38v8.93a3.33,3.33,0,0,1-.24,1.52,1,1,0,0,1-.91.43,1.08,1.08,0,0,1-.84-.33,2.51,2.51,0,0,1-.49-1.1,6.14,6.14,0,0,0-1.14-2.49A3.52,3.52,0,0,0,366.22,533.57Zm.12-17.06h9.44v8.3a1.59,1.59,0,0,1-.28,1.05,1.11,1.11,0,0,1-.89.33,1.12,1.12,0,0,1-.75-.21,2.13,2.13,0,0,1-.44-.87A8.88,8.88,0,0,0,370.8,521a8.13,8.13,0,0,0-4.46-1.71Zm0,32V546a10.42,10.42,0,0,0,2.52-.65,7.68,7.68,0,0,0,2-1.29,8.28,8.28,0,0,0,1.61-1.8,11.69,11.69,0,0,0,1.14-2.44,2.6,2.6,0,0,1,.54-1,1,1,0,0,1,.77-.27,1,1,0,0,1,.91.38,2.5,2.5,0,0,1,.26,1.35v8.27Z" transform="translate(-12.5 -20.5)"/><path d="M392.42,516.51v27.54a1.92,1.92,0,0,0,.36,1.31.84.84,0,0,0,.35.3c.11,0,.47.13,1.08.29a1.24,1.24,0,0,1,1.12,1.29,1.12,1.12,0,0,1-.61,1,2.88,2.88,0,0,1-1.48.28H381.38a2.29,2.29,0,0,1-1.3-.31,1,1,0,0,1-.45-.9,1.22,1.22,0,0,1,.93-1.27c.52-.17.82-.28.91-.32a.85.85,0,0,0,.27-.27,2,2,0,0,0,.28-1.19V520.78a2.08,2.08,0,0,0-.28-1.2.85.85,0,0,0-.27-.27l-.91-.31a1.24,1.24,0,0,1-.93-1.27,1,1,0,0,1,.45-.9,2.29,2.29,0,0,1,1.3-.32h11Zm7.2,16.31a20.92,20.92,0,0,1,3.32.73,8.1,8.1,0,0,1,2.09,1.08,5,5,0,0,1,1.51,1.73,4.49,4.49,0,0,1,.53,2.14v4.85c0,.5.17.75.49.75a.5.5,0,0,0,.32-.11,2,2,0,0,0,.36-.41,1.57,1.57,0,0,1,1.2-.79,1.13,1.13,0,0,1,.8.42,1.25,1.25,0,0,1,.39.84,3.38,3.38,0,0,1-.69,1.77,7.76,7.76,0,0,1-1.72,1.86,6.15,6.15,0,0,1-2.09,1.12,9.4,9.4,0,0,1-2.64.34,6.43,6.43,0,0,1-4.83-1.77,6.75,6.75,0,0,1-1.74-4.94V538.5c0-.88,0-1.39,0-1.53a3.18,3.18,0,0,0-.66-1.61,2.82,2.82,0,0,0-1.94-1v-2.5a3.65,3.65,0,0,0,1.8-.66,2.17,2.17,0,0,0,.65-1,5.39,5.39,0,0,0,.17-1.59v-6.22a3.55,3.55,0,0,0-.57-2.2,3.94,3.94,0,0,0-2.07-1.15v-2.6h.6a42.64,42.64,0,0,1,4.43.19,9.75,9.75,0,0,1,4.86,1.78,7.17,7.17,0,0,1,3.07,6.21,7.43,7.43,0,0,1-2.07,5.42,7.23,7.23,0,0,1-2,1.45A24.84,24.84,0,0,1,399.62,532.82Z" transform="translate(-12.5 -20.5)"/><path d="M440.38,105.75v1.52l-3.22,4.48h3.22v1H436.8a1,1,0,0,1-.6-.13.6.6,0,0,1-.16-.49,1.61,1.61,0,0,1,.35-.92l.15-.22Zm.81-1.11,1.61-2.22a.84.84,0,0,1,.35-.34,1.45,1.45,0,0,1,.56-.07h.89c.25,0,.4,0,.44.13a1.08,1.08,0,0,1,.07.43v9.18h1.28c.34,0,.51.16.51.49s-.19.52-.57.52h-1.22v1.31a.88.88,0,0,0,.15.57.49.49,0,0,0,.15.12l.48.13a.54.54,0,0,1,.49.56.49.49,0,0,1-.27.43,1.33,1.33,0,0,1-.66.12h-4.61a1.29,1.29,0,0,1-.65-.12.5.5,0,0,1-.26-.43.54.54,0,0,1,.49-.56l.47-.13a.4.4,0,0,0,.15-.12.88.88,0,0,0,.15-.57Z" transform="translate(-12.5 -20.5)"/><path d="M453.27,102.83a1.25,1.25,0,0,0-.56.48,2.51,2.51,0,0,0-.12.94v2.83a1.78,1.78,0,0,0,.12.65,1.48,1.48,0,0,0,.21.32,1.24,1.24,0,0,0,.35.2v1.08a1,1,0,0,0-.52.4,1.34,1.34,0,0,0-.16.73V114a1.87,1.87,0,0,0,.13.71.74.74,0,0,0,.2.29.9.9,0,0,0,.34.15v1.07h-.21a7.9,7.9,0,0,1-1.84-.22,5.37,5.37,0,0,1-.95-.3,2.82,2.82,0,0,1-.72-.46,3.2,3.2,0,0,1-1.16-2.61,3.82,3.82,0,0,1,.36-1.67,3.27,3.27,0,0,1,1-1.26,3.81,3.81,0,0,1,.8-.47,7.78,7.78,0,0,1,1.13-.4,7.64,7.64,0,0,1-1.1-.4,3.6,3.6,0,0,1-.76-.48,3,3,0,0,1-1.07-2.42,3.44,3.44,0,0,1,.49-1.81,3.38,3.38,0,0,1,1.36-1.26,6.38,6.38,0,0,1,2.64-.58Zm.71,0v-1a6.38,6.38,0,0,1,2.64.58,3.31,3.31,0,0,1,1.36,1.26,3.45,3.45,0,0,1,.5,1.81,3,3,0,0,1-1.08,2.42,3.3,3.3,0,0,1-.75.48,7.84,7.84,0,0,1-1.11.4,8.46,8.46,0,0,1,1.14.4,4,4,0,0,1,.79.47,3.27,3.27,0,0,1,1,1.26,3.69,3.69,0,0,1,.37,1.67,3.23,3.23,0,0,1-1.16,2.61,2.87,2.87,0,0,1-.72.47,4.91,4.91,0,0,1-.95.29,10.79,10.79,0,0,1-1.86.22h-.14v-1.07a1,1,0,0,0,.34-.15.73.73,0,0,0,.19-.29,1.7,1.7,0,0,0,.13-.71v-3.5a1.65,1.65,0,0,0-.06-.33c0-.15-.09-.27-.13-.37a1,1,0,0,0-.2-.25,1.3,1.3,0,0,0-.34-.18v-1.08a1.42,1.42,0,0,0,.36-.21.71.71,0,0,0,.19-.31c0-.07.06-.19.11-.36a1.87,1.87,0,0,0,.07-.29v-2.83a2,2,0,0,0-.06-.37l-.11-.56A1.16,1.16,0,0,0,454,102.83Z" transform="translate(-12.5 -20.5)"/><path d="M464.57,115v1.13a4.86,4.86,0,0,1-2-.56,3.63,3.63,0,0,1-1.34-1.1,2.39,2.39,0,0,1-.47-1.42,2,2,0,0,1,.57-1.48,1.89,1.89,0,0,1,1.43-.6,1.77,1.77,0,0,1,1.28.53,1.73,1.73,0,0,1,.54,1.27,1.86,1.86,0,0,1-.21.83,1.68,1.68,0,0,1-.5.65c-.16.12-.23.21-.23.29s.08.2.24.29A2.1,2.1,0,0,0,464.57,115Zm-2.89-9,.94.1-.17,2.13a7.28,7.28,0,0,1,1.07-.76,4.86,4.86,0,0,1,1.05-.4v1.45a6.44,6.44,0,0,0-1.85.71,1.64,1.64,0,0,1-.72.3.59.59,0,0,1-.43-.14.53.53,0,0,1-.16-.41c0-.08,0-.18,0-.29Zm.07-.78.29-3.4.4.06,2.07.27a19.44,19.44,0,0,0,2.62.16,10.39,10.39,0,0,0,1.66-.11,5.68,5.68,0,0,0,1.34-.38,5.41,5.41,0,0,1-.48,1.16,4.65,4.65,0,0,1-.71.92,6,6,0,0,1-1.1.84,4.25,4.25,0,0,1-1.19.48,11.37,11.37,0,0,1-2.34.2A16.68,16.68,0,0,1,461.75,105.23Zm3.68,3.3V107a8,8,0,0,1,1.77.17,4.8,4.8,0,0,1,1.38.55,4.06,4.06,0,0,1,2.06,3.75,5,5,0,0,1-.47,2.2,4.14,4.14,0,0,1-1.35,1.58,5.3,5.3,0,0,1-1.42.65,5.68,5.68,0,0,1-1.62.24h-.32V115a1.52,1.52,0,0,0,.51-.26,1.28,1.28,0,0,0,.31-.45,2.14,2.14,0,0,0,.14-.53,4.44,4.44,0,0,0,.06-.71v-2.62a2.92,2.92,0,0,0-.22-1.3A1.46,1.46,0,0,0,465.43,108.53Z" transform="translate(-12.5 -20.5)"/><path d="M482.09,111.45a.46.46,0,0,1,.38.19.81.81,0,0,1,.15.51,4.07,4.07,0,0,1-.38,1.58,4.39,4.39,0,0,1-.9,1.41,3.4,3.4,0,0,1-1.11.75,3.27,3.27,0,0,1-1.27.29,5.26,5.26,0,0,1-1.51-.24l-1.36-.4a6.94,6.94,0,0,0-1.47-.32,1.51,1.51,0,0,0-1,.43.94.94,0,0,1-.48.26.43.43,0,0,1-.36-.15.64.64,0,0,1-.13-.44,2.62,2.62,0,0,1,.26-1.13,3.19,3.19,0,0,1,.69-1,3.48,3.48,0,0,1,2.55-.92,11.64,11.64,0,0,1,2,.24,17.48,17.48,0,0,0,2.42.35,1,1,0,0,0,.72-.25.57.57,0,0,0,.13-.21q0-.12.12-.42C481.67,111.64,481.84,111.47,482.09,111.45Zm-5.83-9.59V103a1.36,1.36,0,0,0-.47.18c-.12.07-.17.15-.17.22s.11.2.28.31a2.08,2.08,0,0,1,.67.69,1.86,1.86,0,0,1,.2.89,1.79,1.79,0,0,1-.59,1.34,2,2,0,0,1-2.84,0,2.07,2.07,0,0,1-.59-1.5,2.7,2.7,0,0,1,.51-1.57,3.53,3.53,0,0,1,1.38-1.14A6.94,6.94,0,0,1,476.26,101.86Zm.9,1.09v-1.12h.28a5.75,5.75,0,0,1,2,.36,4.37,4.37,0,0,1,1.62,1,3.56,3.56,0,0,1,1.08,2.66,4,4,0,0,1-.81,2.46,5.44,5.44,0,0,1-2.31,1.68l-1.35.53a17.37,17.37,0,0,0-1.65.82l-.3.17a2.9,2.9,0,0,0-.79.11,8.61,8.61,0,0,0-1.1.42,5.79,5.79,0,0,1,.74-.85c.25-.24.63-.56,1.12-1a15.22,15.22,0,0,0,1.3-1.08,3.42,3.42,0,0,0,.57-.77,3.63,3.63,0,0,0,.34-1.07,8.25,8.25,0,0,0,.11-1.54,5.46,5.46,0,0,0-.29-2.21,1.07,1.07,0,0,0-.24-.35A1.51,1.51,0,0,0,477.16,103Z" transform="translate(-12.5 -20.5)"/><path d="M393.88,210.91a.27.27,0,0,1,.25.12.6.6,0,0,1,.1.34,2.84,2.84,0,0,1-.25,1.06,3.17,3.17,0,0,1-.6.94,2.4,2.4,0,0,1-.75.5,2,2,0,0,1-.84.19,3.42,3.42,0,0,1-1-.16l-.9-.26a4.63,4.63,0,0,0-1-.22,1,1,0,0,0-.63.28.62.62,0,0,1-.32.18.3.3,0,0,1-.25-.1.5.5,0,0,1-.08-.29,1.94,1.94,0,0,1,.17-.76,2.22,2.22,0,0,1,.46-.67,2.35,2.35,0,0,1,1.7-.6,8.29,8.29,0,0,1,1.35.15,10.52,10.52,0,0,0,1.61.23.62.62,0,0,0,.48-.16.42.42,0,0,0,.09-.14,2.19,2.19,0,0,0,.08-.28C393.6,211,393.71,210.92,393.88,210.91ZM390,204.52v.72a1,1,0,0,0-.31.12q-.12.07-.12.15c0,.06.07.13.19.2a1.46,1.46,0,0,1,.44.46,1.26,1.26,0,0,1-.25,1.49,1.35,1.35,0,0,1-1.9,0,1.38,1.38,0,0,1-.39-1,1.75,1.75,0,0,1,.34-1,2.26,2.26,0,0,1,.92-.77A4.35,4.35,0,0,1,390,204.52Zm.6.72v-.74h.18a3.85,3.85,0,0,1,1.36.23,3.21,3.21,0,0,1,1.08.65,2.4,2.4,0,0,1,.72,1.78,2.65,2.65,0,0,1-.54,1.64,3.55,3.55,0,0,1-1.54,1.12l-.9.35a12.23,12.23,0,0,0-1.1.55l-.2.12a1.83,1.83,0,0,0-.53.07c-.17.05-.41.14-.73.27a5.6,5.6,0,0,1,.49-.56q.25-.24.75-.63c.43-.33.72-.58.87-.72a2.58,2.58,0,0,0,.38-.52,2.37,2.37,0,0,0,.22-.71,5.74,5.74,0,0,0,.08-1,3.91,3.91,0,0,0-.19-1.47.91.91,0,0,0-.16-.23A1.24,1.24,0,0,0,390.59,205.24Z" transform="translate(-12.5 -20.5)"/><path d="M398.81,205.16a.76.76,0,0,0-.37.32,1.48,1.48,0,0,0-.09.63V208a1.07,1.07,0,0,0,.09.43.55.55,0,0,0,.14.21.92.92,0,0,0,.23.14v.71a.71.71,0,0,0-.35.27.94.94,0,0,0-.11.49v2.33a1.09,1.09,0,0,0,.09.47.53.53,0,0,0,.13.2.71.71,0,0,0,.23.1v.71h-.14a5.88,5.88,0,0,1-1.23-.14,4.29,4.29,0,0,1-.63-.2,2.07,2.07,0,0,1-.48-.31,2.14,2.14,0,0,1-.78-1.74,2.52,2.52,0,0,1,.25-1.11,2.17,2.17,0,0,1,.69-.84,2.67,2.67,0,0,1,.53-.32c.19-.08.44-.17.76-.27a4.7,4.7,0,0,1-.74-.26,2,2,0,0,1-.5-.32,2,2,0,0,1-.72-1.61,2.32,2.32,0,0,1,.33-1.21,2.24,2.24,0,0,1,.91-.84,4.3,4.3,0,0,1,1.76-.38Zm.47,0v-.66a4.3,4.3,0,0,1,1.76.38,2.24,2.24,0,0,1,.91.84,2.32,2.32,0,0,1,.33,1.21,2,2,0,0,1-.72,1.61,2,2,0,0,1-.5.32,4.7,4.7,0,0,1-.74.26c.32.1.57.19.76.27a2.67,2.67,0,0,1,.53.32,2.17,2.17,0,0,1,.69.84,2.51,2.51,0,0,1,.24,1.11,2.13,2.13,0,0,1-.77,1.74,1.57,1.57,0,0,1-.48.31,3.35,3.35,0,0,1-.63.2,7.2,7.2,0,0,1-1.24.14h-.09v-.71a.65.65,0,0,0,.22-.1.53.53,0,0,0,.13-.2,1.09,1.09,0,0,0,.09-.47v-2.33a.91.91,0,0,0,0-.22,1.05,1.05,0,0,0-.08-.25.53.53,0,0,0-.13-.16.94.94,0,0,0-.23-.13v-.71a1.17,1.17,0,0,0,.24-.14.69.69,0,0,0,.13-.21c0-.05,0-.13.07-.24l0-.19v-1.89a1.1,1.1,0,0,0,0-.25l-.08-.37A.68.68,0,0,0,399.28,205.16Z" transform="translate(-12.5 -20.5)"/><path d="M406.26,213.33v.72a4.49,4.49,0,0,1-1.3-.33,2.41,2.41,0,0,1-1-.73,1.68,1.68,0,0,1-.33-1,1.33,1.33,0,0,1,.37-1,1.22,1.22,0,0,1,.91-.38,1.25,1.25,0,0,1,1,.48,1.1,1.1,0,0,1,.28.73,1.17,1.17,0,0,1-.14.54,1.28,1.28,0,0,1-.39.44c-.14.11-.22.19-.22.24s.08.14.24.19A1.46,1.46,0,0,0,406.26,213.33Zm0-8.8v.69a1.73,1.73,0,0,0-.39.13.32.32,0,0,0-.12.11.17.17,0,0,0-.05.12.29.29,0,0,0,.14.21l.31.26a.8.8,0,0,1,.23.65,1.16,1.16,0,0,1-.36.85,1.18,1.18,0,0,1-.86.36,1.1,1.1,0,0,1-.85-.37,1.25,1.25,0,0,1-.34-.9,1.78,1.78,0,0,1,.24-.89,2.09,2.09,0,0,1,.68-.71A3.64,3.64,0,0,1,406.26,204.53Zm2.05,4.64a6.78,6.78,0,0,1,.89.32,2.12,2.12,0,0,1,.52.34,2.07,2.07,0,0,1,.48.72,2.25,2.25,0,0,1,.18.89,2.29,2.29,0,0,1-.73,1.75,2.92,2.92,0,0,1-1.08.65,4.2,4.2,0,0,1-1.4.22h-.3v-.72a1.09,1.09,0,0,0,.55-.32.6.6,0,0,0,.14-.26,1.26,1.26,0,0,0,0-.37v-2a3.73,3.73,0,0,0,0-.42.55.55,0,0,0-.13-.25.75.75,0,0,0-.6-.28.82.82,0,0,1-.36-.07.37.37,0,0,1-.05-.55,1,1,0,0,1,.4-.1c.52-.05.77-.31.77-.77v-1.82a1,1,0,0,0-.16-.64,1,1,0,0,0-.57-.3v-.72h.19a4.41,4.41,0,0,1,1.26.18,3.16,3.16,0,0,1,1,.51,2.27,2.27,0,0,1,.65.77,2.24,2.24,0,0,1-.36,2.47,2.32,2.32,0,0,1-.54.42A4.11,4.11,0,0,1,408.31,209.17Z" transform="translate(-12.5 -20.5)"/><path d="M414.9,205.16a.81.81,0,0,0-.37.32,1.52,1.52,0,0,0-.08.63V208a1.06,1.06,0,0,0,.08.43.7.7,0,0,0,.14.21.92.92,0,0,0,.23.14v.71a.71.71,0,0,0-.35.27.94.94,0,0,0-.1.49v2.33a1.09,1.09,0,0,0,.09.47.44.44,0,0,0,.13.2.57.57,0,0,0,.22.1v.71h-.14a5.88,5.88,0,0,1-1.23-.14,4.29,4.29,0,0,1-.63-.2,2.07,2.07,0,0,1-.48-.31,2.13,2.13,0,0,1-.77-1.74,2.51,2.51,0,0,1,.24-1.11,2.17,2.17,0,0,1,.69-.84,2.67,2.67,0,0,1,.53-.32c.19-.08.44-.17.76-.27a4.7,4.7,0,0,1-.74-.26,2.23,2.23,0,0,1-.5-.32,2,2,0,0,1-.72-1.61,2.32,2.32,0,0,1,.33-1.21,2.24,2.24,0,0,1,.91-.84,4.3,4.3,0,0,1,1.76-.38Zm.47,0v-.66a4.3,4.3,0,0,1,1.76.38,2.24,2.24,0,0,1,.91.84,2.32,2.32,0,0,1,.33,1.21,2,2,0,0,1-.72,1.61,2,2,0,0,1-.5.32,4.92,4.92,0,0,1-.73.26c.31.1.57.19.75.27a2.41,2.41,0,0,1,.53.32,2.17,2.17,0,0,1,.69.84,2.39,2.39,0,0,1,.25,1.11,2.14,2.14,0,0,1-.78,1.74,1.57,1.57,0,0,1-.48.31,3.13,3.13,0,0,1-.63.2,7.2,7.2,0,0,1-1.24.14h-.09v-.71a.65.65,0,0,0,.22-.1.44.44,0,0,0,.13-.2,1.09,1.09,0,0,0,.09-.47v-2.33a.79.79,0,0,0,0-.22,1.72,1.72,0,0,0-.09-.25.42.42,0,0,0-.13-.16.94.94,0,0,0-.23-.13v-.71a1.17,1.17,0,0,0,.24-.14.54.54,0,0,0,.13-.21c0-.05,0-.13.07-.24a1,1,0,0,0,.05-.19v-1.89a1.1,1.1,0,0,0,0-.25l-.07-.37A.75.75,0,0,0,415.37,205.16Z" transform="translate(-12.5 -20.5)"/><path d="M444.21,202.51v1.07a6.76,6.76,0,0,1-1.95-.5,3.5,3.5,0,0,1-1.43-1.09,2.49,2.49,0,0,1-.51-1.52,2,2,0,0,1,.55-1.45,1.95,1.95,0,0,1,2.88.14,1.7,1.7,0,0,1,.42,1.1,1.77,1.77,0,0,1-.22.82,1.82,1.82,0,0,1-.57.66q-.33.22-.33.36c0,.11.11.2.35.28A2.46,2.46,0,0,0,444.21,202.51Zm0-13.21v1a2.5,2.5,0,0,0-.58.2.74.74,0,0,0-.19.16.32.32,0,0,0-.07.18.45.45,0,0,0,.21.33l.47.38a1.16,1.16,0,0,1,.34,1,1.72,1.72,0,0,1-.54,1.28,1.75,1.75,0,0,1-1.29.53,1.71,1.71,0,0,1-1.28-.54,1.93,1.93,0,0,1-.51-1.36,2.55,2.55,0,0,1,.37-1.33,3.15,3.15,0,0,1,1-1.07A5.43,5.43,0,0,1,444.21,189.3Zm3.08,7a10.39,10.39,0,0,1,1.34.48,3.22,3.22,0,0,1,.78.52,2.87,2.87,0,0,1,.71,1.06,3.63,3.63,0,0,1-.82,4,4.38,4.38,0,0,1-1.62,1,6.44,6.44,0,0,1-2.11.33h-.45v-1.07A1.56,1.56,0,0,0,446,202a1.26,1.26,0,0,0,.22-.39,2.12,2.12,0,0,0,.06-.56v-2.94a4.26,4.26,0,0,0,0-.63,1,1,0,0,0-.19-.38,1.14,1.14,0,0,0-.9-.41,1.29,1.29,0,0,1-.54-.1.49.49,0,0,1-.23-.43.44.44,0,0,1,.16-.4,1.16,1.16,0,0,1,.6-.15c.76-.07,1.15-.46,1.15-1.16v-2.72a1.51,1.51,0,0,0-.25-1,1.49,1.49,0,0,0-.86-.46v-1.08h.29a6.59,6.59,0,0,1,1.89.27,5.17,5.17,0,0,1,1.56.77,3.21,3.21,0,0,1,1,1.15,3.13,3.13,0,0,1,.34,1.42,3.19,3.19,0,0,1-.88,2.28,3.36,3.36,0,0,1-.8.64A6.43,6.43,0,0,1,447.29,196.26Z" transform="translate(-12.5 -20.5)"/><path d="M456.28,202.51v1.07a6.76,6.76,0,0,1-1.95-.5A3.5,3.5,0,0,1,452.9,202a2.49,2.49,0,0,1-.51-1.52,2,2,0,0,1,.55-1.45,1.94,1.94,0,0,1,2.87.14,1.7,1.7,0,0,1,.42,1.1,1.75,1.75,0,0,1-.21.82,1.85,1.85,0,0,1-.58.66c-.21.15-.32.27-.32.36s.11.2.35.28A2.46,2.46,0,0,0,456.28,202.51Zm0-13.21v1a2.5,2.5,0,0,0-.58.2.74.74,0,0,0-.19.16.34.34,0,0,0-.08.18.5.5,0,0,0,.22.33l.47.38a1.16,1.16,0,0,1,.34,1,1.72,1.72,0,0,1-.54,1.28,1.76,1.76,0,0,1-1.3.53,1.69,1.69,0,0,1-1.27-.54,1.93,1.93,0,0,1-.51-1.36,2.63,2.63,0,0,1,.36-1.33,3.35,3.35,0,0,1,1-1.07A5.48,5.48,0,0,1,456.28,189.3Zm3.08,7a9.61,9.61,0,0,1,1.33.48,2.87,2.87,0,0,1,.78.52,3,3,0,0,1,.72,1.06,3.63,3.63,0,0,1-.82,4,4.38,4.38,0,0,1-1.62,1,6.48,6.48,0,0,1-2.11.33h-.45v-1.07A1.56,1.56,0,0,0,458,202a1.06,1.06,0,0,0,.21-.39,2.07,2.07,0,0,0,.07-.56v-2.94a3,3,0,0,0-.05-.63.83.83,0,0,0-.18-.38,1.14,1.14,0,0,0-.9-.41,1.35,1.35,0,0,1-.55-.1.48.48,0,0,1-.22-.43.44.44,0,0,1,.16-.4,1.16,1.16,0,0,1,.6-.15c.76-.07,1.15-.46,1.15-1.16v-2.72a1.57,1.57,0,0,0-.25-1,1.49,1.49,0,0,0-.86-.46v-1.08h.29a6.64,6.64,0,0,1,1.89.27,5.17,5.17,0,0,1,1.56.77,3.32,3.32,0,0,1,1,1.15,3.12,3.12,0,0,1,.33,1.42,3.18,3.18,0,0,1-.87,2.28,3.36,3.36,0,0,1-.8.64A6.73,6.73,0,0,1,459.36,196.26Z" transform="translate(-12.5 -20.5)"/><path d="M468.47,202.43v1.13a5,5,0,0,1-2-.55,3.73,3.73,0,0,1-1.34-1.1,2.42,2.42,0,0,1-.47-1.42,2.07,2.07,0,0,1,.57-1.49,1.89,1.89,0,0,1,1.43-.6,1.75,1.75,0,0,1,1.28.54,1.69,1.69,0,0,1,.54,1.26,1.86,1.86,0,0,1-.21.83,1.74,1.74,0,0,1-.5.66c-.16.11-.24.21-.24.28s.09.21.25.29A2,2,0,0,0,468.47,202.43Zm-2.89-9,.94.1-.18,2.14a7.08,7.08,0,0,1,1.08-.76,4.24,4.24,0,0,1,1.05-.4v1.44a6.44,6.44,0,0,0-1.85.71,1.61,1.61,0,0,1-.72.31.59.59,0,0,1-.43-.15.51.51,0,0,1-.16-.41c0-.08,0-.17,0-.28Zm.07-.78.28-3.39.4.05,2.08.28a19.61,19.61,0,0,0,2.62.15,10.65,10.65,0,0,0,1.66-.1,6.55,6.55,0,0,0,1.33-.38,5.67,5.67,0,0,1-.47,1.16,4.34,4.34,0,0,1-.72.91,5,5,0,0,1-1.09.84,4.37,4.37,0,0,1-1.19.48,10.62,10.62,0,0,1-2.34.21A15.52,15.52,0,0,1,465.65,192.64Zm3.68,3.3v-1.48a8.1,8.1,0,0,1,1.77.16,4.8,4.8,0,0,1,1.38.55,4.06,4.06,0,0,1,2.06,3.76,5,5,0,0,1-.47,2.19,4.07,4.07,0,0,1-1.35,1.58,5.3,5.3,0,0,1-1.42.65,5.68,5.68,0,0,1-1.62.24h-.32v-1.16a1.36,1.36,0,0,0,.51-.26,1.15,1.15,0,0,0,.31-.44,2.25,2.25,0,0,0,.14-.54,4.27,4.27,0,0,0,.05-.7v-2.63a3,3,0,0,0-.21-1.3A1.5,1.5,0,0,0,469.33,195.94Z" transform="translate(-12.5 -20.5)"/><path d="M486,198.87a.43.43,0,0,1,.38.18.88.88,0,0,1,.14.51,4.12,4.12,0,0,1-.37,1.59,4.62,4.62,0,0,1-.9,1.41,3.74,3.74,0,0,1-1.11.75,3.25,3.25,0,0,1-1.27.28,5.54,5.54,0,0,1-1.51-.23L480,203a7.23,7.23,0,0,0-1.47-.33,1.49,1.49,0,0,0-1,.43.91.91,0,0,1-.48.27.44.44,0,0,1-.36-.16.64.64,0,0,1-.13-.44,2.79,2.79,0,0,1,.25-1.13,3.34,3.34,0,0,1,.7-1,3.47,3.47,0,0,1,2.54-.91,11.26,11.26,0,0,1,2,.23,17.9,17.9,0,0,0,2.42.35,1,1,0,0,0,.73-.25.57.57,0,0,0,.13-.21,3.67,3.67,0,0,0,.12-.42C485.57,199.05,485.74,198.88,486,198.87Zm-5.83-9.59v1.09a1.29,1.29,0,0,0-.47.17c-.12.07-.18.15-.17.23s.11.19.28.3a2,2,0,0,1,.66.69,1.78,1.78,0,0,1,.21.89,1.83,1.83,0,0,1-.59,1.35,2,2,0,0,1-2.85,0,2.05,2.05,0,0,1-.58-1.49,2.67,2.67,0,0,1,.51-1.57,3.47,3.47,0,0,1,1.38-1.15A7,7,0,0,1,480.16,189.28Zm.9,1.09v-1.12h.28a6,6,0,0,1,2,.35,4.59,4.59,0,0,1,1.62,1,3.56,3.56,0,0,1,1.08,2.67,3.94,3.94,0,0,1-.81,2.45,5.34,5.34,0,0,1-2.31,1.68l-1.35.53a17.37,17.37,0,0,0-1.65.82l-.31.18a3,3,0,0,0-.79.1,11.46,11.46,0,0,0-1.09.42,6.36,6.36,0,0,1,.74-.85,13.06,13.06,0,0,1,1.12-.94,13.16,13.16,0,0,0,1.3-1.09,3.42,3.42,0,0,0,.57-.77,3.48,3.48,0,0,0,.34-1.06,9.34,9.34,0,0,0,.11-1.55,5.65,5.65,0,0,0-.29-2.21,1.07,1.07,0,0,0-.24-.35A1.51,1.51,0,0,0,481.06,190.37Z" transform="translate(-12.5 -20.5)"/><path d="M418.09,251.63v12.05a.88.88,0,0,0,.15.57.42.42,0,0,0,.15.13l.47.13a.54.54,0,0,1,.5.56.49.49,0,0,1-.27.43,1.31,1.31,0,0,1-.65.12h-4.62a1.29,1.29,0,0,1-.65-.12.5.5,0,0,1-.26-.43.54.54,0,0,1,.49-.56l.47-.13a.29.29,0,0,0,.14-.13.83.83,0,0,0,.16-.57v-9.6a2.08,2.08,0,0,0-.11-.78.42.42,0,0,0-.34-.28l-.36-.05c-.32-.05-.48-.21-.48-.49a.56.56,0,0,1,.3-.51,1.73,1.73,0,0,1,.64-.12Z" transform="translate(-12.5 -20.5)"/><path d="M423.53,256.1l.65-4.37h.75l-.15,1.19a5.94,5.94,0,0,1,1.5-1.12,3.35,3.35,0,0,1,1.51-.35,4.19,4.19,0,0,1,.65.05,7.6,7.6,0,0,1,.83.23c.56.17.94.29,1.13.37a3.21,3.21,0,0,0,1,.25.6.6,0,0,0,.47-.25L432,252a.44.44,0,0,1,.33-.19.33.33,0,0,1,.25.12.37.37,0,0,1,.12.27,2.31,2.31,0,0,1-.19.79,5.51,5.51,0,0,1-.44,1,2.65,2.65,0,0,1-1,1.06,3.08,3.08,0,0,1-1.52.34,4.4,4.4,0,0,1-.68-.05l-1.63-.37a9.06,9.06,0,0,0-1.87-.31.89.89,0,0,0-.75.32,1.63,1.63,0,0,0-.24,1v.23Zm7.58-.36a13.6,13.6,0,0,0-.94,2.19,8.69,8.69,0,0,0-.41,2.43,5.07,5.07,0,0,0,.07.8l.19,1.14a6.53,6.53,0,0,1,.09,1.07,2.35,2.35,0,0,1-.71,1.82,2.16,2.16,0,0,1-1.52.61,2,2,0,0,1-1.62-.77,3,3,0,0,1-.63-2,5.27,5.27,0,0,1,.73-2.54,5.8,5.8,0,0,1,.57-.86c.23-.3.61-.74,1.13-1.34s.95-1.08,1.2-1.4a4.74,4.74,0,0,0,.54-.83A5.11,5.11,0,0,0,431.11,255.74Z" transform="translate(-12.5 -20.5)"/><path d="M439,264.71v1.08a7.48,7.48,0,0,1-2-.5,3.58,3.58,0,0,1-1.43-1.1,2.52,2.52,0,0,1-.5-1.52,2,2,0,0,1,.55-1.44,1.81,1.81,0,0,1,1.37-.58,1.86,1.86,0,0,1,1.5.72,1.7,1.7,0,0,1,.42,1.1,1.75,1.75,0,0,1-.21.82,2,2,0,0,1-.58.65q-.33.24-.33.36c0,.11.12.21.35.29A2.51,2.51,0,0,0,439,264.71Zm0-13.21v1a2.47,2.47,0,0,0-.57.19.63.63,0,0,0-.19.17.32.32,0,0,0-.08.17.5.5,0,0,0,.22.33l.47.38a1.21,1.21,0,0,1,.34,1,1.76,1.76,0,0,1-.54,1.29,1.8,1.8,0,0,1-1.3.53,1.66,1.66,0,0,1-1.27-.55,1.91,1.91,0,0,1-.51-1.36,2.66,2.66,0,0,1,.36-1.33,3.24,3.24,0,0,1,1-1.07A5.67,5.67,0,0,1,439,251.5Zm3.09,7a9,9,0,0,1,1.33.47,3.12,3.12,0,0,1,.78.52,3.06,3.06,0,0,1,.72,1.07,3.45,3.45,0,0,1,.27,1.34,3.5,3.5,0,0,1-1.09,2.63,4.49,4.49,0,0,1-1.63,1,6.17,6.17,0,0,1-2.1.34h-.45v-1.08a1.66,1.66,0,0,0,.83-.48,1.1,1.1,0,0,0,.21-.4,2,2,0,0,0,.06-.55v-2.95a3.15,3.15,0,0,0,0-.62,1,1,0,0,0-.18-.38,1.13,1.13,0,0,0-.91-.41,1.29,1.29,0,0,1-.54-.11.46.46,0,0,1-.22-.43.48.48,0,0,1,.15-.4,1.5,1.5,0,0,1,.6-.15c.77-.07,1.15-.45,1.15-1.16V254a1.21,1.21,0,0,0-1.1-1.41v-1.09h.28a6.33,6.33,0,0,1,1.9.28,4.74,4.74,0,0,1,1.56.77,3.29,3.29,0,0,1,1,1.14,3.15,3.15,0,0,1,.33,1.42,3.22,3.22,0,0,1-.87,2.29,3,3,0,0,1-.81.63A7,7,0,0,1,442.06,258.47Z" transform="translate(-12.5 -20.5)"/><path d="M456.61,261.07a.42.42,0,0,1,.37.19.81.81,0,0,1,.15.51,4,4,0,0,1-.37,1.58,4.39,4.39,0,0,1-.9,1.41,3.34,3.34,0,0,1-1.12.75,3.19,3.19,0,0,1-1.26.29,5.33,5.33,0,0,1-1.52-.24l-1.35-.4a7.13,7.13,0,0,0-1.48-.33,1.52,1.52,0,0,0-.95.43.91.91,0,0,1-.48.27.47.47,0,0,1-.37-.15.72.72,0,0,1-.12-.44,2.75,2.75,0,0,1,.25-1.13,3.39,3.39,0,0,1,.7-1,3.51,3.51,0,0,1,2.54-.91,11.44,11.44,0,0,1,2,.24,17.9,17.9,0,0,0,2.42.35,1,1,0,0,0,.73-.25A.74.74,0,0,0,456,262a4,4,0,0,0,.12-.43C456.19,261.26,456.36,261.08,456.61,261.07Zm-5.84-9.59v1.09a1.53,1.53,0,0,0-.46.17c-.12.08-.18.16-.17.23s.1.2.28.31a2.11,2.11,0,0,1,.66.68,1.89,1.89,0,0,1-.38,2.24,2,2,0,0,1-2.85,0,2,2,0,0,1-.58-1.49,2.7,2.7,0,0,1,.51-1.57,3.43,3.43,0,0,1,1.37-1.14A6.94,6.94,0,0,1,450.77,251.48Zm.91,1.09v-1.12H452a5.84,5.84,0,0,1,2,.36,4.41,4.41,0,0,1,1.61,1,3.53,3.53,0,0,1,1.09,2.66,4,4,0,0,1-.81,2.46,5.38,5.38,0,0,1-2.32,1.67l-1.34.54a15.22,15.22,0,0,0-1.65.82l-.31.17a3,3,0,0,0-.79.11,10,10,0,0,0-1.09.41,7,7,0,0,1,.74-.85c.25-.24.62-.55,1.12-.94s1.08-.86,1.3-1.08a3.27,3.27,0,0,0,.57-.78,3.77,3.77,0,0,0,.34-1.06,9.21,9.21,0,0,0,.11-1.54,5.65,5.65,0,0,0-.29-2.21,1,1,0,0,0-.24-.35A1.26,1.26,0,0,0,451.68,252.57Z" transform="translate(-12.5 -20.5)"/><path d="M145.43,165.64v1.08a6.76,6.76,0,0,1-2-.5,3.65,3.65,0,0,1-1.43-1.09,2.5,2.5,0,0,1-.5-1.53,2,2,0,0,1,.55-1.44,1.85,1.85,0,0,1,1.37-.58,1.87,1.87,0,0,1,1.5.72,1.7,1.7,0,0,1,.42,1.1,1.66,1.66,0,0,1-.22.82,1.91,1.91,0,0,1-.57.66c-.22.15-.33.27-.33.35s.12.21.35.29A2.47,2.47,0,0,0,145.43,165.64Zm0-13.2v1a1.9,1.9,0,0,0-.57.2.49.49,0,0,0-.19.16.34.34,0,0,0-.08.18.48.48,0,0,0,.22.32l.47.38a1.23,1.23,0,0,1,.34,1,1.74,1.74,0,0,1-.54,1.28,1.8,1.8,0,0,1-1.3.53,1.64,1.64,0,0,1-1.27-.55,1.89,1.89,0,0,1-.51-1.35,2.63,2.63,0,0,1,.36-1.33,3.15,3.15,0,0,1,1-1.07A5.33,5.33,0,0,1,145.43,152.44Zm3.09,7a10.14,10.14,0,0,1,1.33.48,3.5,3.5,0,0,1,.78.51,3.06,3.06,0,0,1,.72,1.07,3.63,3.63,0,0,1,.26,1.34,3.49,3.49,0,0,1-1.08,2.63,4.51,4.51,0,0,1-1.63,1,6.42,6.42,0,0,1-2.1.33h-.46v-1.08a1.58,1.58,0,0,0,.83-.48,1,1,0,0,0,.22-.39,2.12,2.12,0,0,0,.06-.56v-2.94a3.21,3.21,0,0,0,0-.63,1,1,0,0,0-.18-.38,1.17,1.17,0,0,0-.91-.41,1.33,1.33,0,0,1-.54-.1.49.49,0,0,1-.23-.43.47.47,0,0,1,.16-.4,1.33,1.33,0,0,1,.6-.16c.77-.06,1.15-.45,1.15-1.16v-2.71a1.58,1.58,0,0,0-.24-1,1.56,1.56,0,0,0-.87-.46v-1.08h.29a6.66,6.66,0,0,1,1.9.27,5,5,0,0,1,1.56.77,3.34,3.34,0,0,1,1,1.15,3.12,3.12,0,0,1,.33,1.42,3.2,3.2,0,0,1-.87,2.28,3.4,3.4,0,0,1-.81.64A7,7,0,0,1,148.52,159.4Z" transform="translate(-12.5 -20.5)"/><path d="M154.12,157l.64-4.37h.76l-.15,1.19a6.09,6.09,0,0,1,1.49-1.12,3.38,3.38,0,0,1,1.51-.34,3.28,3.28,0,0,1,.66.05,7.09,7.09,0,0,1,.83.22c.56.17.94.3,1.13.37a3.63,3.63,0,0,0,1,.26.62.62,0,0,0,.47-.26l.12-.14a.46.46,0,0,1,.32-.19.35.35,0,0,1,.26.12.36.36,0,0,1,.11.27,2.61,2.61,0,0,1-.18.8,5.89,5.89,0,0,1-.44,1,2.72,2.72,0,0,1-1,1.06,3.23,3.23,0,0,1-1.53.33,4.5,4.5,0,0,1-.68,0c-.19,0-.73-.16-1.62-.37a9.82,9.82,0,0,0-1.87-.31.89.89,0,0,0-.75.32,1.64,1.64,0,0,0-.24,1V157Zm7.57-.36a14,14,0,0,0-.93,2.2,8.69,8.69,0,0,0-.41,2.43,5.19,5.19,0,0,0,.06.8l.2,1.13a6.62,6.62,0,0,1,.09,1.07,2.36,2.36,0,0,1-.72,1.83,2.18,2.18,0,0,1-1.52.6,2,2,0,0,1-1.61-.77,3,3,0,0,1-.63-2,5.19,5.19,0,0,1,.73-2.54,5.8,5.8,0,0,1,.57-.86c.22-.29.6-.74,1.13-1.33s.94-1.09,1.19-1.41a4.74,4.74,0,0,0,.54-.83A4.33,4.33,0,0,0,161.69,156.67Z" transform="translate(-12.5 -20.5)"/><path d="M172.8,152.56v12.05a.85.85,0,0,0,.15.57.43.43,0,0,0,.16.13l.47.13a.54.54,0,0,1,.49.56.49.49,0,0,1-.27.43,1.16,1.16,0,0,1-.64.13h-4.63a1.13,1.13,0,0,1-.64-.13.49.49,0,0,1-.27-.43.54.54,0,0,1,.49-.56l.48-.13a.4.4,0,0,0,.14-.13.85.85,0,0,0,.15-.57V155a2,2,0,0,0-.11-.78.44.44,0,0,0-.34-.28l-.36,0c-.32,0-.48-.21-.48-.49a.56.56,0,0,1,.31-.51,1.67,1.67,0,0,1,.63-.11Z" transform="translate(-12.5 -20.5)"/><path d="M181.75,165.57v1.13a5.05,5.05,0,0,1-2-.55,3.65,3.65,0,0,1-1.34-1.11,2.36,2.36,0,0,1-.46-1.42,2,2,0,0,1,.57-1.48,1.88,1.88,0,0,1,1.43-.6,1.73,1.73,0,0,1,1.27.54,1.69,1.69,0,0,1,.54,1.26,2,2,0,0,1-.2.83,1.72,1.72,0,0,1-.51.65c-.15.12-.23.22-.23.29s.08.21.24.29A2.17,2.17,0,0,0,181.75,165.57Zm-2.89-9,.94.1-.17,2.13a7.12,7.12,0,0,1,1.07-.75,4,4,0,0,1,1.05-.4v1.44a6.44,6.44,0,0,0-1.85.71,1.67,1.67,0,0,1-.71.31.62.62,0,0,1-.44-.15.57.57,0,0,1-.16-.41c0-.08,0-.17,0-.28Zm.07-.78.29-3.39.4.05,2.07.27a18,18,0,0,0,2.62.16,12.22,12.22,0,0,0,1.67-.1,6.93,6.93,0,0,0,1.33-.38,6.18,6.18,0,0,1-.47,1.15,4.13,4.13,0,0,1-.72.92,5.2,5.2,0,0,1-1.09.84,4.3,4.3,0,0,1-1.2.48,10.71,10.71,0,0,1-2.34.2A15.6,15.6,0,0,1,178.93,155.78Zm3.68,3.3v-1.49a8.07,8.07,0,0,1,1.78.17,4.86,4.86,0,0,1,1.37.55,4.06,4.06,0,0,1,2.06,3.76,5,5,0,0,1-.47,2.19,4,4,0,0,1-1.34,1.58,5.37,5.37,0,0,1-1.43.65,5.68,5.68,0,0,1-1.62.24h-.32v-1.16a1.52,1.52,0,0,0,.51-.26,1,1,0,0,0,.31-.45,1.69,1.69,0,0,0,.14-.53,4.34,4.34,0,0,0,.06-.71V161a2.81,2.81,0,0,0-.22-1.3A1.46,1.46,0,0,0,182.61,159.08Z" transform="translate(-12.5 -20.5)"/><path d="M286.43,165.64v1.08a6.76,6.76,0,0,1-1.95-.5,3.65,3.65,0,0,1-1.43-1.09,2.5,2.5,0,0,1-.5-1.53,2,2,0,0,1,.55-1.44,1.85,1.85,0,0,1,1.37-.58,1.87,1.87,0,0,1,1.5.72,1.7,1.7,0,0,1,.42,1.1,1.66,1.66,0,0,1-.22.82,1.91,1.91,0,0,1-.57.66c-.22.15-.33.27-.33.35s.12.21.35.29A2.47,2.47,0,0,0,286.43,165.64Zm0-13.2v1a1.9,1.9,0,0,0-.57.2.49.49,0,0,0-.19.16.34.34,0,0,0-.08.18.48.48,0,0,0,.22.32l.47.38a1.23,1.23,0,0,1,.34,1,1.74,1.74,0,0,1-.54,1.28,1.8,1.8,0,0,1-1.3.53,1.64,1.64,0,0,1-1.27-.55,1.89,1.89,0,0,1-.51-1.35,2.63,2.63,0,0,1,.36-1.33,3.15,3.15,0,0,1,1-1.07A5.33,5.33,0,0,1,286.43,152.44Zm3.09,7a10.14,10.14,0,0,1,1.33.48,3.5,3.5,0,0,1,.78.51,3.06,3.06,0,0,1,.72,1.07,3.63,3.63,0,0,1,.26,1.34,3.49,3.49,0,0,1-1.08,2.63,4.51,4.51,0,0,1-1.63,1,6.42,6.42,0,0,1-2.1.33h-.46v-1.08a1.58,1.58,0,0,0,.83-.48,1,1,0,0,0,.22-.39,2.12,2.12,0,0,0,.06-.56v-2.94a3.21,3.21,0,0,0,0-.63,1,1,0,0,0-.18-.38,1.17,1.17,0,0,0-.91-.41,1.33,1.33,0,0,1-.54-.1.49.49,0,0,1-.23-.43.47.47,0,0,1,.16-.4,1.33,1.33,0,0,1,.6-.16c.77-.06,1.15-.45,1.15-1.16v-2.71a1.58,1.58,0,0,0-.24-1,1.56,1.56,0,0,0-.87-.46v-1.08h.29a6.66,6.66,0,0,1,1.9.27,5,5,0,0,1,1.56.77,3.34,3.34,0,0,1,1,1.15,3.12,3.12,0,0,1,.33,1.42,3.2,3.2,0,0,1-.87,2.28,3.4,3.4,0,0,1-.81.64A7,7,0,0,1,289.52,159.4Z" transform="translate(-12.5 -20.5)"/><path d="M300,159v1.18a4.5,4.5,0,0,1-2.17.61,3.57,3.57,0,0,1-1.27-.24,3.66,3.66,0,0,1-1.13-.68,3.59,3.59,0,0,1-.83-1.19,4,4,0,0,1-.29-1.51,4.94,4.94,0,0,1,.52-2.21,4.37,4.37,0,0,1,1.4-1.67,5.19,5.19,0,0,1,3-.87v1a1,1,0,0,0-.58.33,1,1,0,0,0-.18.66v3.9a1.16,1.16,0,0,0,.19.72.61.61,0,0,0,.53.26A2.15,2.15,0,0,0,300,159Zm-1,6.73v1a4.81,4.81,0,0,1-2.06-.49,3.64,3.64,0,0,1-1.38-1.09,2.4,2.4,0,0,1-.5-1.45,2,2,0,0,1,2-2,1.85,1.85,0,0,1,1.3.49,1.6,1.6,0,0,1,.54,1.21,1.39,1.39,0,0,1-.24.82l-.32.47a.55.55,0,0,0,.18.87A1.14,1.14,0,0,0,299,165.7Zm.77,1v-1a1.84,1.84,0,0,0,.5-.22,1,1,0,0,0,.29-.33,1.82,1.82,0,0,0,.26-.94v-9.47a5.25,5.25,0,0,0,0-.67.66.66,0,0,0-.15-.34,1.16,1.16,0,0,0-.63-.34v-1a4.76,4.76,0,0,1,1.84.57,5.42,5.42,0,0,1,1.54,1.3,6.18,6.18,0,0,1,1.17,2.32,10.7,10.7,0,0,1,.42,3.07,7.56,7.56,0,0,1-2,5.57,5.61,5.61,0,0,1-1.54,1.12A3.9,3.9,0,0,1,299.74,166.73Z" transform="translate(-12.5 -20.5)"/><path d="M313.81,152.56v12.05a.85.85,0,0,0,.15.57.43.43,0,0,0,.16.13l.47.13a.54.54,0,0,1,.49.56.49.49,0,0,1-.27.43,1.16,1.16,0,0,1-.64.13h-4.63a1.13,1.13,0,0,1-.64-.13.49.49,0,0,1-.27-.43.54.54,0,0,1,.49-.56l.48-.13a.4.4,0,0,0,.14-.13.85.85,0,0,0,.15-.57V155a2,2,0,0,0-.11-.78.44.44,0,0,0-.34-.28l-.36,0c-.32,0-.48-.21-.48-.49a.56.56,0,0,1,.31-.51,1.67,1.67,0,0,1,.63-.11Z" transform="translate(-12.5 -20.5)"/><path d="M323.53,153.38a1.16,1.16,0,0,0-.55.48,2.3,2.3,0,0,0-.13.95v2.83a1.56,1.56,0,0,0,.13.64,1,1,0,0,0,.21.32,1,1,0,0,0,.34.2v1.08a1,1,0,0,0-.52.4,1.34,1.34,0,0,0-.16.73v3.51a1.65,1.65,0,0,0,.14.7.64.64,0,0,0,.19.29,1,1,0,0,0,.34.15v1.07h-.21a8.45,8.45,0,0,1-1.84-.21,4.81,4.81,0,0,1-1-.31,3.08,3.08,0,0,1-.72-.45,3.22,3.22,0,0,1-1.16-2.62,3.85,3.85,0,0,1,.36-1.67,3.27,3.27,0,0,1,1-1.26,4.08,4.08,0,0,1,.8-.47,7.78,7.78,0,0,1,1.13-.4,8.12,8.12,0,0,1-1.1-.4,3.55,3.55,0,0,1-.76-.47A3,3,0,0,1,319,156a3.39,3.39,0,0,1,.49-1.81,3.33,3.33,0,0,1,1.36-1.27,6.39,6.39,0,0,1,2.64-.57Zm.71,0v-1a6.39,6.39,0,0,1,2.64.57,3.36,3.36,0,0,1,1.37,1.27,3.48,3.48,0,0,1,.49,1.81,3,3,0,0,1-1.08,2.42,3.26,3.26,0,0,1-.75.47,8.12,8.12,0,0,1-1.1.4,8.77,8.77,0,0,1,1.13.4,3.74,3.74,0,0,1,.79.47,3.18,3.18,0,0,1,1,1.26,3.72,3.72,0,0,1,.37,1.67,3.25,3.25,0,0,1-1.16,2.62,3.13,3.13,0,0,1-.72.46,4.86,4.86,0,0,1-.95.3,12,12,0,0,1-1.86.21h-.14v-1.07a1,1,0,0,0,.34-.15.73.73,0,0,0,.19-.29,1.65,1.65,0,0,0,.14-.7V161a1.72,1.72,0,0,0-.07-.32c-.05-.16-.09-.28-.13-.38a.78.78,0,0,0-.19-.24,1.25,1.25,0,0,0-.35-.19V158.8a1,1,0,0,0,.36-.21.71.71,0,0,0,.19-.31c0-.07.06-.19.11-.36s.08-.26.08-.28v-2.83a2,2,0,0,0-.07-.37l-.11-.57A1.16,1.16,0,0,0,324.24,153.38Z" transform="translate(-12.5 -20.5)"/><path d="M316,302.15v1.52l-3.22,4.48H316v1h-3.58a1,1,0,0,1-.6-.13.64.64,0,0,1-.16-.49,1.61,1.61,0,0,1,.35-.93l.15-.21Zm.81-1.11,1.61-2.22a1,1,0,0,1,.35-.35,1.75,1.75,0,0,1,.56-.06h.89c.25,0,.4,0,.44.13a.93.93,0,0,1,.07.43v9.18H322c.34,0,.51.16.51.49s-.19.52-.57.52h-1.22v1.3a.92.92,0,0,0,.15.58.49.49,0,0,0,.15.12l.48.12a.56.56,0,0,1,.49.57.49.49,0,0,1-.27.43,1.33,1.33,0,0,1-.66.12h-4.61a1.29,1.29,0,0,1-.65-.12.5.5,0,0,1-.26-.43.55.55,0,0,1,.49-.57l.47-.12a.4.4,0,0,0,.15-.12.92.92,0,0,0,.15-.58Z" transform="translate(-12.5 -20.5)"/><path d="M328.15,311.42v1.13a5.06,5.06,0,0,1-2-.56,3.73,3.73,0,0,1-1.34-1.1,2.38,2.38,0,0,1-.46-1.42,2.12,2.12,0,0,1,.56-1.49,1.92,1.92,0,0,1,1.43-.59,1.77,1.77,0,0,1,1.28.53,1.73,1.73,0,0,1,.54,1.26,2,2,0,0,1-.2.84,1.8,1.8,0,0,1-.51.65c-.16.12-.23.21-.23.29s.08.2.24.28A2.14,2.14,0,0,0,328.15,311.42Zm-2.89-9,.94.11-.17,2.13a6.59,6.59,0,0,1,1.07-.76,4.86,4.86,0,0,1,1-.4v1.45a6.44,6.44,0,0,0-1.85.7,1.55,1.55,0,0,1-.71.31.62.62,0,0,1-.44-.15.51.51,0,0,1-.16-.4c0-.08,0-.18,0-.29Zm.07-.77.29-3.4.4,0,2.07.28a19.61,19.61,0,0,0,2.62.15,10.57,10.57,0,0,0,1.66-.1,6.2,6.2,0,0,0,1.34-.38,6.3,6.3,0,0,1-.47,1.16,4.41,4.41,0,0,1-.72.91,5.2,5.2,0,0,1-1.09.84,4.05,4.05,0,0,1-1.2.49,11.37,11.37,0,0,1-2.34.2A16.68,16.68,0,0,1,325.33,301.63Zm3.68,3.3v-1.49a8.88,8.88,0,0,1,1.78.16,4.89,4.89,0,0,1,1.37.56,4,4,0,0,1,2.06,3.75,5.07,5.07,0,0,1-.47,2.2,4,4,0,0,1-1.35,1.57,5.31,5.31,0,0,1-1.42.66,5.68,5.68,0,0,1-1.62.24H329v-1.16a1.73,1.73,0,0,0,.51-.26,1.16,1.16,0,0,0,.31-.45,1.87,1.87,0,0,0,.14-.53,4.44,4.44,0,0,0,.06-.71v-2.63a2.87,2.87,0,0,0-.22-1.29A1.42,1.42,0,0,0,329,304.93Z" transform="translate(-12.5 -20.5)"/><path d="M341.38,298.23v1a1.43,1.43,0,0,0-.81.52,1.64,1.64,0,0,0-.24,1v9.4a5.22,5.22,0,0,0,0,.68.71.71,0,0,0,.14.33,1.19,1.19,0,0,0,.64.34v1.08a5.16,5.16,0,0,1-1.84-.59,5.38,5.38,0,0,1-1.54-1.29,6.42,6.42,0,0,1-1.18-2.32,11,11,0,0,1-.41-3.06,7.6,7.6,0,0,1,2-5.58,5.24,5.24,0,0,1,1.54-1.11A3.77,3.77,0,0,1,341.38,298.23Zm-.24,7.76v-1.18a4.5,4.5,0,0,1,2.16-.61,3.79,3.79,0,0,1,2.4.92,3.27,3.27,0,0,1,.83,1.2,3.74,3.74,0,0,1,.3,1.49,5,5,0,0,1-.45,2.05,4.39,4.39,0,0,1-1.19,1.63,4.88,4.88,0,0,1-1.42.79,4.66,4.66,0,0,1-1.6.3h-.26V311.5a1.08,1.08,0,0,0,.59-.33,1.09,1.09,0,0,0,.17-.65v-3.84a1.22,1.22,0,0,0-.2-.73.53.53,0,0,0-.51-.24A1.93,1.93,0,0,0,341.14,306Zm1-6.72v-1a5,5,0,0,1,2.06.49,3.72,3.72,0,0,1,1.38,1.1,2.37,2.37,0,0,1,.49,1.45,1.94,1.94,0,0,1-.57,1.42,2,2,0,0,1-1.44.58,1.85,1.85,0,0,1-1.29-.5,1.55,1.55,0,0,1-.53-1.18,1.65,1.65,0,0,1,.46-1.08,3.2,3.2,0,0,0,.29-.38.6.6,0,0,0,.07-.27C343.07,299.54,342.76,299.34,342.15,299.27Z" transform="translate(-12.5 -20.5)"/><path d="M352.3,311.42v1.13a5,5,0,0,1-2-.56,3.73,3.73,0,0,1-1.34-1.1,2.39,2.39,0,0,1-.47-1.42,2.09,2.09,0,0,1,.57-1.49,1.92,1.92,0,0,1,1.43-.59,1.78,1.78,0,0,1,1.28.53,1.73,1.73,0,0,1,.54,1.26,1.9,1.9,0,0,1-.21.84,1.79,1.79,0,0,1-.5.65c-.16.12-.24.21-.24.29s.09.2.25.28A2,2,0,0,0,352.3,311.42Zm-2.89-9,.94.11-.18,2.13a7.08,7.08,0,0,1,1.08-.76,4.67,4.67,0,0,1,1.05-.4v1.45a6.44,6.44,0,0,0-1.85.7,1.61,1.61,0,0,1-.72.31.59.59,0,0,1-.43-.15.51.51,0,0,1-.16-.4c0-.08,0-.18,0-.29Zm.07-.77.28-3.4.4,0,2.08.28a19.61,19.61,0,0,0,2.62.15,10.65,10.65,0,0,0,1.66-.1,6,6,0,0,0,1.33-.38,5.67,5.67,0,0,1-.47,1.16,4.34,4.34,0,0,1-.71.91,5.26,5.26,0,0,1-1.1.84,4.11,4.11,0,0,1-1.19.49,11.37,11.37,0,0,1-2.34.2A16.68,16.68,0,0,1,349.48,301.63Zm3.68,3.3v-1.49a8.77,8.77,0,0,1,1.77.16,4.83,4.83,0,0,1,1.38.56,4,4,0,0,1,2.06,3.75,5.07,5.07,0,0,1-.47,2.2,4.11,4.11,0,0,1-1.35,1.57,5.31,5.31,0,0,1-1.42.66,5.68,5.68,0,0,1-1.62.24h-.32v-1.16a1.73,1.73,0,0,0,.51-.26,1.28,1.28,0,0,0,.31-.45,2.28,2.28,0,0,0,.14-.53,4.39,4.39,0,0,0,.05-.71v-2.63a2.9,2.9,0,0,0-.21-1.29A1.46,1.46,0,0,0,353.16,304.93Z" transform="translate(-12.5 -20.5)"/><path d="M609,282.39v1.52l-3.22,4.48H609v1h-3.58a1,1,0,0,1-.6-.13.6.6,0,0,1-.16-.49,1.58,1.58,0,0,1,.35-.92l.15-.22Zm.81-1.11,1.61-2.22a1,1,0,0,1,.35-.35,1.75,1.75,0,0,1,.56-.06h.89c.25,0,.39,0,.44.13a1.12,1.12,0,0,1,.06.43v9.18H615c.34,0,.51.16.51.49s-.19.52-.58.52h-1.22v1.31a.88.88,0,0,0,.16.57.4.4,0,0,0,.15.12l.47.13a.54.54,0,0,1,.5.56.49.49,0,0,1-.27.43,1.33,1.33,0,0,1-.66.12h-4.61a1.29,1.29,0,0,1-.65-.12.48.48,0,0,1-.26-.43.54.54,0,0,1,.49-.56l.46-.13a.29.29,0,0,0,.15-.12.83.83,0,0,0,.16-.57Z" transform="translate(-12.5 -20.5)"/><path d="M621,291.73v1.08a7.12,7.12,0,0,1-1.94-.5,3.45,3.45,0,0,1-1.43-1.1,2.46,2.46,0,0,1-.51-1.52,2,2,0,0,1,.55-1.44,1.82,1.82,0,0,1,1.38-.58,1.84,1.84,0,0,1,1.49.72,1.7,1.7,0,0,1,.42,1.1,1.75,1.75,0,0,1-.21.82,2,2,0,0,1-.58.65q-.33.24-.33.36c0,.11.12.21.35.29A2.55,2.55,0,0,0,621,291.73Zm0-13.21v1a2.14,2.14,0,0,0-.57.2.49.49,0,0,0-.19.16.36.36,0,0,0-.08.17.5.5,0,0,0,.22.33l.47.38a1.2,1.2,0,0,1,.34,1,1.75,1.75,0,0,1-.54,1.28,1.8,1.8,0,0,1-1.3.53,1.66,1.66,0,0,1-1.27-.55,1.91,1.91,0,0,1-.51-1.36,2.62,2.62,0,0,1,.36-1.32,3.38,3.38,0,0,1,1-1.08A5.67,5.67,0,0,1,621,278.52Zm3.09,7a10.4,10.4,0,0,1,1.33.47,3.12,3.12,0,0,1,.78.52,3.06,3.06,0,0,1,.72,1.07,3.45,3.45,0,0,1,.27,1.34,3.5,3.5,0,0,1-1.09,2.63,4.56,4.56,0,0,1-1.63,1,6.38,6.38,0,0,1-2.1.33h-.45v-1.08a1.62,1.62,0,0,0,.83-.48,1.06,1.06,0,0,0,.21-.39,2.12,2.12,0,0,0,.06-.56v-2.95a3.15,3.15,0,0,0,0-.62.88.88,0,0,0-.18-.38,1.14,1.14,0,0,0-.9-.41,1.56,1.56,0,0,1-.55-.1.48.48,0,0,1-.22-.43.43.43,0,0,1,.16-.4,1.25,1.25,0,0,1,.6-.16c.76-.07,1.14-.45,1.14-1.16V281a1.56,1.56,0,0,0-.24-1,1.53,1.53,0,0,0-.86-.46v-1.09h.28a6.67,6.67,0,0,1,1.9.28,5,5,0,0,1,1.56.77,3.29,3.29,0,0,1,1,1.14,3.15,3.15,0,0,1,.33,1.42,3.22,3.22,0,0,1-.87,2.29,3.36,3.36,0,0,1-.8.64A8.7,8.7,0,0,1,624.09,285.49Z" transform="translate(-12.5 -20.5)"/><path d="M633.07,291.73v1.08a7,7,0,0,1-1.94-.5,3.55,3.55,0,0,1-1.44-1.1,2.52,2.52,0,0,1-.5-1.52,2,2,0,0,1,.55-1.44,1.82,1.82,0,0,1,1.38-.58,1.86,1.86,0,0,1,1.49.72,1.7,1.7,0,0,1,.42,1.1,1.75,1.75,0,0,1-.21.82,2,2,0,0,1-.58.65q-.33.24-.33.36c0,.11.12.21.35.29A2.55,2.55,0,0,0,633.07,291.73Zm0-13.21v1a2.14,2.14,0,0,0-.57.2.49.49,0,0,0-.19.16.36.36,0,0,0-.08.17.5.5,0,0,0,.22.33l.47.38a1.23,1.23,0,0,1,.34,1,1.75,1.75,0,0,1-.54,1.28,1.8,1.8,0,0,1-1.3.53,1.66,1.66,0,0,1-1.27-.55,1.91,1.91,0,0,1-.51-1.36,2.62,2.62,0,0,1,.36-1.32,3.28,3.28,0,0,1,1-1.08A5.67,5.67,0,0,1,633.07,278.52Zm3.09,7a10.4,10.4,0,0,1,1.33.47,3.12,3.12,0,0,1,.78.52,3.06,3.06,0,0,1,.72,1.07,3.45,3.45,0,0,1,.27,1.34,3.5,3.5,0,0,1-1.09,2.63,4.65,4.65,0,0,1-1.63,1,6.38,6.38,0,0,1-2.1.33H634v-1.08a1.62,1.62,0,0,0,.83-.48,1.06,1.06,0,0,0,.21-.39,2.12,2.12,0,0,0,.06-.56v-2.95a3.15,3.15,0,0,0,0-.62,1,1,0,0,0-.18-.38,1.14,1.14,0,0,0-.91-.41,1.54,1.54,0,0,1-.54-.1.48.48,0,0,1-.22-.43.43.43,0,0,1,.16-.4,1.25,1.25,0,0,1,.6-.16c.76-.07,1.14-.45,1.14-1.16V281a1.56,1.56,0,0,0-.24-1,1.53,1.53,0,0,0-.86-.46v-1.09h.28a6.67,6.67,0,0,1,1.9.28,5,5,0,0,1,1.56.77,3.29,3.29,0,0,1,1,1.14,3.15,3.15,0,0,1,.33,1.42,3.29,3.29,0,0,1-1.68,2.93A8,8,0,0,1,636.16,285.49Z" transform="translate(-12.5 -20.5)"/><path d="M645.26,291.66v1.13a4.86,4.86,0,0,1-2-.56,3.55,3.55,0,0,1-1.34-1.1,2.39,2.39,0,0,1-.47-1.42,2,2,0,0,1,.57-1.48,1.89,1.89,0,0,1,1.43-.6,1.78,1.78,0,0,1,1.28.53,1.73,1.73,0,0,1,.54,1.26,1.86,1.86,0,0,1-.21.84,1.79,1.79,0,0,1-.5.65c-.16.12-.24.21-.24.29s.08.2.25.29A2,2,0,0,0,645.26,291.66Zm-2.89-9,1,.1-.18,2.13a6.82,6.82,0,0,1,1.08-.76,4.59,4.59,0,0,1,1-.4v1.45a6.37,6.37,0,0,0-1.84.71,1.69,1.69,0,0,1-.72.3.59.59,0,0,1-.43-.14.53.53,0,0,1-.16-.41c0-.08,0-.18,0-.29Zm.08-.78.28-3.4.4,0,2.07.28a19.6,19.6,0,0,0,2.63.16,10.48,10.48,0,0,0,1.66-.11,6.12,6.12,0,0,0,1.33-.38,5.44,5.44,0,0,1-.47,1.16,4.1,4.1,0,0,1-.72.91,5.61,5.61,0,0,1-1.09.85,4.37,4.37,0,0,1-1.19.48,11.5,11.5,0,0,1-2.34.2A16.68,16.68,0,0,1,642.45,281.87Zm3.68,3.3v-1.49a8,8,0,0,1,1.77.17,4.63,4.63,0,0,1,1.37.55,4,4,0,0,1,2.06,3.75,4.9,4.9,0,0,1-.47,2.2,4,4,0,0,1-1.34,1.58,5.37,5.37,0,0,1-1.43.65,5.68,5.68,0,0,1-1.62.24h-.31v-1.16a1.55,1.55,0,0,0,.5-.26A1.3,1.3,0,0,0,647,291a2.14,2.14,0,0,0,.14-.53,5.92,5.92,0,0,0,0-.71v-2.62a3,3,0,0,0-.21-1.3A1.5,1.5,0,0,0,646.13,285.17Z" transform="translate(-12.5 -20.5)"/><path d="M567.52,171.5a.46.46,0,0,1,.38.19.88.88,0,0,1,.14.51,4.12,4.12,0,0,1-.37,1.59,4.62,4.62,0,0,1-.9,1.41,3.53,3.53,0,0,1-1.11.74,3.1,3.1,0,0,1-1.27.29,5.6,5.6,0,0,1-1.51-.23l-1.36-.4a7.23,7.23,0,0,0-1.47-.33,1.51,1.51,0,0,0-1,.43.87.87,0,0,1-.48.26.43.43,0,0,1-.36-.15.64.64,0,0,1-.13-.44,2.75,2.75,0,0,1,.25-1.13,3.22,3.22,0,0,1,.7-1,3.47,3.47,0,0,1,2.54-.92,11.44,11.44,0,0,1,2,.24,17.9,17.9,0,0,0,2.42.35.94.94,0,0,0,.73-.25.57.57,0,0,0,.13-.21q0-.12.12-.42C567.1,171.69,567.27,171.52,567.52,171.5Zm-5.83-9.58V163a1.36,1.36,0,0,0-.47.18c-.12.07-.18.15-.17.22s.11.2.28.31a2,2,0,0,1,.66.69,1.75,1.75,0,0,1,.21.89,1.79,1.79,0,0,1-.59,1.34,1.93,1.93,0,0,1-1.39.57,2,2,0,0,1-1.46-.6,2.05,2.05,0,0,1-.58-1.49,2.65,2.65,0,0,1,.51-1.57,3.47,3.47,0,0,1,1.38-1.15A6.54,6.54,0,0,1,561.69,161.92Zm.9,1.08v-1.11h.28a5.78,5.78,0,0,1,2,.35,4.59,4.59,0,0,1,1.62,1,3.56,3.56,0,0,1,1.08,2.66,4,4,0,0,1-.81,2.46,5.42,5.42,0,0,1-2.31,1.68l-1.35.53a17.37,17.37,0,0,0-1.65.82l-.31.17a3,3,0,0,0-.79.11,9.22,9.22,0,0,0-1.09.42,6.36,6.36,0,0,1,.74-.85c.25-.24.62-.56,1.12-.95a15.22,15.22,0,0,0,1.3-1.08,3.42,3.42,0,0,0,.57-.77,3.57,3.57,0,0,0,.34-1.06,9.34,9.34,0,0,0,.11-1.55,5.46,5.46,0,0,0-.29-2.21,1.07,1.07,0,0,0-.24-.35A1.88,1.88,0,0,0,562.59,163Z" transform="translate(-12.5 -20.5)"/><path d="M579.59,171.5a.44.44,0,0,1,.37.19.81.81,0,0,1,.15.51,4.12,4.12,0,0,1-.37,1.59,4.62,4.62,0,0,1-.9,1.41,3.47,3.47,0,0,1-1.12.74,3,3,0,0,1-1.26.29,5.67,5.67,0,0,1-1.52-.23l-1.35-.4a7.13,7.13,0,0,0-1.48-.33,1.49,1.49,0,0,0-1,.43.87.87,0,0,1-.48.26.47.47,0,0,1-.37-.15.7.7,0,0,1-.12-.44,2.75,2.75,0,0,1,.25-1.13,3.22,3.22,0,0,1,.7-1,3.47,3.47,0,0,1,2.54-.92,11.44,11.44,0,0,1,2,.24,17.9,17.9,0,0,0,2.42.35,1,1,0,0,0,.73-.25.57.57,0,0,0,.13-.21q0-.12.12-.42C579.17,171.69,579.34,171.52,579.59,171.5Zm-5.84-9.58V163a1.3,1.3,0,0,0-.46.18c-.12.07-.18.15-.17.22s.1.2.28.31a2,2,0,0,1,.66.69,1.75,1.75,0,0,1,.21.89,1.79,1.79,0,0,1-.59,1.34,1.93,1.93,0,0,1-1.39.57,2,2,0,0,1-1.46-.6,2.05,2.05,0,0,1-.58-1.49,2.65,2.65,0,0,1,.51-1.57,3.37,3.37,0,0,1,1.37-1.15A6.54,6.54,0,0,1,573.75,161.92Zm.91,1.08v-1.11h.27a5.83,5.83,0,0,1,2,.35,4.46,4.46,0,0,1,1.61,1,3.53,3.53,0,0,1,1.09,2.66,4,4,0,0,1-.81,2.46,5.4,5.4,0,0,1-2.32,1.68l-1.34.53a17.37,17.37,0,0,0-1.65.82l-.31.17a3,3,0,0,0-.79.11,8.6,8.6,0,0,0-1.09.42,6.36,6.36,0,0,1,.74-.85c.25-.24.62-.56,1.12-.95s1.08-.86,1.3-1.08a3.42,3.42,0,0,0,.57-.77,3.57,3.57,0,0,0,.34-1.06,9.34,9.34,0,0,0,.11-1.55,5.65,5.65,0,0,0-.29-2.21,1.07,1.07,0,0,0-.24-.35A1.88,1.88,0,0,0,574.66,163Z" transform="translate(-12.5 -20.5)"/><path d="M587,162.88a1.16,1.16,0,0,0-.55.48,2.54,2.54,0,0,0-.12.95v2.83a1.73,1.73,0,0,0,.12.64,1,1,0,0,0,.21.32,1.17,1.17,0,0,0,.34.2v1.08a1,1,0,0,0-.52.4,1.45,1.45,0,0,0-.15.73V174a1.65,1.65,0,0,0,.13.7.73.73,0,0,0,.19.29,1,1,0,0,0,.34.15v1.07h-.2a8.54,8.54,0,0,1-1.85-.21,4.81,4.81,0,0,1-.95-.31,3.08,3.08,0,0,1-.72-.45,3.25,3.25,0,0,1-1.16-2.62,3.72,3.72,0,0,1,.37-1.67,3.18,3.18,0,0,1,1-1.26,3.74,3.74,0,0,1,.79-.47,8.25,8.25,0,0,1,1.13-.4,8.12,8.12,0,0,1-1.1-.4,3.26,3.26,0,0,1-.75-.47,3,3,0,0,1-1.08-2.42,3.48,3.48,0,0,1,.49-1.81,3.36,3.36,0,0,1,1.37-1.27,6.34,6.34,0,0,1,2.63-.57Zm.71,0v-1a6.35,6.35,0,0,1,2.64.57,3.3,3.3,0,0,1,1.37,1.27,3.39,3.39,0,0,1,.49,1.81,3,3,0,0,1-1.08,2.42,3.26,3.26,0,0,1-.75.47,8.12,8.12,0,0,1-1.1.4,8.25,8.25,0,0,1,1.13.4,4.08,4.08,0,0,1,.8.47,3.36,3.36,0,0,1,1,1.26,3.85,3.85,0,0,1,.36,1.67,3.25,3.25,0,0,1-1.16,2.62,3.13,3.13,0,0,1-.72.46,4.86,4.86,0,0,1-1,.3,12,12,0,0,1-1.85.21h-.15v-1.07a1,1,0,0,0,.34-.15.73.73,0,0,0,.19-.29,1.65,1.65,0,0,0,.14-.7v-3.51a1.15,1.15,0,0,0-.07-.32,2.74,2.74,0,0,0-.13-.38.78.78,0,0,0-.19-.24,1.12,1.12,0,0,0-.35-.19V168.3a1,1,0,0,0,.36-.21.63.63,0,0,0,.19-.31,3.65,3.65,0,0,0,.12-.36c0-.17.07-.26.07-.28v-2.83a1.8,1.8,0,0,0-.06-.37l-.12-.57A1.11,1.11,0,0,0,587.69,162.88Z" transform="translate(-12.5 -20.5)"/><path d="M594.77,166.53l.65-4.37h.76l-.15,1.19a6.09,6.09,0,0,1,1.49-1.12,3.74,3.74,0,0,1,2.17-.29,7.65,7.65,0,0,1,.83.22c.56.17.93.3,1.12.37a3.68,3.68,0,0,0,1,.26.63.63,0,0,0,.47-.26l.11-.14a.48.48,0,0,1,.33-.19.35.35,0,0,1,.26.12.4.4,0,0,1,.11.27,2.61,2.61,0,0,1-.18.8,6.89,6.89,0,0,1-.44,1,2.74,2.74,0,0,1-1,1.06,3.19,3.19,0,0,1-1.52.33,4.5,4.5,0,0,1-.68,0c-.19,0-.74-.16-1.63-.37a9.75,9.75,0,0,0-1.86-.31.92.92,0,0,0-.76.32,1.64,1.64,0,0,0-.24,1v.22Zm7.58-.36a14,14,0,0,0-.93,2.2,8.69,8.69,0,0,0-.41,2.43,5.19,5.19,0,0,0,.06.8l.19,1.13a5.69,5.69,0,0,1,.1,1.07,2.36,2.36,0,0,1-.72,1.83,2.18,2.18,0,0,1-1.52.6,2,2,0,0,1-1.61-.77,3,3,0,0,1-.63-2,5.28,5.28,0,0,1,.72-2.54,5.8,5.8,0,0,1,.57-.86c.23-.29.61-.74,1.14-1.33s.94-1.09,1.19-1.41a4.74,4.74,0,0,0,.54-.83A4.33,4.33,0,0,0,602.35,166.17Z" transform="translate(-12.5 -20.5)"/><path d="M567.9,439.35v12a.9.9,0,0,0,.15.58.42.42,0,0,0,.15.13l.48.13a.54.54,0,0,1,.49.56.49.49,0,0,1-.27.43,1.29,1.29,0,0,1-.65.12h-4.62a1.22,1.22,0,0,1-.64-.12.49.49,0,0,1-.27-.43.54.54,0,0,1,.49-.56l.47-.13a.35.35,0,0,0,.15-.13.9.9,0,0,0,.15-.58V441.8a2.08,2.08,0,0,0-.11-.78.41.41,0,0,0-.34-.28l-.36-.05c-.32-.05-.48-.21-.48-.49a.58.58,0,0,1,.31-.52,1.91,1.91,0,0,1,.63-.11Z" transform="translate(-12.5 -20.5)"/><path d="M577.59,453.52a5.28,5.28,0,0,1-1.92-.61,5.65,5.65,0,0,1-1.55-1.38,6.86,6.86,0,0,1-1.2-2.31,10.29,10.29,0,0,1,0-5.75,6.86,6.86,0,0,1,1.2-2.31,5.65,5.65,0,0,1,1.55-1.38,5.1,5.1,0,0,1,1.92-.61v1.07a1.52,1.52,0,0,0-.4.16.68.68,0,0,0-.22.2,1.73,1.73,0,0,0-.3,1.09V451a1.73,1.73,0,0,0,.3,1.09.68.68,0,0,0,.22.2,1.52,1.52,0,0,0,.4.16Zm.79,0v-1.07a1.9,1.9,0,0,0,.4-.16.77.77,0,0,0,.21-.2,1.73,1.73,0,0,0,.3-1.09v-9.31a1.73,1.73,0,0,0-.3-1.09.77.77,0,0,0-.21-.2,1.9,1.9,0,0,0-.4-.16v-1.07a5.11,5.11,0,0,1,1.91.61,5.65,5.65,0,0,1,1.55,1.38,6.86,6.86,0,0,1,1.2,2.31,10.29,10.29,0,0,1,0,5.75,6.86,6.86,0,0,1-1.2,2.31,5.65,5.65,0,0,1-1.55,1.38A5.29,5.29,0,0,1,578.38,453.52Z" transform="translate(-12.5 -20.5)"/><path d="M588.82,443.09v1.52l-3.22,4.48h3.22v1h-3.57a1,1,0,0,1-.6-.13.6.6,0,0,1-.16-.49,1.62,1.62,0,0,1,.34-.93l.16-.21Zm.81-1.11,1.61-2.22a1,1,0,0,1,.35-.35,1.83,1.83,0,0,1,.57-.06h.89c.24,0,.39,0,.44.13a1.12,1.12,0,0,1,.06.43v9.18h1.28c.34,0,.52.16.52.49s-.2.52-.58.52h-1.22v1.31a.83.83,0,0,0,.16.57.4.4,0,0,0,.15.12l.47.13a.54.54,0,0,1,.49.56.5.5,0,0,1-.26.43,1.33,1.33,0,0,1-.66.12h-4.61a1.26,1.26,0,0,1-.65-.12.49.49,0,0,1-.27-.43.54.54,0,0,1,.5-.56l.46-.13a.4.4,0,0,0,.15-.12.88.88,0,0,0,.15-.57Z" transform="translate(-12.5 -20.5)"/><path d="M600.86,443.09v1.52l-3.22,4.48h3.22v1h-3.58a1,1,0,0,1-.6-.13.64.64,0,0,1-.15-.49,1.62,1.62,0,0,1,.34-.93l.16-.21Zm.81-1.11,1.61-2.22a1,1,0,0,1,.35-.35,1.78,1.78,0,0,1,.57-.06h.89c.24,0,.39,0,.44.13a1.12,1.12,0,0,1,.06.43v9.18h1.28c.34,0,.51.16.51.49s-.19.52-.57.52h-1.22v1.31a.88.88,0,0,0,.15.57.51.51,0,0,0,.16.12l.47.13a.54.54,0,0,1,.49.56.49.49,0,0,1-.27.43,1.29,1.29,0,0,1-.65.12h-4.62a1.24,1.24,0,0,1-.64-.12.49.49,0,0,1-.27-.43.54.54,0,0,1,.49-.56l.47-.13a.4.4,0,0,0,.15-.12.88.88,0,0,0,.15-.57Z" transform="translate(-12.5 -20.5)"/><path d="M467.38,351.07v12a.9.9,0,0,0,.15.58.42.42,0,0,0,.15.13l.48.13a.54.54,0,0,1,.49.56.49.49,0,0,1-.27.43,1.27,1.27,0,0,1-.64.12h-4.63a1.22,1.22,0,0,1-.64-.12.49.49,0,0,1-.27-.43.54.54,0,0,1,.49-.56l.47-.13a.35.35,0,0,0,.15-.13.9.9,0,0,0,.15-.58v-9.59a2.08,2.08,0,0,0-.11-.78.41.41,0,0,0-.34-.28l-.36,0c-.32-.05-.48-.21-.48-.49a.58.58,0,0,1,.31-.52,1.91,1.91,0,0,1,.63-.11Z" transform="translate(-12.5 -20.5)"/><path d="M477.1,351.89a1.25,1.25,0,0,0-.56.48,2.48,2.48,0,0,0-.12.94v2.83a1.32,1.32,0,0,0,.33,1,1.24,1.24,0,0,0,.35.2v1.08a1,1,0,0,0-.52.4,1.34,1.34,0,0,0-.16.73V363a1.87,1.87,0,0,0,.13.71.74.74,0,0,0,.2.29.9.9,0,0,0,.34.15v1.07h-.21A7.9,7.9,0,0,1,475,365a5.37,5.37,0,0,1-1-.3,3.13,3.13,0,0,1-.72-.46,3.22,3.22,0,0,1-1.16-2.61,3.82,3.82,0,0,1,.36-1.67,3.27,3.27,0,0,1,1-1.26,3.86,3.86,0,0,1,.8-.48,11.27,11.27,0,0,1,1.13-.4,6.71,6.71,0,0,1-1.1-.39,4,4,0,0,1-.76-.48,3,3,0,0,1-1.07-2.42,3.44,3.44,0,0,1,.49-1.81,3.38,3.38,0,0,1,1.36-1.26,6.38,6.38,0,0,1,2.64-.58Zm.71,0v-1a6.38,6.38,0,0,1,2.64.58,3.31,3.31,0,0,1,1.36,1.26,3.45,3.45,0,0,1,.5,1.81,3,3,0,0,1-1.08,2.42,3.68,3.68,0,0,1-.75.48,7.07,7.07,0,0,1-1.1.39c.47.15.85.28,1.13.4a4.07,4.07,0,0,1,.79.48,3.27,3.27,0,0,1,1,1.26,3.69,3.69,0,0,1,.37,1.67,3.25,3.25,0,0,1-1.16,2.61,2.87,2.87,0,0,1-.72.47,4.91,4.91,0,0,1-.95.29,10.79,10.79,0,0,1-1.86.22h-.14v-1.07a1,1,0,0,0,.34-.15.73.73,0,0,0,.19-.29,1.7,1.7,0,0,0,.13-.71v-3.5a1.54,1.54,0,0,0-.06-.33c-.05-.15-.09-.28-.13-.37a.85.85,0,0,0-.2-.25,1.3,1.3,0,0,0-.34-.18v-1.08a1.42,1.42,0,0,0,.36-.21.78.78,0,0,0,.19-.31c0-.07.06-.19.11-.36a1.87,1.87,0,0,0,.07-.29v-2.83a1.91,1.91,0,0,0-.06-.37l-.11-.56A1.11,1.11,0,0,0,477.81,351.89Z" transform="translate(-12.5 -20.5)"/><path d="M489.17,351.89a1.25,1.25,0,0,0-.56.48,2.48,2.48,0,0,0-.12.94v2.83a1.78,1.78,0,0,0,.12.65,1.11,1.11,0,0,0,.21.32,1.24,1.24,0,0,0,.35.2v1.08a1,1,0,0,0-.53.4,1.45,1.45,0,0,0-.15.73V363a1.7,1.7,0,0,0,.13.71.74.74,0,0,0,.2.29.9.9,0,0,0,.34.15v1.07H489a7.84,7.84,0,0,1-1.84-.22,5.37,5.37,0,0,1-.95-.3,3.41,3.41,0,0,1-.73-.46,3.24,3.24,0,0,1-1.15-2.61,3.82,3.82,0,0,1,.36-1.67,3.27,3.27,0,0,1,1-1.26,4.07,4.07,0,0,1,.79-.48c.28-.12.66-.25,1.14-.4a6.71,6.71,0,0,1-1.1-.39,3.75,3.75,0,0,1-.76-.48,3,3,0,0,1-1.07-2.42,3.44,3.44,0,0,1,.49-1.81,3.38,3.38,0,0,1,1.36-1.26,6.38,6.38,0,0,1,2.64-.58Zm.7,0v-1a6.39,6.39,0,0,1,2.65.58,3.38,3.38,0,0,1,1.36,1.26,3.45,3.45,0,0,1,.5,1.81A3,3,0,0,1,493.3,357a3.49,3.49,0,0,1-.76.48,6.38,6.38,0,0,1-1.1.39c.48.15.86.28,1.14.4a4.07,4.07,0,0,1,.79.48,3.27,3.27,0,0,1,1,1.26,3.82,3.82,0,0,1,.37,1.67,3.25,3.25,0,0,1-1.16,2.61,3.11,3.11,0,0,1-.73.47,4.79,4.79,0,0,1-.94.29,10.79,10.79,0,0,1-1.86.22H490v-1.07a.85.85,0,0,0,.33-.15.74.74,0,0,0,.2-.29,1.7,1.7,0,0,0,.13-.71v-3.5a1.54,1.54,0,0,0-.06-.33c-.05-.15-.09-.28-.13-.37a.85.85,0,0,0-.2-.25,1.23,1.23,0,0,0-.35-.18v-1.08a1.34,1.34,0,0,0,.37-.21.78.78,0,0,0,.19-.31c0-.07.06-.19.11-.36a1.87,1.87,0,0,0,.07-.29v-2.83a1.91,1.91,0,0,0-.06-.37l-.11-.56A1.1,1.1,0,0,0,489.87,351.89Z" transform="translate(-12.5 -20.5)"/><path d="M505.91,360.51a.43.43,0,0,1,.38.18.91.91,0,0,1,.14.52,4,4,0,0,1-.37,1.58,4.39,4.39,0,0,1-.9,1.41A3.34,3.34,0,0,1,504,365a3.19,3.19,0,0,1-1.26.29,5.21,5.21,0,0,1-1.51-.24l-1.36-.4a7.23,7.23,0,0,0-1.47-.33,1.55,1.55,0,0,0-1,.43.91.91,0,0,1-.48.27.43.43,0,0,1-.36-.15.66.66,0,0,1-.13-.44,2.75,2.75,0,0,1,.25-1.13,3.39,3.39,0,0,1,.7-1,3.47,3.47,0,0,1,2.54-.91,11.44,11.44,0,0,1,2,.24,17.9,17.9,0,0,0,2.42.35,1,1,0,0,0,.73-.25.57.57,0,0,0,.13-.21,4,4,0,0,0,.12-.43C505.49,360.7,505.66,360.52,505.91,360.51Zm-5.83-9.59V352a1.5,1.5,0,0,0-.47.17c-.12.08-.18.15-.17.23s.11.2.28.31a2,2,0,0,1,.66.68,1.89,1.89,0,0,1-.38,2.24,1.93,1.93,0,0,1-1.39.56,2,2,0,0,1-1.46-.6,2,2,0,0,1-.58-1.49,2.7,2.7,0,0,1,.51-1.57,3.56,3.56,0,0,1,1.38-1.15A7.55,7.55,0,0,1,500.08,350.92ZM501,352v-1.12h.28a5.79,5.79,0,0,1,2,.36,4.57,4.57,0,0,1,1.62,1,3.6,3.6,0,0,1,1.08,2.67,4,4,0,0,1-.81,2.46,5.41,5.41,0,0,1-2.31,1.67l-1.35.54a15.22,15.22,0,0,0-1.65.82l-.31.17a3,3,0,0,0-.79.11,10.8,10.8,0,0,0-1.09.41,7,7,0,0,1,.74-.85c.25-.24.62-.55,1.12-.94a15.22,15.22,0,0,0,1.3-1.08,3.27,3.27,0,0,0,.57-.78,3.48,3.48,0,0,0,.34-1.06,9.21,9.21,0,0,0,.11-1.54,5.74,5.74,0,0,0-.29-2.22,1,1,0,0,0-.24-.34A1.26,1.26,0,0,0,501,352Z" transform="translate(-12.5 -20.5)"/></g></svg>